M48
; DRILL file {KiCad (5.1.4)-1} date 10/24/2019 7:14:10 PM
; FORMAT={-:-/ absolute / inch / decimal}
; #@! TF.CreationDate,2019-10-24T19:14:10-04:00
; #@! TF.GenerationSoftware,Kicad,Pcbnew,(5.1.4)-1
FMAT,2
INCH
T1C0.0157
T2C0.0276
T3C0.0315
%
G90
G05
T1
X3.1809Y-3.4009
X3.3816Y-3.4009
X3.3816Y-3.4796
T2
X4.7742Y-3.4466
X4.7961Y-3.379
X4.7961Y-3.5142
X4.8536Y-3.3373
X4.8536Y-3.5559
X4.9247Y-3.3373
X4.9247Y-3.5559
X4.9822Y-3.379
X4.9822Y-3.5142
X5.0041Y-3.4466
T3
X5.1502Y-3.284
X5.1502Y-3.384
X5.1502Y-3.484
X5.1502Y-3.584
X5.4502Y-3.284
X5.4502Y-3.384
X5.4502Y-3.484
X5.4502Y-3.584
X4.5926Y-3.3895
X4.5926Y-3.5391
T0
M30
