G04 #@! TF.GenerationSoftware,KiCad,Pcbnew,(5.1.4)-1*
G04 #@! TF.CreationDate,2019-10-24T19:13:58-04:00*
G04 #@! TF.ProjectId,business card,62757369-6e65-4737-9320-636172642e6b,rev?*
G04 #@! TF.SameCoordinates,Original*
G04 #@! TF.FileFunction,Soldermask,Bot*
G04 #@! TF.FilePolarity,Negative*
%FSLAX46Y46*%
G04 Gerber Fmt 4.6, Leading zero omitted, Abs format (unit mm)*
G04 Created by KiCad (PCBNEW (5.1.4)-1) date 2019-10-24 19:13:58*
%MOMM*%
%LPD*%
G04 APERTURE LIST*
%ADD10C,0.250000*%
%ADD11R,1.980000X1.300000*%
%ADD12R,1.350000X1.450000*%
%ADD13R,0.800000X1.500000*%
%ADD14C,0.325000*%
%ADD15C,0.850000*%
%ADD16C,0.770000*%
%ADD17C,0.100000*%
%ADD18C,0.700000*%
%ADD19C,0.365000*%
%ADD20C,0.265000*%
%ADD21R,1.000000X0.600000*%
%ADD22R,0.600000X1.000000*%
%ADD23R,1.725000X1.725000*%
%ADD24O,1.150000X0.700000*%
%ADD25O,0.700000X1.150000*%
%ADD26R,1.300000X1.300000*%
%ADD27R,1.650000X1.650000*%
%ADD28R,0.750000X1.200000*%
%ADD29R,1.200000X0.750000*%
%ADD30R,2.600000X1.000000*%
%ADD31R,2.550000X3.850000*%
%ADD32R,3.200000X1.350000*%
%ADD33R,1.620000X0.800000*%
%ADD34R,1.400000X0.700000*%
%ADD35R,1.925000X3.050000*%
%ADD36R,1.975000X2.200000*%
%ADD37R,1.700000X3.800000*%
%ADD38R,2.375000X5.800000*%
%ADD39R,1.925000X3.750000*%
%ADD40R,2.500000X5.850000*%
%ADD41R,1.900000X3.100000*%
%ADD42C,1.900000*%
%ADD43C,1.416000*%
%ADD44C,2.432000*%
%ADD45C,1.924000*%
%ADD46C,1.162000*%
%ADD47R,1.900000X1.000000*%
%ADD48R,0.800000X1.000000*%
%ADD49R,0.900000X1.300000*%
%ADD50R,0.680000X0.830000*%
%ADD51R,1.100000X1.700000*%
%ADD52R,1.300000X2.100000*%
%ADD53R,1.300000X2.900000*%
%ADD54R,1.200100X1.200100*%
%ADD55R,1.460000X1.050000*%
%ADD56R,0.800000X0.900000*%
%ADD57R,0.700000X0.900000*%
%ADD58R,1.111200X0.857200*%
%ADD59R,1.060400X0.806400*%
%ADD60R,1.149300X0.798780*%
%ADD61R,2.200860X2.899360*%
%ADD62R,2.701240X2.899360*%
%ADD63R,0.950000X2.000000*%
%ADD64R,2.000000X0.950000*%
%ADD65R,1.450000X0.850000*%
%ADD66R,1.870000X1.295000*%
%ADD67R,1.700480X2.099260*%
%ADD68R,1.100000X0.650000*%
%ADD69R,2.130000X1.400000*%
%ADD70R,1.250000X1.225000*%
%ADD71C,2.540000*%
%ADD72O,1.600000X1.600000*%
%ADD73O,2.000000X1.600000*%
%ADD74R,2.000000X2.000000*%
%ADD75O,2.000000X2.000000*%
%ADD76R,2.400000X1.900000*%
%ADD77R,2.400000X4.200000*%
%ADD78R,2.600000X1.400000*%
%ADD79R,2.200000X3.800000*%
%ADD80R,1.600000X2.600000*%
%ADD81R,6.200000X6.800000*%
%ADD82R,1.600000X1.900000*%
%ADD83R,2.900000X3.700000*%
%ADD84C,0.025400*%
%ADD85C,0.020000*%
G04 APERTURE END LIST*
D10*
X53848000Y-101736183D02*
X53848000Y-97517240D01*
X56388000Y-101736183D02*
X56388000Y-97517240D01*
X58928000Y-101736183D02*
X58928000Y-97517240D01*
X61468000Y-101736183D02*
X61468000Y-97517240D01*
X51308000Y-101050000D02*
X51308000Y-96602840D01*
X76708000Y-101736183D02*
X76708000Y-96602840D01*
X102108000Y-101736183D02*
X102108000Y-96602840D01*
X66548000Y-101736183D02*
X66548000Y-97517240D01*
X69088000Y-101736183D02*
X69088000Y-97517240D01*
X71628000Y-101736183D02*
X71628000Y-97517240D01*
X74168000Y-101736183D02*
X74168000Y-97517240D01*
X79248000Y-101736183D02*
X79248000Y-97517240D01*
X81788000Y-101736183D02*
X81788000Y-97517240D01*
X84328000Y-101736183D02*
X84328000Y-97517240D01*
X86868000Y-101736183D02*
X86868000Y-97517240D01*
X64008000Y-101736183D02*
X64008000Y-94520040D01*
X89408000Y-101736183D02*
X89408000Y-94520040D01*
X114808000Y-101736183D02*
X114808000Y-94520040D01*
X112268000Y-101736183D02*
X112268000Y-97517240D01*
X109728000Y-101736183D02*
X109728000Y-97517240D01*
X107188000Y-101736183D02*
X107188000Y-97517240D01*
X104648000Y-101736183D02*
X104648000Y-97517240D01*
X99568000Y-101736183D02*
X99568000Y-97517240D01*
X97028000Y-101736183D02*
X97028000Y-97517240D01*
X94488000Y-101736183D02*
X94488000Y-97517240D01*
X91948000Y-101736183D02*
X91948000Y-97517240D01*
X117348000Y-101736183D02*
X117348000Y-97517240D01*
X119888000Y-101736183D02*
X119888000Y-97517240D01*
X122428000Y-101736183D02*
X122428000Y-97517240D01*
X124968000Y-101736183D02*
X124968000Y-97517240D01*
X127508000Y-101736183D02*
X127508000Y-96602840D01*
X130048000Y-101736183D02*
X130048000Y-97517240D01*
X137668000Y-101736183D02*
X137668000Y-97517240D01*
X135128000Y-101736183D02*
X135128000Y-97517240D01*
X132588000Y-101736183D02*
X132588000Y-97517240D01*
X90678000Y-101736183D02*
X90678000Y-98380837D01*
X93218000Y-101736183D02*
X93218000Y-98380837D01*
X95758000Y-101736183D02*
X95758000Y-98380837D01*
X98298000Y-101736183D02*
X98298000Y-98380837D01*
X100838000Y-101736183D02*
X100838000Y-98380837D01*
X103378000Y-101736183D02*
X103378000Y-98380837D01*
X105918000Y-101736183D02*
X105918000Y-98380837D01*
X108458000Y-101736183D02*
X108458000Y-98380837D01*
X110998000Y-101736183D02*
X110998000Y-98380837D01*
X113538000Y-101736183D02*
X113538000Y-98380837D01*
X116078000Y-101736183D02*
X116078000Y-98380837D01*
X118618000Y-101736183D02*
X118618000Y-98380837D01*
X121158000Y-101736183D02*
X121158000Y-98380837D01*
X123698000Y-101736183D02*
X123698000Y-98380837D01*
X126238000Y-101736183D02*
X126238000Y-98380837D01*
X128778000Y-101736183D02*
X128778000Y-98380837D01*
X131318000Y-101736183D02*
X131318000Y-98380837D01*
X133858000Y-101736183D02*
X133858000Y-98380837D01*
X138938000Y-101590000D02*
X138938000Y-98380837D01*
X136398000Y-101736183D02*
X136398000Y-98380837D01*
D11*
X99597400Y-73178800D03*
X94637400Y-73178800D03*
D12*
X91059000Y-88301800D03*
X91059000Y-86551800D03*
D13*
X87239200Y-89627600D03*
X87889200Y-89627600D03*
X88539200Y-89627600D03*
X89189200Y-89627600D03*
X89189200Y-85327600D03*
X88539200Y-85327600D03*
X87889200Y-85327600D03*
X87239200Y-85327600D03*
D14*
X103225500Y-55315000D03*
X103225500Y-55715000D03*
X103225500Y-56115000D03*
X103225500Y-56515000D03*
X103225500Y-56915000D03*
X103225500Y-57315000D03*
X103225500Y-57715000D03*
X102825500Y-55315000D03*
X102825500Y-55715000D03*
X102825500Y-56115000D03*
X102825500Y-56515000D03*
X102825500Y-56915000D03*
X102825500Y-57315000D03*
X102825500Y-57715000D03*
X102425500Y-55315000D03*
X102425500Y-55715000D03*
X102425500Y-56115000D03*
X102425500Y-56515000D03*
X102425500Y-56915000D03*
X102425500Y-57315000D03*
X102425500Y-57715000D03*
X102025500Y-55315000D03*
X102025500Y-55715000D03*
X102025500Y-56115000D03*
X102025500Y-56515000D03*
X102025500Y-56915000D03*
X102025500Y-57315000D03*
X102025500Y-57715000D03*
X101625500Y-55315000D03*
X101625500Y-55715000D03*
X101625500Y-56115000D03*
X101625500Y-56515000D03*
X101625500Y-56915000D03*
X101625500Y-57315000D03*
X101625500Y-57715000D03*
X101225500Y-55315000D03*
X101225500Y-55715000D03*
X101225500Y-56115000D03*
X101225500Y-56515000D03*
X101225500Y-56915000D03*
X101225500Y-57315000D03*
X101225500Y-57715000D03*
X100825500Y-55315000D03*
X100825500Y-55715000D03*
X100825500Y-56115000D03*
X100825500Y-56515000D03*
X100825500Y-56915000D03*
X100825500Y-57315000D03*
X100825500Y-57715000D03*
D15*
X86174320Y-57535640D03*
X86174320Y-56735640D03*
X86174320Y-55935640D03*
X86174320Y-55135640D03*
X86174320Y-54335640D03*
X86174320Y-53535640D03*
X86174320Y-52735640D03*
X86974320Y-57535640D03*
X86974320Y-56735640D03*
X86974320Y-55935640D03*
X86974320Y-55135640D03*
X86974320Y-54335640D03*
X86974320Y-53535640D03*
X86974320Y-52735640D03*
X87774320Y-57535640D03*
X87774320Y-56735640D03*
X87774320Y-55935640D03*
X87774320Y-55135640D03*
X87774320Y-54335640D03*
X87774320Y-53535640D03*
X87774320Y-52735640D03*
X88574320Y-57535640D03*
X88574320Y-56735640D03*
X88574320Y-55935640D03*
X88574320Y-55135640D03*
X88574320Y-54335640D03*
X88574320Y-53535640D03*
X88574320Y-52735640D03*
X89374320Y-57535640D03*
X89374320Y-56735640D03*
X89374320Y-55935640D03*
X89374320Y-55135640D03*
X89374320Y-54335640D03*
X89374320Y-53535640D03*
X89374320Y-52735640D03*
X90174320Y-57535640D03*
X90174320Y-56735640D03*
X90174320Y-55935640D03*
X90174320Y-55135640D03*
X90174320Y-54335640D03*
X90174320Y-53535640D03*
X90174320Y-52735640D03*
X90974320Y-57535640D03*
X90974320Y-56735640D03*
X90974320Y-55935640D03*
X90974320Y-55135640D03*
X90974320Y-54335640D03*
X90974320Y-53535640D03*
X90974320Y-52735640D03*
D16*
X98286180Y-53854200D03*
X98286180Y-54504200D03*
X98286180Y-55154200D03*
X98286180Y-55804200D03*
X98286180Y-56454200D03*
X98286180Y-57104200D03*
X98286180Y-57754200D03*
X97636180Y-53854200D03*
X97636180Y-54504200D03*
X97636180Y-55154200D03*
X97636180Y-55804200D03*
X97636180Y-56454200D03*
X97636180Y-57104200D03*
X97636180Y-57754200D03*
X96986180Y-53854200D03*
X96986180Y-54504200D03*
X96986180Y-55154200D03*
X96986180Y-55804200D03*
X96986180Y-56454200D03*
X96986180Y-57104200D03*
X96986180Y-57754200D03*
X96336180Y-53854200D03*
X96336180Y-54504200D03*
X96336180Y-55154200D03*
X96336180Y-55804200D03*
X96336180Y-56454200D03*
X96336180Y-57104200D03*
X96336180Y-57754200D03*
X95686180Y-53854200D03*
X95686180Y-54504200D03*
X95686180Y-55154200D03*
X95686180Y-55804200D03*
X95686180Y-56454200D03*
X95686180Y-57104200D03*
X95686180Y-57754200D03*
X95036180Y-53854200D03*
X95036180Y-54504200D03*
X95036180Y-55154200D03*
X95036180Y-55804200D03*
X95036180Y-56454200D03*
X95036180Y-57104200D03*
X95036180Y-57754200D03*
X94386180Y-53854200D03*
X94386180Y-54504200D03*
X94386180Y-55154200D03*
X94386180Y-55804200D03*
X94386180Y-56454200D03*
X94386180Y-57104200D03*
X94386180Y-57754200D03*
D17*
G36*
X108068553Y-78184643D02*
G01*
X108085541Y-78187163D01*
X108102200Y-78191335D01*
X108118370Y-78197121D01*
X108133894Y-78204464D01*
X108148625Y-78213293D01*
X108162419Y-78223523D01*
X108175144Y-78235056D01*
X108186677Y-78247781D01*
X108196907Y-78261575D01*
X108205736Y-78276306D01*
X108213079Y-78291830D01*
X108218865Y-78308000D01*
X108223037Y-78324659D01*
X108225557Y-78341647D01*
X108226400Y-78358800D01*
X108226400Y-79908800D01*
X108225557Y-79925953D01*
X108223037Y-79942941D01*
X108218865Y-79959600D01*
X108213079Y-79975770D01*
X108205736Y-79991294D01*
X108196907Y-80006025D01*
X108186677Y-80019819D01*
X108175144Y-80032544D01*
X108162419Y-80044077D01*
X108148625Y-80054307D01*
X108133894Y-80063136D01*
X108118370Y-80070479D01*
X108102200Y-80076265D01*
X108085541Y-80080437D01*
X108068553Y-80082957D01*
X108051400Y-80083800D01*
X107701400Y-80083800D01*
X107684247Y-80082957D01*
X107667259Y-80080437D01*
X107650600Y-80076265D01*
X107634430Y-80070479D01*
X107618906Y-80063136D01*
X107604175Y-80054307D01*
X107590381Y-80044077D01*
X107577656Y-80032544D01*
X107566123Y-80019819D01*
X107555893Y-80006025D01*
X107547064Y-79991294D01*
X107539721Y-79975770D01*
X107533935Y-79959600D01*
X107529763Y-79942941D01*
X107527243Y-79925953D01*
X107526400Y-79908800D01*
X107526400Y-78358800D01*
X107527243Y-78341647D01*
X107529763Y-78324659D01*
X107533935Y-78308000D01*
X107539721Y-78291830D01*
X107547064Y-78276306D01*
X107555893Y-78261575D01*
X107566123Y-78247781D01*
X107577656Y-78235056D01*
X107590381Y-78223523D01*
X107604175Y-78213293D01*
X107618906Y-78204464D01*
X107634430Y-78197121D01*
X107650600Y-78191335D01*
X107667259Y-78187163D01*
X107684247Y-78184643D01*
X107701400Y-78183800D01*
X108051400Y-78183800D01*
X108068553Y-78184643D01*
X108068553Y-78184643D01*
G37*
D18*
X107876400Y-79133800D03*
D17*
G36*
X108568553Y-78184643D02*
G01*
X108585541Y-78187163D01*
X108602200Y-78191335D01*
X108618370Y-78197121D01*
X108633894Y-78204464D01*
X108648625Y-78213293D01*
X108662419Y-78223523D01*
X108675144Y-78235056D01*
X108686677Y-78247781D01*
X108696907Y-78261575D01*
X108705736Y-78276306D01*
X108713079Y-78291830D01*
X108718865Y-78308000D01*
X108723037Y-78324659D01*
X108725557Y-78341647D01*
X108726400Y-78358800D01*
X108726400Y-79908800D01*
X108725557Y-79925953D01*
X108723037Y-79942941D01*
X108718865Y-79959600D01*
X108713079Y-79975770D01*
X108705736Y-79991294D01*
X108696907Y-80006025D01*
X108686677Y-80019819D01*
X108675144Y-80032544D01*
X108662419Y-80044077D01*
X108648625Y-80054307D01*
X108633894Y-80063136D01*
X108618370Y-80070479D01*
X108602200Y-80076265D01*
X108585541Y-80080437D01*
X108568553Y-80082957D01*
X108551400Y-80083800D01*
X108201400Y-80083800D01*
X108184247Y-80082957D01*
X108167259Y-80080437D01*
X108150600Y-80076265D01*
X108134430Y-80070479D01*
X108118906Y-80063136D01*
X108104175Y-80054307D01*
X108090381Y-80044077D01*
X108077656Y-80032544D01*
X108066123Y-80019819D01*
X108055893Y-80006025D01*
X108047064Y-79991294D01*
X108039721Y-79975770D01*
X108033935Y-79959600D01*
X108029763Y-79942941D01*
X108027243Y-79925953D01*
X108026400Y-79908800D01*
X108026400Y-78358800D01*
X108027243Y-78341647D01*
X108029763Y-78324659D01*
X108033935Y-78308000D01*
X108039721Y-78291830D01*
X108047064Y-78276306D01*
X108055893Y-78261575D01*
X108066123Y-78247781D01*
X108077656Y-78235056D01*
X108090381Y-78223523D01*
X108104175Y-78213293D01*
X108118906Y-78204464D01*
X108134430Y-78197121D01*
X108150600Y-78191335D01*
X108167259Y-78187163D01*
X108184247Y-78184643D01*
X108201400Y-78183800D01*
X108551400Y-78183800D01*
X108568553Y-78184643D01*
X108568553Y-78184643D01*
G37*
D18*
X108376400Y-79133800D03*
D17*
G36*
X109068553Y-78184643D02*
G01*
X109085541Y-78187163D01*
X109102200Y-78191335D01*
X109118370Y-78197121D01*
X109133894Y-78204464D01*
X109148625Y-78213293D01*
X109162419Y-78223523D01*
X109175144Y-78235056D01*
X109186677Y-78247781D01*
X109196907Y-78261575D01*
X109205736Y-78276306D01*
X109213079Y-78291830D01*
X109218865Y-78308000D01*
X109223037Y-78324659D01*
X109225557Y-78341647D01*
X109226400Y-78358800D01*
X109226400Y-79908800D01*
X109225557Y-79925953D01*
X109223037Y-79942941D01*
X109218865Y-79959600D01*
X109213079Y-79975770D01*
X109205736Y-79991294D01*
X109196907Y-80006025D01*
X109186677Y-80019819D01*
X109175144Y-80032544D01*
X109162419Y-80044077D01*
X109148625Y-80054307D01*
X109133894Y-80063136D01*
X109118370Y-80070479D01*
X109102200Y-80076265D01*
X109085541Y-80080437D01*
X109068553Y-80082957D01*
X109051400Y-80083800D01*
X108701400Y-80083800D01*
X108684247Y-80082957D01*
X108667259Y-80080437D01*
X108650600Y-80076265D01*
X108634430Y-80070479D01*
X108618906Y-80063136D01*
X108604175Y-80054307D01*
X108590381Y-80044077D01*
X108577656Y-80032544D01*
X108566123Y-80019819D01*
X108555893Y-80006025D01*
X108547064Y-79991294D01*
X108539721Y-79975770D01*
X108533935Y-79959600D01*
X108529763Y-79942941D01*
X108527243Y-79925953D01*
X108526400Y-79908800D01*
X108526400Y-78358800D01*
X108527243Y-78341647D01*
X108529763Y-78324659D01*
X108533935Y-78308000D01*
X108539721Y-78291830D01*
X108547064Y-78276306D01*
X108555893Y-78261575D01*
X108566123Y-78247781D01*
X108577656Y-78235056D01*
X108590381Y-78223523D01*
X108604175Y-78213293D01*
X108618906Y-78204464D01*
X108634430Y-78197121D01*
X108650600Y-78191335D01*
X108667259Y-78187163D01*
X108684247Y-78184643D01*
X108701400Y-78183800D01*
X109051400Y-78183800D01*
X109068553Y-78184643D01*
X109068553Y-78184643D01*
G37*
D18*
X108876400Y-79133800D03*
D17*
G36*
X109568553Y-78184643D02*
G01*
X109585541Y-78187163D01*
X109602200Y-78191335D01*
X109618370Y-78197121D01*
X109633894Y-78204464D01*
X109648625Y-78213293D01*
X109662419Y-78223523D01*
X109675144Y-78235056D01*
X109686677Y-78247781D01*
X109696907Y-78261575D01*
X109705736Y-78276306D01*
X109713079Y-78291830D01*
X109718865Y-78308000D01*
X109723037Y-78324659D01*
X109725557Y-78341647D01*
X109726400Y-78358800D01*
X109726400Y-79908800D01*
X109725557Y-79925953D01*
X109723037Y-79942941D01*
X109718865Y-79959600D01*
X109713079Y-79975770D01*
X109705736Y-79991294D01*
X109696907Y-80006025D01*
X109686677Y-80019819D01*
X109675144Y-80032544D01*
X109662419Y-80044077D01*
X109648625Y-80054307D01*
X109633894Y-80063136D01*
X109618370Y-80070479D01*
X109602200Y-80076265D01*
X109585541Y-80080437D01*
X109568553Y-80082957D01*
X109551400Y-80083800D01*
X109201400Y-80083800D01*
X109184247Y-80082957D01*
X109167259Y-80080437D01*
X109150600Y-80076265D01*
X109134430Y-80070479D01*
X109118906Y-80063136D01*
X109104175Y-80054307D01*
X109090381Y-80044077D01*
X109077656Y-80032544D01*
X109066123Y-80019819D01*
X109055893Y-80006025D01*
X109047064Y-79991294D01*
X109039721Y-79975770D01*
X109033935Y-79959600D01*
X109029763Y-79942941D01*
X109027243Y-79925953D01*
X109026400Y-79908800D01*
X109026400Y-78358800D01*
X109027243Y-78341647D01*
X109029763Y-78324659D01*
X109033935Y-78308000D01*
X109039721Y-78291830D01*
X109047064Y-78276306D01*
X109055893Y-78261575D01*
X109066123Y-78247781D01*
X109077656Y-78235056D01*
X109090381Y-78223523D01*
X109104175Y-78213293D01*
X109118906Y-78204464D01*
X109134430Y-78197121D01*
X109150600Y-78191335D01*
X109167259Y-78187163D01*
X109184247Y-78184643D01*
X109201400Y-78183800D01*
X109551400Y-78183800D01*
X109568553Y-78184643D01*
X109568553Y-78184643D01*
G37*
D18*
X109376400Y-79133800D03*
D17*
G36*
X110068553Y-78184643D02*
G01*
X110085541Y-78187163D01*
X110102200Y-78191335D01*
X110118370Y-78197121D01*
X110133894Y-78204464D01*
X110148625Y-78213293D01*
X110162419Y-78223523D01*
X110175144Y-78235056D01*
X110186677Y-78247781D01*
X110196907Y-78261575D01*
X110205736Y-78276306D01*
X110213079Y-78291830D01*
X110218865Y-78308000D01*
X110223037Y-78324659D01*
X110225557Y-78341647D01*
X110226400Y-78358800D01*
X110226400Y-79908800D01*
X110225557Y-79925953D01*
X110223037Y-79942941D01*
X110218865Y-79959600D01*
X110213079Y-79975770D01*
X110205736Y-79991294D01*
X110196907Y-80006025D01*
X110186677Y-80019819D01*
X110175144Y-80032544D01*
X110162419Y-80044077D01*
X110148625Y-80054307D01*
X110133894Y-80063136D01*
X110118370Y-80070479D01*
X110102200Y-80076265D01*
X110085541Y-80080437D01*
X110068553Y-80082957D01*
X110051400Y-80083800D01*
X109701400Y-80083800D01*
X109684247Y-80082957D01*
X109667259Y-80080437D01*
X109650600Y-80076265D01*
X109634430Y-80070479D01*
X109618906Y-80063136D01*
X109604175Y-80054307D01*
X109590381Y-80044077D01*
X109577656Y-80032544D01*
X109566123Y-80019819D01*
X109555893Y-80006025D01*
X109547064Y-79991294D01*
X109539721Y-79975770D01*
X109533935Y-79959600D01*
X109529763Y-79942941D01*
X109527243Y-79925953D01*
X109526400Y-79908800D01*
X109526400Y-78358800D01*
X109527243Y-78341647D01*
X109529763Y-78324659D01*
X109533935Y-78308000D01*
X109539721Y-78291830D01*
X109547064Y-78276306D01*
X109555893Y-78261575D01*
X109566123Y-78247781D01*
X109577656Y-78235056D01*
X109590381Y-78223523D01*
X109604175Y-78213293D01*
X109618906Y-78204464D01*
X109634430Y-78197121D01*
X109650600Y-78191335D01*
X109667259Y-78187163D01*
X109684247Y-78184643D01*
X109701400Y-78183800D01*
X110051400Y-78183800D01*
X110068553Y-78184643D01*
X110068553Y-78184643D01*
G37*
D18*
X109876400Y-79133800D03*
D17*
G36*
X110568553Y-78184643D02*
G01*
X110585541Y-78187163D01*
X110602200Y-78191335D01*
X110618370Y-78197121D01*
X110633894Y-78204464D01*
X110648625Y-78213293D01*
X110662419Y-78223523D01*
X110675144Y-78235056D01*
X110686677Y-78247781D01*
X110696907Y-78261575D01*
X110705736Y-78276306D01*
X110713079Y-78291830D01*
X110718865Y-78308000D01*
X110723037Y-78324659D01*
X110725557Y-78341647D01*
X110726400Y-78358800D01*
X110726400Y-79908800D01*
X110725557Y-79925953D01*
X110723037Y-79942941D01*
X110718865Y-79959600D01*
X110713079Y-79975770D01*
X110705736Y-79991294D01*
X110696907Y-80006025D01*
X110686677Y-80019819D01*
X110675144Y-80032544D01*
X110662419Y-80044077D01*
X110648625Y-80054307D01*
X110633894Y-80063136D01*
X110618370Y-80070479D01*
X110602200Y-80076265D01*
X110585541Y-80080437D01*
X110568553Y-80082957D01*
X110551400Y-80083800D01*
X110201400Y-80083800D01*
X110184247Y-80082957D01*
X110167259Y-80080437D01*
X110150600Y-80076265D01*
X110134430Y-80070479D01*
X110118906Y-80063136D01*
X110104175Y-80054307D01*
X110090381Y-80044077D01*
X110077656Y-80032544D01*
X110066123Y-80019819D01*
X110055893Y-80006025D01*
X110047064Y-79991294D01*
X110039721Y-79975770D01*
X110033935Y-79959600D01*
X110029763Y-79942941D01*
X110027243Y-79925953D01*
X110026400Y-79908800D01*
X110026400Y-78358800D01*
X110027243Y-78341647D01*
X110029763Y-78324659D01*
X110033935Y-78308000D01*
X110039721Y-78291830D01*
X110047064Y-78276306D01*
X110055893Y-78261575D01*
X110066123Y-78247781D01*
X110077656Y-78235056D01*
X110090381Y-78223523D01*
X110104175Y-78213293D01*
X110118906Y-78204464D01*
X110134430Y-78197121D01*
X110150600Y-78191335D01*
X110167259Y-78187163D01*
X110184247Y-78184643D01*
X110201400Y-78183800D01*
X110551400Y-78183800D01*
X110568553Y-78184643D01*
X110568553Y-78184643D01*
G37*
D18*
X110376400Y-79133800D03*
D17*
G36*
X111068553Y-78184643D02*
G01*
X111085541Y-78187163D01*
X111102200Y-78191335D01*
X111118370Y-78197121D01*
X111133894Y-78204464D01*
X111148625Y-78213293D01*
X111162419Y-78223523D01*
X111175144Y-78235056D01*
X111186677Y-78247781D01*
X111196907Y-78261575D01*
X111205736Y-78276306D01*
X111213079Y-78291830D01*
X111218865Y-78308000D01*
X111223037Y-78324659D01*
X111225557Y-78341647D01*
X111226400Y-78358800D01*
X111226400Y-79908800D01*
X111225557Y-79925953D01*
X111223037Y-79942941D01*
X111218865Y-79959600D01*
X111213079Y-79975770D01*
X111205736Y-79991294D01*
X111196907Y-80006025D01*
X111186677Y-80019819D01*
X111175144Y-80032544D01*
X111162419Y-80044077D01*
X111148625Y-80054307D01*
X111133894Y-80063136D01*
X111118370Y-80070479D01*
X111102200Y-80076265D01*
X111085541Y-80080437D01*
X111068553Y-80082957D01*
X111051400Y-80083800D01*
X110701400Y-80083800D01*
X110684247Y-80082957D01*
X110667259Y-80080437D01*
X110650600Y-80076265D01*
X110634430Y-80070479D01*
X110618906Y-80063136D01*
X110604175Y-80054307D01*
X110590381Y-80044077D01*
X110577656Y-80032544D01*
X110566123Y-80019819D01*
X110555893Y-80006025D01*
X110547064Y-79991294D01*
X110539721Y-79975770D01*
X110533935Y-79959600D01*
X110529763Y-79942941D01*
X110527243Y-79925953D01*
X110526400Y-79908800D01*
X110526400Y-78358800D01*
X110527243Y-78341647D01*
X110529763Y-78324659D01*
X110533935Y-78308000D01*
X110539721Y-78291830D01*
X110547064Y-78276306D01*
X110555893Y-78261575D01*
X110566123Y-78247781D01*
X110577656Y-78235056D01*
X110590381Y-78223523D01*
X110604175Y-78213293D01*
X110618906Y-78204464D01*
X110634430Y-78197121D01*
X110650600Y-78191335D01*
X110667259Y-78187163D01*
X110684247Y-78184643D01*
X110701400Y-78183800D01*
X111051400Y-78183800D01*
X111068553Y-78184643D01*
X111068553Y-78184643D01*
G37*
D18*
X110876400Y-79133800D03*
D17*
G36*
X111568553Y-78184643D02*
G01*
X111585541Y-78187163D01*
X111602200Y-78191335D01*
X111618370Y-78197121D01*
X111633894Y-78204464D01*
X111648625Y-78213293D01*
X111662419Y-78223523D01*
X111675144Y-78235056D01*
X111686677Y-78247781D01*
X111696907Y-78261575D01*
X111705736Y-78276306D01*
X111713079Y-78291830D01*
X111718865Y-78308000D01*
X111723037Y-78324659D01*
X111725557Y-78341647D01*
X111726400Y-78358800D01*
X111726400Y-79908800D01*
X111725557Y-79925953D01*
X111723037Y-79942941D01*
X111718865Y-79959600D01*
X111713079Y-79975770D01*
X111705736Y-79991294D01*
X111696907Y-80006025D01*
X111686677Y-80019819D01*
X111675144Y-80032544D01*
X111662419Y-80044077D01*
X111648625Y-80054307D01*
X111633894Y-80063136D01*
X111618370Y-80070479D01*
X111602200Y-80076265D01*
X111585541Y-80080437D01*
X111568553Y-80082957D01*
X111551400Y-80083800D01*
X111201400Y-80083800D01*
X111184247Y-80082957D01*
X111167259Y-80080437D01*
X111150600Y-80076265D01*
X111134430Y-80070479D01*
X111118906Y-80063136D01*
X111104175Y-80054307D01*
X111090381Y-80044077D01*
X111077656Y-80032544D01*
X111066123Y-80019819D01*
X111055893Y-80006025D01*
X111047064Y-79991294D01*
X111039721Y-79975770D01*
X111033935Y-79959600D01*
X111029763Y-79942941D01*
X111027243Y-79925953D01*
X111026400Y-79908800D01*
X111026400Y-78358800D01*
X111027243Y-78341647D01*
X111029763Y-78324659D01*
X111033935Y-78308000D01*
X111039721Y-78291830D01*
X111047064Y-78276306D01*
X111055893Y-78261575D01*
X111066123Y-78247781D01*
X111077656Y-78235056D01*
X111090381Y-78223523D01*
X111104175Y-78213293D01*
X111118906Y-78204464D01*
X111134430Y-78197121D01*
X111150600Y-78191335D01*
X111167259Y-78187163D01*
X111184247Y-78184643D01*
X111201400Y-78183800D01*
X111551400Y-78183800D01*
X111568553Y-78184643D01*
X111568553Y-78184643D01*
G37*
D18*
X111376400Y-79133800D03*
D17*
G36*
X113593553Y-77359643D02*
G01*
X113610541Y-77362163D01*
X113627200Y-77366335D01*
X113643370Y-77372121D01*
X113658894Y-77379464D01*
X113673625Y-77388293D01*
X113687419Y-77398523D01*
X113700144Y-77410056D01*
X113711677Y-77422781D01*
X113721907Y-77436575D01*
X113730736Y-77451306D01*
X113738079Y-77466830D01*
X113743865Y-77483000D01*
X113748037Y-77499659D01*
X113750557Y-77516647D01*
X113751400Y-77533800D01*
X113751400Y-77883800D01*
X113750557Y-77900953D01*
X113748037Y-77917941D01*
X113743865Y-77934600D01*
X113738079Y-77950770D01*
X113730736Y-77966294D01*
X113721907Y-77981025D01*
X113711677Y-77994819D01*
X113700144Y-78007544D01*
X113687419Y-78019077D01*
X113673625Y-78029307D01*
X113658894Y-78038136D01*
X113643370Y-78045479D01*
X113627200Y-78051265D01*
X113610541Y-78055437D01*
X113593553Y-78057957D01*
X113576400Y-78058800D01*
X112026400Y-78058800D01*
X112009247Y-78057957D01*
X111992259Y-78055437D01*
X111975600Y-78051265D01*
X111959430Y-78045479D01*
X111943906Y-78038136D01*
X111929175Y-78029307D01*
X111915381Y-78019077D01*
X111902656Y-78007544D01*
X111891123Y-77994819D01*
X111880893Y-77981025D01*
X111872064Y-77966294D01*
X111864721Y-77950770D01*
X111858935Y-77934600D01*
X111854763Y-77917941D01*
X111852243Y-77900953D01*
X111851400Y-77883800D01*
X111851400Y-77533800D01*
X111852243Y-77516647D01*
X111854763Y-77499659D01*
X111858935Y-77483000D01*
X111864721Y-77466830D01*
X111872064Y-77451306D01*
X111880893Y-77436575D01*
X111891123Y-77422781D01*
X111902656Y-77410056D01*
X111915381Y-77398523D01*
X111929175Y-77388293D01*
X111943906Y-77379464D01*
X111959430Y-77372121D01*
X111975600Y-77366335D01*
X111992259Y-77362163D01*
X112009247Y-77359643D01*
X112026400Y-77358800D01*
X113576400Y-77358800D01*
X113593553Y-77359643D01*
X113593553Y-77359643D01*
G37*
D18*
X112801400Y-77708800D03*
D17*
G36*
X113593553Y-76859643D02*
G01*
X113610541Y-76862163D01*
X113627200Y-76866335D01*
X113643370Y-76872121D01*
X113658894Y-76879464D01*
X113673625Y-76888293D01*
X113687419Y-76898523D01*
X113700144Y-76910056D01*
X113711677Y-76922781D01*
X113721907Y-76936575D01*
X113730736Y-76951306D01*
X113738079Y-76966830D01*
X113743865Y-76983000D01*
X113748037Y-76999659D01*
X113750557Y-77016647D01*
X113751400Y-77033800D01*
X113751400Y-77383800D01*
X113750557Y-77400953D01*
X113748037Y-77417941D01*
X113743865Y-77434600D01*
X113738079Y-77450770D01*
X113730736Y-77466294D01*
X113721907Y-77481025D01*
X113711677Y-77494819D01*
X113700144Y-77507544D01*
X113687419Y-77519077D01*
X113673625Y-77529307D01*
X113658894Y-77538136D01*
X113643370Y-77545479D01*
X113627200Y-77551265D01*
X113610541Y-77555437D01*
X113593553Y-77557957D01*
X113576400Y-77558800D01*
X112026400Y-77558800D01*
X112009247Y-77557957D01*
X111992259Y-77555437D01*
X111975600Y-77551265D01*
X111959430Y-77545479D01*
X111943906Y-77538136D01*
X111929175Y-77529307D01*
X111915381Y-77519077D01*
X111902656Y-77507544D01*
X111891123Y-77494819D01*
X111880893Y-77481025D01*
X111872064Y-77466294D01*
X111864721Y-77450770D01*
X111858935Y-77434600D01*
X111854763Y-77417941D01*
X111852243Y-77400953D01*
X111851400Y-77383800D01*
X111851400Y-77033800D01*
X111852243Y-77016647D01*
X111854763Y-76999659D01*
X111858935Y-76983000D01*
X111864721Y-76966830D01*
X111872064Y-76951306D01*
X111880893Y-76936575D01*
X111891123Y-76922781D01*
X111902656Y-76910056D01*
X111915381Y-76898523D01*
X111929175Y-76888293D01*
X111943906Y-76879464D01*
X111959430Y-76872121D01*
X111975600Y-76866335D01*
X111992259Y-76862163D01*
X112009247Y-76859643D01*
X112026400Y-76858800D01*
X113576400Y-76858800D01*
X113593553Y-76859643D01*
X113593553Y-76859643D01*
G37*
D18*
X112801400Y-77208800D03*
D17*
G36*
X113593553Y-76359643D02*
G01*
X113610541Y-76362163D01*
X113627200Y-76366335D01*
X113643370Y-76372121D01*
X113658894Y-76379464D01*
X113673625Y-76388293D01*
X113687419Y-76398523D01*
X113700144Y-76410056D01*
X113711677Y-76422781D01*
X113721907Y-76436575D01*
X113730736Y-76451306D01*
X113738079Y-76466830D01*
X113743865Y-76483000D01*
X113748037Y-76499659D01*
X113750557Y-76516647D01*
X113751400Y-76533800D01*
X113751400Y-76883800D01*
X113750557Y-76900953D01*
X113748037Y-76917941D01*
X113743865Y-76934600D01*
X113738079Y-76950770D01*
X113730736Y-76966294D01*
X113721907Y-76981025D01*
X113711677Y-76994819D01*
X113700144Y-77007544D01*
X113687419Y-77019077D01*
X113673625Y-77029307D01*
X113658894Y-77038136D01*
X113643370Y-77045479D01*
X113627200Y-77051265D01*
X113610541Y-77055437D01*
X113593553Y-77057957D01*
X113576400Y-77058800D01*
X112026400Y-77058800D01*
X112009247Y-77057957D01*
X111992259Y-77055437D01*
X111975600Y-77051265D01*
X111959430Y-77045479D01*
X111943906Y-77038136D01*
X111929175Y-77029307D01*
X111915381Y-77019077D01*
X111902656Y-77007544D01*
X111891123Y-76994819D01*
X111880893Y-76981025D01*
X111872064Y-76966294D01*
X111864721Y-76950770D01*
X111858935Y-76934600D01*
X111854763Y-76917941D01*
X111852243Y-76900953D01*
X111851400Y-76883800D01*
X111851400Y-76533800D01*
X111852243Y-76516647D01*
X111854763Y-76499659D01*
X111858935Y-76483000D01*
X111864721Y-76466830D01*
X111872064Y-76451306D01*
X111880893Y-76436575D01*
X111891123Y-76422781D01*
X111902656Y-76410056D01*
X111915381Y-76398523D01*
X111929175Y-76388293D01*
X111943906Y-76379464D01*
X111959430Y-76372121D01*
X111975600Y-76366335D01*
X111992259Y-76362163D01*
X112009247Y-76359643D01*
X112026400Y-76358800D01*
X113576400Y-76358800D01*
X113593553Y-76359643D01*
X113593553Y-76359643D01*
G37*
D18*
X112801400Y-76708800D03*
D17*
G36*
X113593553Y-75859643D02*
G01*
X113610541Y-75862163D01*
X113627200Y-75866335D01*
X113643370Y-75872121D01*
X113658894Y-75879464D01*
X113673625Y-75888293D01*
X113687419Y-75898523D01*
X113700144Y-75910056D01*
X113711677Y-75922781D01*
X113721907Y-75936575D01*
X113730736Y-75951306D01*
X113738079Y-75966830D01*
X113743865Y-75983000D01*
X113748037Y-75999659D01*
X113750557Y-76016647D01*
X113751400Y-76033800D01*
X113751400Y-76383800D01*
X113750557Y-76400953D01*
X113748037Y-76417941D01*
X113743865Y-76434600D01*
X113738079Y-76450770D01*
X113730736Y-76466294D01*
X113721907Y-76481025D01*
X113711677Y-76494819D01*
X113700144Y-76507544D01*
X113687419Y-76519077D01*
X113673625Y-76529307D01*
X113658894Y-76538136D01*
X113643370Y-76545479D01*
X113627200Y-76551265D01*
X113610541Y-76555437D01*
X113593553Y-76557957D01*
X113576400Y-76558800D01*
X112026400Y-76558800D01*
X112009247Y-76557957D01*
X111992259Y-76555437D01*
X111975600Y-76551265D01*
X111959430Y-76545479D01*
X111943906Y-76538136D01*
X111929175Y-76529307D01*
X111915381Y-76519077D01*
X111902656Y-76507544D01*
X111891123Y-76494819D01*
X111880893Y-76481025D01*
X111872064Y-76466294D01*
X111864721Y-76450770D01*
X111858935Y-76434600D01*
X111854763Y-76417941D01*
X111852243Y-76400953D01*
X111851400Y-76383800D01*
X111851400Y-76033800D01*
X111852243Y-76016647D01*
X111854763Y-75999659D01*
X111858935Y-75983000D01*
X111864721Y-75966830D01*
X111872064Y-75951306D01*
X111880893Y-75936575D01*
X111891123Y-75922781D01*
X111902656Y-75910056D01*
X111915381Y-75898523D01*
X111929175Y-75888293D01*
X111943906Y-75879464D01*
X111959430Y-75872121D01*
X111975600Y-75866335D01*
X111992259Y-75862163D01*
X112009247Y-75859643D01*
X112026400Y-75858800D01*
X113576400Y-75858800D01*
X113593553Y-75859643D01*
X113593553Y-75859643D01*
G37*
D18*
X112801400Y-76208800D03*
D17*
G36*
X113593553Y-75359643D02*
G01*
X113610541Y-75362163D01*
X113627200Y-75366335D01*
X113643370Y-75372121D01*
X113658894Y-75379464D01*
X113673625Y-75388293D01*
X113687419Y-75398523D01*
X113700144Y-75410056D01*
X113711677Y-75422781D01*
X113721907Y-75436575D01*
X113730736Y-75451306D01*
X113738079Y-75466830D01*
X113743865Y-75483000D01*
X113748037Y-75499659D01*
X113750557Y-75516647D01*
X113751400Y-75533800D01*
X113751400Y-75883800D01*
X113750557Y-75900953D01*
X113748037Y-75917941D01*
X113743865Y-75934600D01*
X113738079Y-75950770D01*
X113730736Y-75966294D01*
X113721907Y-75981025D01*
X113711677Y-75994819D01*
X113700144Y-76007544D01*
X113687419Y-76019077D01*
X113673625Y-76029307D01*
X113658894Y-76038136D01*
X113643370Y-76045479D01*
X113627200Y-76051265D01*
X113610541Y-76055437D01*
X113593553Y-76057957D01*
X113576400Y-76058800D01*
X112026400Y-76058800D01*
X112009247Y-76057957D01*
X111992259Y-76055437D01*
X111975600Y-76051265D01*
X111959430Y-76045479D01*
X111943906Y-76038136D01*
X111929175Y-76029307D01*
X111915381Y-76019077D01*
X111902656Y-76007544D01*
X111891123Y-75994819D01*
X111880893Y-75981025D01*
X111872064Y-75966294D01*
X111864721Y-75950770D01*
X111858935Y-75934600D01*
X111854763Y-75917941D01*
X111852243Y-75900953D01*
X111851400Y-75883800D01*
X111851400Y-75533800D01*
X111852243Y-75516647D01*
X111854763Y-75499659D01*
X111858935Y-75483000D01*
X111864721Y-75466830D01*
X111872064Y-75451306D01*
X111880893Y-75436575D01*
X111891123Y-75422781D01*
X111902656Y-75410056D01*
X111915381Y-75398523D01*
X111929175Y-75388293D01*
X111943906Y-75379464D01*
X111959430Y-75372121D01*
X111975600Y-75366335D01*
X111992259Y-75362163D01*
X112009247Y-75359643D01*
X112026400Y-75358800D01*
X113576400Y-75358800D01*
X113593553Y-75359643D01*
X113593553Y-75359643D01*
G37*
D18*
X112801400Y-75708800D03*
D17*
G36*
X113593553Y-74859643D02*
G01*
X113610541Y-74862163D01*
X113627200Y-74866335D01*
X113643370Y-74872121D01*
X113658894Y-74879464D01*
X113673625Y-74888293D01*
X113687419Y-74898523D01*
X113700144Y-74910056D01*
X113711677Y-74922781D01*
X113721907Y-74936575D01*
X113730736Y-74951306D01*
X113738079Y-74966830D01*
X113743865Y-74983000D01*
X113748037Y-74999659D01*
X113750557Y-75016647D01*
X113751400Y-75033800D01*
X113751400Y-75383800D01*
X113750557Y-75400953D01*
X113748037Y-75417941D01*
X113743865Y-75434600D01*
X113738079Y-75450770D01*
X113730736Y-75466294D01*
X113721907Y-75481025D01*
X113711677Y-75494819D01*
X113700144Y-75507544D01*
X113687419Y-75519077D01*
X113673625Y-75529307D01*
X113658894Y-75538136D01*
X113643370Y-75545479D01*
X113627200Y-75551265D01*
X113610541Y-75555437D01*
X113593553Y-75557957D01*
X113576400Y-75558800D01*
X112026400Y-75558800D01*
X112009247Y-75557957D01*
X111992259Y-75555437D01*
X111975600Y-75551265D01*
X111959430Y-75545479D01*
X111943906Y-75538136D01*
X111929175Y-75529307D01*
X111915381Y-75519077D01*
X111902656Y-75507544D01*
X111891123Y-75494819D01*
X111880893Y-75481025D01*
X111872064Y-75466294D01*
X111864721Y-75450770D01*
X111858935Y-75434600D01*
X111854763Y-75417941D01*
X111852243Y-75400953D01*
X111851400Y-75383800D01*
X111851400Y-75033800D01*
X111852243Y-75016647D01*
X111854763Y-74999659D01*
X111858935Y-74983000D01*
X111864721Y-74966830D01*
X111872064Y-74951306D01*
X111880893Y-74936575D01*
X111891123Y-74922781D01*
X111902656Y-74910056D01*
X111915381Y-74898523D01*
X111929175Y-74888293D01*
X111943906Y-74879464D01*
X111959430Y-74872121D01*
X111975600Y-74866335D01*
X111992259Y-74862163D01*
X112009247Y-74859643D01*
X112026400Y-74858800D01*
X113576400Y-74858800D01*
X113593553Y-74859643D01*
X113593553Y-74859643D01*
G37*
D18*
X112801400Y-75208800D03*
D17*
G36*
X113593553Y-74359643D02*
G01*
X113610541Y-74362163D01*
X113627200Y-74366335D01*
X113643370Y-74372121D01*
X113658894Y-74379464D01*
X113673625Y-74388293D01*
X113687419Y-74398523D01*
X113700144Y-74410056D01*
X113711677Y-74422781D01*
X113721907Y-74436575D01*
X113730736Y-74451306D01*
X113738079Y-74466830D01*
X113743865Y-74483000D01*
X113748037Y-74499659D01*
X113750557Y-74516647D01*
X113751400Y-74533800D01*
X113751400Y-74883800D01*
X113750557Y-74900953D01*
X113748037Y-74917941D01*
X113743865Y-74934600D01*
X113738079Y-74950770D01*
X113730736Y-74966294D01*
X113721907Y-74981025D01*
X113711677Y-74994819D01*
X113700144Y-75007544D01*
X113687419Y-75019077D01*
X113673625Y-75029307D01*
X113658894Y-75038136D01*
X113643370Y-75045479D01*
X113627200Y-75051265D01*
X113610541Y-75055437D01*
X113593553Y-75057957D01*
X113576400Y-75058800D01*
X112026400Y-75058800D01*
X112009247Y-75057957D01*
X111992259Y-75055437D01*
X111975600Y-75051265D01*
X111959430Y-75045479D01*
X111943906Y-75038136D01*
X111929175Y-75029307D01*
X111915381Y-75019077D01*
X111902656Y-75007544D01*
X111891123Y-74994819D01*
X111880893Y-74981025D01*
X111872064Y-74966294D01*
X111864721Y-74950770D01*
X111858935Y-74934600D01*
X111854763Y-74917941D01*
X111852243Y-74900953D01*
X111851400Y-74883800D01*
X111851400Y-74533800D01*
X111852243Y-74516647D01*
X111854763Y-74499659D01*
X111858935Y-74483000D01*
X111864721Y-74466830D01*
X111872064Y-74451306D01*
X111880893Y-74436575D01*
X111891123Y-74422781D01*
X111902656Y-74410056D01*
X111915381Y-74398523D01*
X111929175Y-74388293D01*
X111943906Y-74379464D01*
X111959430Y-74372121D01*
X111975600Y-74366335D01*
X111992259Y-74362163D01*
X112009247Y-74359643D01*
X112026400Y-74358800D01*
X113576400Y-74358800D01*
X113593553Y-74359643D01*
X113593553Y-74359643D01*
G37*
D18*
X112801400Y-74708800D03*
D17*
G36*
X113593553Y-73859643D02*
G01*
X113610541Y-73862163D01*
X113627200Y-73866335D01*
X113643370Y-73872121D01*
X113658894Y-73879464D01*
X113673625Y-73888293D01*
X113687419Y-73898523D01*
X113700144Y-73910056D01*
X113711677Y-73922781D01*
X113721907Y-73936575D01*
X113730736Y-73951306D01*
X113738079Y-73966830D01*
X113743865Y-73983000D01*
X113748037Y-73999659D01*
X113750557Y-74016647D01*
X113751400Y-74033800D01*
X113751400Y-74383800D01*
X113750557Y-74400953D01*
X113748037Y-74417941D01*
X113743865Y-74434600D01*
X113738079Y-74450770D01*
X113730736Y-74466294D01*
X113721907Y-74481025D01*
X113711677Y-74494819D01*
X113700144Y-74507544D01*
X113687419Y-74519077D01*
X113673625Y-74529307D01*
X113658894Y-74538136D01*
X113643370Y-74545479D01*
X113627200Y-74551265D01*
X113610541Y-74555437D01*
X113593553Y-74557957D01*
X113576400Y-74558800D01*
X112026400Y-74558800D01*
X112009247Y-74557957D01*
X111992259Y-74555437D01*
X111975600Y-74551265D01*
X111959430Y-74545479D01*
X111943906Y-74538136D01*
X111929175Y-74529307D01*
X111915381Y-74519077D01*
X111902656Y-74507544D01*
X111891123Y-74494819D01*
X111880893Y-74481025D01*
X111872064Y-74466294D01*
X111864721Y-74450770D01*
X111858935Y-74434600D01*
X111854763Y-74417941D01*
X111852243Y-74400953D01*
X111851400Y-74383800D01*
X111851400Y-74033800D01*
X111852243Y-74016647D01*
X111854763Y-73999659D01*
X111858935Y-73983000D01*
X111864721Y-73966830D01*
X111872064Y-73951306D01*
X111880893Y-73936575D01*
X111891123Y-73922781D01*
X111902656Y-73910056D01*
X111915381Y-73898523D01*
X111929175Y-73888293D01*
X111943906Y-73879464D01*
X111959430Y-73872121D01*
X111975600Y-73866335D01*
X111992259Y-73862163D01*
X112009247Y-73859643D01*
X112026400Y-73858800D01*
X113576400Y-73858800D01*
X113593553Y-73859643D01*
X113593553Y-73859643D01*
G37*
D18*
X112801400Y-74208800D03*
D17*
G36*
X111568553Y-71834643D02*
G01*
X111585541Y-71837163D01*
X111602200Y-71841335D01*
X111618370Y-71847121D01*
X111633894Y-71854464D01*
X111648625Y-71863293D01*
X111662419Y-71873523D01*
X111675144Y-71885056D01*
X111686677Y-71897781D01*
X111696907Y-71911575D01*
X111705736Y-71926306D01*
X111713079Y-71941830D01*
X111718865Y-71958000D01*
X111723037Y-71974659D01*
X111725557Y-71991647D01*
X111726400Y-72008800D01*
X111726400Y-73558800D01*
X111725557Y-73575953D01*
X111723037Y-73592941D01*
X111718865Y-73609600D01*
X111713079Y-73625770D01*
X111705736Y-73641294D01*
X111696907Y-73656025D01*
X111686677Y-73669819D01*
X111675144Y-73682544D01*
X111662419Y-73694077D01*
X111648625Y-73704307D01*
X111633894Y-73713136D01*
X111618370Y-73720479D01*
X111602200Y-73726265D01*
X111585541Y-73730437D01*
X111568553Y-73732957D01*
X111551400Y-73733800D01*
X111201400Y-73733800D01*
X111184247Y-73732957D01*
X111167259Y-73730437D01*
X111150600Y-73726265D01*
X111134430Y-73720479D01*
X111118906Y-73713136D01*
X111104175Y-73704307D01*
X111090381Y-73694077D01*
X111077656Y-73682544D01*
X111066123Y-73669819D01*
X111055893Y-73656025D01*
X111047064Y-73641294D01*
X111039721Y-73625770D01*
X111033935Y-73609600D01*
X111029763Y-73592941D01*
X111027243Y-73575953D01*
X111026400Y-73558800D01*
X111026400Y-72008800D01*
X111027243Y-71991647D01*
X111029763Y-71974659D01*
X111033935Y-71958000D01*
X111039721Y-71941830D01*
X111047064Y-71926306D01*
X111055893Y-71911575D01*
X111066123Y-71897781D01*
X111077656Y-71885056D01*
X111090381Y-71873523D01*
X111104175Y-71863293D01*
X111118906Y-71854464D01*
X111134430Y-71847121D01*
X111150600Y-71841335D01*
X111167259Y-71837163D01*
X111184247Y-71834643D01*
X111201400Y-71833800D01*
X111551400Y-71833800D01*
X111568553Y-71834643D01*
X111568553Y-71834643D01*
G37*
D18*
X111376400Y-72783800D03*
D17*
G36*
X111068553Y-71834643D02*
G01*
X111085541Y-71837163D01*
X111102200Y-71841335D01*
X111118370Y-71847121D01*
X111133894Y-71854464D01*
X111148625Y-71863293D01*
X111162419Y-71873523D01*
X111175144Y-71885056D01*
X111186677Y-71897781D01*
X111196907Y-71911575D01*
X111205736Y-71926306D01*
X111213079Y-71941830D01*
X111218865Y-71958000D01*
X111223037Y-71974659D01*
X111225557Y-71991647D01*
X111226400Y-72008800D01*
X111226400Y-73558800D01*
X111225557Y-73575953D01*
X111223037Y-73592941D01*
X111218865Y-73609600D01*
X111213079Y-73625770D01*
X111205736Y-73641294D01*
X111196907Y-73656025D01*
X111186677Y-73669819D01*
X111175144Y-73682544D01*
X111162419Y-73694077D01*
X111148625Y-73704307D01*
X111133894Y-73713136D01*
X111118370Y-73720479D01*
X111102200Y-73726265D01*
X111085541Y-73730437D01*
X111068553Y-73732957D01*
X111051400Y-73733800D01*
X110701400Y-73733800D01*
X110684247Y-73732957D01*
X110667259Y-73730437D01*
X110650600Y-73726265D01*
X110634430Y-73720479D01*
X110618906Y-73713136D01*
X110604175Y-73704307D01*
X110590381Y-73694077D01*
X110577656Y-73682544D01*
X110566123Y-73669819D01*
X110555893Y-73656025D01*
X110547064Y-73641294D01*
X110539721Y-73625770D01*
X110533935Y-73609600D01*
X110529763Y-73592941D01*
X110527243Y-73575953D01*
X110526400Y-73558800D01*
X110526400Y-72008800D01*
X110527243Y-71991647D01*
X110529763Y-71974659D01*
X110533935Y-71958000D01*
X110539721Y-71941830D01*
X110547064Y-71926306D01*
X110555893Y-71911575D01*
X110566123Y-71897781D01*
X110577656Y-71885056D01*
X110590381Y-71873523D01*
X110604175Y-71863293D01*
X110618906Y-71854464D01*
X110634430Y-71847121D01*
X110650600Y-71841335D01*
X110667259Y-71837163D01*
X110684247Y-71834643D01*
X110701400Y-71833800D01*
X111051400Y-71833800D01*
X111068553Y-71834643D01*
X111068553Y-71834643D01*
G37*
D18*
X110876400Y-72783800D03*
D17*
G36*
X110568553Y-71834643D02*
G01*
X110585541Y-71837163D01*
X110602200Y-71841335D01*
X110618370Y-71847121D01*
X110633894Y-71854464D01*
X110648625Y-71863293D01*
X110662419Y-71873523D01*
X110675144Y-71885056D01*
X110686677Y-71897781D01*
X110696907Y-71911575D01*
X110705736Y-71926306D01*
X110713079Y-71941830D01*
X110718865Y-71958000D01*
X110723037Y-71974659D01*
X110725557Y-71991647D01*
X110726400Y-72008800D01*
X110726400Y-73558800D01*
X110725557Y-73575953D01*
X110723037Y-73592941D01*
X110718865Y-73609600D01*
X110713079Y-73625770D01*
X110705736Y-73641294D01*
X110696907Y-73656025D01*
X110686677Y-73669819D01*
X110675144Y-73682544D01*
X110662419Y-73694077D01*
X110648625Y-73704307D01*
X110633894Y-73713136D01*
X110618370Y-73720479D01*
X110602200Y-73726265D01*
X110585541Y-73730437D01*
X110568553Y-73732957D01*
X110551400Y-73733800D01*
X110201400Y-73733800D01*
X110184247Y-73732957D01*
X110167259Y-73730437D01*
X110150600Y-73726265D01*
X110134430Y-73720479D01*
X110118906Y-73713136D01*
X110104175Y-73704307D01*
X110090381Y-73694077D01*
X110077656Y-73682544D01*
X110066123Y-73669819D01*
X110055893Y-73656025D01*
X110047064Y-73641294D01*
X110039721Y-73625770D01*
X110033935Y-73609600D01*
X110029763Y-73592941D01*
X110027243Y-73575953D01*
X110026400Y-73558800D01*
X110026400Y-72008800D01*
X110027243Y-71991647D01*
X110029763Y-71974659D01*
X110033935Y-71958000D01*
X110039721Y-71941830D01*
X110047064Y-71926306D01*
X110055893Y-71911575D01*
X110066123Y-71897781D01*
X110077656Y-71885056D01*
X110090381Y-71873523D01*
X110104175Y-71863293D01*
X110118906Y-71854464D01*
X110134430Y-71847121D01*
X110150600Y-71841335D01*
X110167259Y-71837163D01*
X110184247Y-71834643D01*
X110201400Y-71833800D01*
X110551400Y-71833800D01*
X110568553Y-71834643D01*
X110568553Y-71834643D01*
G37*
D18*
X110376400Y-72783800D03*
D17*
G36*
X110068553Y-71834643D02*
G01*
X110085541Y-71837163D01*
X110102200Y-71841335D01*
X110118370Y-71847121D01*
X110133894Y-71854464D01*
X110148625Y-71863293D01*
X110162419Y-71873523D01*
X110175144Y-71885056D01*
X110186677Y-71897781D01*
X110196907Y-71911575D01*
X110205736Y-71926306D01*
X110213079Y-71941830D01*
X110218865Y-71958000D01*
X110223037Y-71974659D01*
X110225557Y-71991647D01*
X110226400Y-72008800D01*
X110226400Y-73558800D01*
X110225557Y-73575953D01*
X110223037Y-73592941D01*
X110218865Y-73609600D01*
X110213079Y-73625770D01*
X110205736Y-73641294D01*
X110196907Y-73656025D01*
X110186677Y-73669819D01*
X110175144Y-73682544D01*
X110162419Y-73694077D01*
X110148625Y-73704307D01*
X110133894Y-73713136D01*
X110118370Y-73720479D01*
X110102200Y-73726265D01*
X110085541Y-73730437D01*
X110068553Y-73732957D01*
X110051400Y-73733800D01*
X109701400Y-73733800D01*
X109684247Y-73732957D01*
X109667259Y-73730437D01*
X109650600Y-73726265D01*
X109634430Y-73720479D01*
X109618906Y-73713136D01*
X109604175Y-73704307D01*
X109590381Y-73694077D01*
X109577656Y-73682544D01*
X109566123Y-73669819D01*
X109555893Y-73656025D01*
X109547064Y-73641294D01*
X109539721Y-73625770D01*
X109533935Y-73609600D01*
X109529763Y-73592941D01*
X109527243Y-73575953D01*
X109526400Y-73558800D01*
X109526400Y-72008800D01*
X109527243Y-71991647D01*
X109529763Y-71974659D01*
X109533935Y-71958000D01*
X109539721Y-71941830D01*
X109547064Y-71926306D01*
X109555893Y-71911575D01*
X109566123Y-71897781D01*
X109577656Y-71885056D01*
X109590381Y-71873523D01*
X109604175Y-71863293D01*
X109618906Y-71854464D01*
X109634430Y-71847121D01*
X109650600Y-71841335D01*
X109667259Y-71837163D01*
X109684247Y-71834643D01*
X109701400Y-71833800D01*
X110051400Y-71833800D01*
X110068553Y-71834643D01*
X110068553Y-71834643D01*
G37*
D18*
X109876400Y-72783800D03*
D17*
G36*
X109568553Y-71834643D02*
G01*
X109585541Y-71837163D01*
X109602200Y-71841335D01*
X109618370Y-71847121D01*
X109633894Y-71854464D01*
X109648625Y-71863293D01*
X109662419Y-71873523D01*
X109675144Y-71885056D01*
X109686677Y-71897781D01*
X109696907Y-71911575D01*
X109705736Y-71926306D01*
X109713079Y-71941830D01*
X109718865Y-71958000D01*
X109723037Y-71974659D01*
X109725557Y-71991647D01*
X109726400Y-72008800D01*
X109726400Y-73558800D01*
X109725557Y-73575953D01*
X109723037Y-73592941D01*
X109718865Y-73609600D01*
X109713079Y-73625770D01*
X109705736Y-73641294D01*
X109696907Y-73656025D01*
X109686677Y-73669819D01*
X109675144Y-73682544D01*
X109662419Y-73694077D01*
X109648625Y-73704307D01*
X109633894Y-73713136D01*
X109618370Y-73720479D01*
X109602200Y-73726265D01*
X109585541Y-73730437D01*
X109568553Y-73732957D01*
X109551400Y-73733800D01*
X109201400Y-73733800D01*
X109184247Y-73732957D01*
X109167259Y-73730437D01*
X109150600Y-73726265D01*
X109134430Y-73720479D01*
X109118906Y-73713136D01*
X109104175Y-73704307D01*
X109090381Y-73694077D01*
X109077656Y-73682544D01*
X109066123Y-73669819D01*
X109055893Y-73656025D01*
X109047064Y-73641294D01*
X109039721Y-73625770D01*
X109033935Y-73609600D01*
X109029763Y-73592941D01*
X109027243Y-73575953D01*
X109026400Y-73558800D01*
X109026400Y-72008800D01*
X109027243Y-71991647D01*
X109029763Y-71974659D01*
X109033935Y-71958000D01*
X109039721Y-71941830D01*
X109047064Y-71926306D01*
X109055893Y-71911575D01*
X109066123Y-71897781D01*
X109077656Y-71885056D01*
X109090381Y-71873523D01*
X109104175Y-71863293D01*
X109118906Y-71854464D01*
X109134430Y-71847121D01*
X109150600Y-71841335D01*
X109167259Y-71837163D01*
X109184247Y-71834643D01*
X109201400Y-71833800D01*
X109551400Y-71833800D01*
X109568553Y-71834643D01*
X109568553Y-71834643D01*
G37*
D18*
X109376400Y-72783800D03*
D17*
G36*
X109068553Y-71834643D02*
G01*
X109085541Y-71837163D01*
X109102200Y-71841335D01*
X109118370Y-71847121D01*
X109133894Y-71854464D01*
X109148625Y-71863293D01*
X109162419Y-71873523D01*
X109175144Y-71885056D01*
X109186677Y-71897781D01*
X109196907Y-71911575D01*
X109205736Y-71926306D01*
X109213079Y-71941830D01*
X109218865Y-71958000D01*
X109223037Y-71974659D01*
X109225557Y-71991647D01*
X109226400Y-72008800D01*
X109226400Y-73558800D01*
X109225557Y-73575953D01*
X109223037Y-73592941D01*
X109218865Y-73609600D01*
X109213079Y-73625770D01*
X109205736Y-73641294D01*
X109196907Y-73656025D01*
X109186677Y-73669819D01*
X109175144Y-73682544D01*
X109162419Y-73694077D01*
X109148625Y-73704307D01*
X109133894Y-73713136D01*
X109118370Y-73720479D01*
X109102200Y-73726265D01*
X109085541Y-73730437D01*
X109068553Y-73732957D01*
X109051400Y-73733800D01*
X108701400Y-73733800D01*
X108684247Y-73732957D01*
X108667259Y-73730437D01*
X108650600Y-73726265D01*
X108634430Y-73720479D01*
X108618906Y-73713136D01*
X108604175Y-73704307D01*
X108590381Y-73694077D01*
X108577656Y-73682544D01*
X108566123Y-73669819D01*
X108555893Y-73656025D01*
X108547064Y-73641294D01*
X108539721Y-73625770D01*
X108533935Y-73609600D01*
X108529763Y-73592941D01*
X108527243Y-73575953D01*
X108526400Y-73558800D01*
X108526400Y-72008800D01*
X108527243Y-71991647D01*
X108529763Y-71974659D01*
X108533935Y-71958000D01*
X108539721Y-71941830D01*
X108547064Y-71926306D01*
X108555893Y-71911575D01*
X108566123Y-71897781D01*
X108577656Y-71885056D01*
X108590381Y-71873523D01*
X108604175Y-71863293D01*
X108618906Y-71854464D01*
X108634430Y-71847121D01*
X108650600Y-71841335D01*
X108667259Y-71837163D01*
X108684247Y-71834643D01*
X108701400Y-71833800D01*
X109051400Y-71833800D01*
X109068553Y-71834643D01*
X109068553Y-71834643D01*
G37*
D18*
X108876400Y-72783800D03*
D17*
G36*
X108568553Y-71834643D02*
G01*
X108585541Y-71837163D01*
X108602200Y-71841335D01*
X108618370Y-71847121D01*
X108633894Y-71854464D01*
X108648625Y-71863293D01*
X108662419Y-71873523D01*
X108675144Y-71885056D01*
X108686677Y-71897781D01*
X108696907Y-71911575D01*
X108705736Y-71926306D01*
X108713079Y-71941830D01*
X108718865Y-71958000D01*
X108723037Y-71974659D01*
X108725557Y-71991647D01*
X108726400Y-72008800D01*
X108726400Y-73558800D01*
X108725557Y-73575953D01*
X108723037Y-73592941D01*
X108718865Y-73609600D01*
X108713079Y-73625770D01*
X108705736Y-73641294D01*
X108696907Y-73656025D01*
X108686677Y-73669819D01*
X108675144Y-73682544D01*
X108662419Y-73694077D01*
X108648625Y-73704307D01*
X108633894Y-73713136D01*
X108618370Y-73720479D01*
X108602200Y-73726265D01*
X108585541Y-73730437D01*
X108568553Y-73732957D01*
X108551400Y-73733800D01*
X108201400Y-73733800D01*
X108184247Y-73732957D01*
X108167259Y-73730437D01*
X108150600Y-73726265D01*
X108134430Y-73720479D01*
X108118906Y-73713136D01*
X108104175Y-73704307D01*
X108090381Y-73694077D01*
X108077656Y-73682544D01*
X108066123Y-73669819D01*
X108055893Y-73656025D01*
X108047064Y-73641294D01*
X108039721Y-73625770D01*
X108033935Y-73609600D01*
X108029763Y-73592941D01*
X108027243Y-73575953D01*
X108026400Y-73558800D01*
X108026400Y-72008800D01*
X108027243Y-71991647D01*
X108029763Y-71974659D01*
X108033935Y-71958000D01*
X108039721Y-71941830D01*
X108047064Y-71926306D01*
X108055893Y-71911575D01*
X108066123Y-71897781D01*
X108077656Y-71885056D01*
X108090381Y-71873523D01*
X108104175Y-71863293D01*
X108118906Y-71854464D01*
X108134430Y-71847121D01*
X108150600Y-71841335D01*
X108167259Y-71837163D01*
X108184247Y-71834643D01*
X108201400Y-71833800D01*
X108551400Y-71833800D01*
X108568553Y-71834643D01*
X108568553Y-71834643D01*
G37*
D18*
X108376400Y-72783800D03*
D17*
G36*
X108068553Y-71834643D02*
G01*
X108085541Y-71837163D01*
X108102200Y-71841335D01*
X108118370Y-71847121D01*
X108133894Y-71854464D01*
X108148625Y-71863293D01*
X108162419Y-71873523D01*
X108175144Y-71885056D01*
X108186677Y-71897781D01*
X108196907Y-71911575D01*
X108205736Y-71926306D01*
X108213079Y-71941830D01*
X108218865Y-71958000D01*
X108223037Y-71974659D01*
X108225557Y-71991647D01*
X108226400Y-72008800D01*
X108226400Y-73558800D01*
X108225557Y-73575953D01*
X108223037Y-73592941D01*
X108218865Y-73609600D01*
X108213079Y-73625770D01*
X108205736Y-73641294D01*
X108196907Y-73656025D01*
X108186677Y-73669819D01*
X108175144Y-73682544D01*
X108162419Y-73694077D01*
X108148625Y-73704307D01*
X108133894Y-73713136D01*
X108118370Y-73720479D01*
X108102200Y-73726265D01*
X108085541Y-73730437D01*
X108068553Y-73732957D01*
X108051400Y-73733800D01*
X107701400Y-73733800D01*
X107684247Y-73732957D01*
X107667259Y-73730437D01*
X107650600Y-73726265D01*
X107634430Y-73720479D01*
X107618906Y-73713136D01*
X107604175Y-73704307D01*
X107590381Y-73694077D01*
X107577656Y-73682544D01*
X107566123Y-73669819D01*
X107555893Y-73656025D01*
X107547064Y-73641294D01*
X107539721Y-73625770D01*
X107533935Y-73609600D01*
X107529763Y-73592941D01*
X107527243Y-73575953D01*
X107526400Y-73558800D01*
X107526400Y-72008800D01*
X107527243Y-71991647D01*
X107529763Y-71974659D01*
X107533935Y-71958000D01*
X107539721Y-71941830D01*
X107547064Y-71926306D01*
X107555893Y-71911575D01*
X107566123Y-71897781D01*
X107577656Y-71885056D01*
X107590381Y-71873523D01*
X107604175Y-71863293D01*
X107618906Y-71854464D01*
X107634430Y-71847121D01*
X107650600Y-71841335D01*
X107667259Y-71837163D01*
X107684247Y-71834643D01*
X107701400Y-71833800D01*
X108051400Y-71833800D01*
X108068553Y-71834643D01*
X108068553Y-71834643D01*
G37*
D18*
X107876400Y-72783800D03*
D17*
G36*
X107243553Y-73859643D02*
G01*
X107260541Y-73862163D01*
X107277200Y-73866335D01*
X107293370Y-73872121D01*
X107308894Y-73879464D01*
X107323625Y-73888293D01*
X107337419Y-73898523D01*
X107350144Y-73910056D01*
X107361677Y-73922781D01*
X107371907Y-73936575D01*
X107380736Y-73951306D01*
X107388079Y-73966830D01*
X107393865Y-73983000D01*
X107398037Y-73999659D01*
X107400557Y-74016647D01*
X107401400Y-74033800D01*
X107401400Y-74383800D01*
X107400557Y-74400953D01*
X107398037Y-74417941D01*
X107393865Y-74434600D01*
X107388079Y-74450770D01*
X107380736Y-74466294D01*
X107371907Y-74481025D01*
X107361677Y-74494819D01*
X107350144Y-74507544D01*
X107337419Y-74519077D01*
X107323625Y-74529307D01*
X107308894Y-74538136D01*
X107293370Y-74545479D01*
X107277200Y-74551265D01*
X107260541Y-74555437D01*
X107243553Y-74557957D01*
X107226400Y-74558800D01*
X105676400Y-74558800D01*
X105659247Y-74557957D01*
X105642259Y-74555437D01*
X105625600Y-74551265D01*
X105609430Y-74545479D01*
X105593906Y-74538136D01*
X105579175Y-74529307D01*
X105565381Y-74519077D01*
X105552656Y-74507544D01*
X105541123Y-74494819D01*
X105530893Y-74481025D01*
X105522064Y-74466294D01*
X105514721Y-74450770D01*
X105508935Y-74434600D01*
X105504763Y-74417941D01*
X105502243Y-74400953D01*
X105501400Y-74383800D01*
X105501400Y-74033800D01*
X105502243Y-74016647D01*
X105504763Y-73999659D01*
X105508935Y-73983000D01*
X105514721Y-73966830D01*
X105522064Y-73951306D01*
X105530893Y-73936575D01*
X105541123Y-73922781D01*
X105552656Y-73910056D01*
X105565381Y-73898523D01*
X105579175Y-73888293D01*
X105593906Y-73879464D01*
X105609430Y-73872121D01*
X105625600Y-73866335D01*
X105642259Y-73862163D01*
X105659247Y-73859643D01*
X105676400Y-73858800D01*
X107226400Y-73858800D01*
X107243553Y-73859643D01*
X107243553Y-73859643D01*
G37*
D18*
X106451400Y-74208800D03*
D17*
G36*
X107243553Y-74359643D02*
G01*
X107260541Y-74362163D01*
X107277200Y-74366335D01*
X107293370Y-74372121D01*
X107308894Y-74379464D01*
X107323625Y-74388293D01*
X107337419Y-74398523D01*
X107350144Y-74410056D01*
X107361677Y-74422781D01*
X107371907Y-74436575D01*
X107380736Y-74451306D01*
X107388079Y-74466830D01*
X107393865Y-74483000D01*
X107398037Y-74499659D01*
X107400557Y-74516647D01*
X107401400Y-74533800D01*
X107401400Y-74883800D01*
X107400557Y-74900953D01*
X107398037Y-74917941D01*
X107393865Y-74934600D01*
X107388079Y-74950770D01*
X107380736Y-74966294D01*
X107371907Y-74981025D01*
X107361677Y-74994819D01*
X107350144Y-75007544D01*
X107337419Y-75019077D01*
X107323625Y-75029307D01*
X107308894Y-75038136D01*
X107293370Y-75045479D01*
X107277200Y-75051265D01*
X107260541Y-75055437D01*
X107243553Y-75057957D01*
X107226400Y-75058800D01*
X105676400Y-75058800D01*
X105659247Y-75057957D01*
X105642259Y-75055437D01*
X105625600Y-75051265D01*
X105609430Y-75045479D01*
X105593906Y-75038136D01*
X105579175Y-75029307D01*
X105565381Y-75019077D01*
X105552656Y-75007544D01*
X105541123Y-74994819D01*
X105530893Y-74981025D01*
X105522064Y-74966294D01*
X105514721Y-74950770D01*
X105508935Y-74934600D01*
X105504763Y-74917941D01*
X105502243Y-74900953D01*
X105501400Y-74883800D01*
X105501400Y-74533800D01*
X105502243Y-74516647D01*
X105504763Y-74499659D01*
X105508935Y-74483000D01*
X105514721Y-74466830D01*
X105522064Y-74451306D01*
X105530893Y-74436575D01*
X105541123Y-74422781D01*
X105552656Y-74410056D01*
X105565381Y-74398523D01*
X105579175Y-74388293D01*
X105593906Y-74379464D01*
X105609430Y-74372121D01*
X105625600Y-74366335D01*
X105642259Y-74362163D01*
X105659247Y-74359643D01*
X105676400Y-74358800D01*
X107226400Y-74358800D01*
X107243553Y-74359643D01*
X107243553Y-74359643D01*
G37*
D18*
X106451400Y-74708800D03*
D17*
G36*
X107243553Y-74859643D02*
G01*
X107260541Y-74862163D01*
X107277200Y-74866335D01*
X107293370Y-74872121D01*
X107308894Y-74879464D01*
X107323625Y-74888293D01*
X107337419Y-74898523D01*
X107350144Y-74910056D01*
X107361677Y-74922781D01*
X107371907Y-74936575D01*
X107380736Y-74951306D01*
X107388079Y-74966830D01*
X107393865Y-74983000D01*
X107398037Y-74999659D01*
X107400557Y-75016647D01*
X107401400Y-75033800D01*
X107401400Y-75383800D01*
X107400557Y-75400953D01*
X107398037Y-75417941D01*
X107393865Y-75434600D01*
X107388079Y-75450770D01*
X107380736Y-75466294D01*
X107371907Y-75481025D01*
X107361677Y-75494819D01*
X107350144Y-75507544D01*
X107337419Y-75519077D01*
X107323625Y-75529307D01*
X107308894Y-75538136D01*
X107293370Y-75545479D01*
X107277200Y-75551265D01*
X107260541Y-75555437D01*
X107243553Y-75557957D01*
X107226400Y-75558800D01*
X105676400Y-75558800D01*
X105659247Y-75557957D01*
X105642259Y-75555437D01*
X105625600Y-75551265D01*
X105609430Y-75545479D01*
X105593906Y-75538136D01*
X105579175Y-75529307D01*
X105565381Y-75519077D01*
X105552656Y-75507544D01*
X105541123Y-75494819D01*
X105530893Y-75481025D01*
X105522064Y-75466294D01*
X105514721Y-75450770D01*
X105508935Y-75434600D01*
X105504763Y-75417941D01*
X105502243Y-75400953D01*
X105501400Y-75383800D01*
X105501400Y-75033800D01*
X105502243Y-75016647D01*
X105504763Y-74999659D01*
X105508935Y-74983000D01*
X105514721Y-74966830D01*
X105522064Y-74951306D01*
X105530893Y-74936575D01*
X105541123Y-74922781D01*
X105552656Y-74910056D01*
X105565381Y-74898523D01*
X105579175Y-74888293D01*
X105593906Y-74879464D01*
X105609430Y-74872121D01*
X105625600Y-74866335D01*
X105642259Y-74862163D01*
X105659247Y-74859643D01*
X105676400Y-74858800D01*
X107226400Y-74858800D01*
X107243553Y-74859643D01*
X107243553Y-74859643D01*
G37*
D18*
X106451400Y-75208800D03*
D17*
G36*
X107243553Y-75359643D02*
G01*
X107260541Y-75362163D01*
X107277200Y-75366335D01*
X107293370Y-75372121D01*
X107308894Y-75379464D01*
X107323625Y-75388293D01*
X107337419Y-75398523D01*
X107350144Y-75410056D01*
X107361677Y-75422781D01*
X107371907Y-75436575D01*
X107380736Y-75451306D01*
X107388079Y-75466830D01*
X107393865Y-75483000D01*
X107398037Y-75499659D01*
X107400557Y-75516647D01*
X107401400Y-75533800D01*
X107401400Y-75883800D01*
X107400557Y-75900953D01*
X107398037Y-75917941D01*
X107393865Y-75934600D01*
X107388079Y-75950770D01*
X107380736Y-75966294D01*
X107371907Y-75981025D01*
X107361677Y-75994819D01*
X107350144Y-76007544D01*
X107337419Y-76019077D01*
X107323625Y-76029307D01*
X107308894Y-76038136D01*
X107293370Y-76045479D01*
X107277200Y-76051265D01*
X107260541Y-76055437D01*
X107243553Y-76057957D01*
X107226400Y-76058800D01*
X105676400Y-76058800D01*
X105659247Y-76057957D01*
X105642259Y-76055437D01*
X105625600Y-76051265D01*
X105609430Y-76045479D01*
X105593906Y-76038136D01*
X105579175Y-76029307D01*
X105565381Y-76019077D01*
X105552656Y-76007544D01*
X105541123Y-75994819D01*
X105530893Y-75981025D01*
X105522064Y-75966294D01*
X105514721Y-75950770D01*
X105508935Y-75934600D01*
X105504763Y-75917941D01*
X105502243Y-75900953D01*
X105501400Y-75883800D01*
X105501400Y-75533800D01*
X105502243Y-75516647D01*
X105504763Y-75499659D01*
X105508935Y-75483000D01*
X105514721Y-75466830D01*
X105522064Y-75451306D01*
X105530893Y-75436575D01*
X105541123Y-75422781D01*
X105552656Y-75410056D01*
X105565381Y-75398523D01*
X105579175Y-75388293D01*
X105593906Y-75379464D01*
X105609430Y-75372121D01*
X105625600Y-75366335D01*
X105642259Y-75362163D01*
X105659247Y-75359643D01*
X105676400Y-75358800D01*
X107226400Y-75358800D01*
X107243553Y-75359643D01*
X107243553Y-75359643D01*
G37*
D18*
X106451400Y-75708800D03*
D17*
G36*
X107243553Y-75859643D02*
G01*
X107260541Y-75862163D01*
X107277200Y-75866335D01*
X107293370Y-75872121D01*
X107308894Y-75879464D01*
X107323625Y-75888293D01*
X107337419Y-75898523D01*
X107350144Y-75910056D01*
X107361677Y-75922781D01*
X107371907Y-75936575D01*
X107380736Y-75951306D01*
X107388079Y-75966830D01*
X107393865Y-75983000D01*
X107398037Y-75999659D01*
X107400557Y-76016647D01*
X107401400Y-76033800D01*
X107401400Y-76383800D01*
X107400557Y-76400953D01*
X107398037Y-76417941D01*
X107393865Y-76434600D01*
X107388079Y-76450770D01*
X107380736Y-76466294D01*
X107371907Y-76481025D01*
X107361677Y-76494819D01*
X107350144Y-76507544D01*
X107337419Y-76519077D01*
X107323625Y-76529307D01*
X107308894Y-76538136D01*
X107293370Y-76545479D01*
X107277200Y-76551265D01*
X107260541Y-76555437D01*
X107243553Y-76557957D01*
X107226400Y-76558800D01*
X105676400Y-76558800D01*
X105659247Y-76557957D01*
X105642259Y-76555437D01*
X105625600Y-76551265D01*
X105609430Y-76545479D01*
X105593906Y-76538136D01*
X105579175Y-76529307D01*
X105565381Y-76519077D01*
X105552656Y-76507544D01*
X105541123Y-76494819D01*
X105530893Y-76481025D01*
X105522064Y-76466294D01*
X105514721Y-76450770D01*
X105508935Y-76434600D01*
X105504763Y-76417941D01*
X105502243Y-76400953D01*
X105501400Y-76383800D01*
X105501400Y-76033800D01*
X105502243Y-76016647D01*
X105504763Y-75999659D01*
X105508935Y-75983000D01*
X105514721Y-75966830D01*
X105522064Y-75951306D01*
X105530893Y-75936575D01*
X105541123Y-75922781D01*
X105552656Y-75910056D01*
X105565381Y-75898523D01*
X105579175Y-75888293D01*
X105593906Y-75879464D01*
X105609430Y-75872121D01*
X105625600Y-75866335D01*
X105642259Y-75862163D01*
X105659247Y-75859643D01*
X105676400Y-75858800D01*
X107226400Y-75858800D01*
X107243553Y-75859643D01*
X107243553Y-75859643D01*
G37*
D18*
X106451400Y-76208800D03*
D17*
G36*
X107243553Y-76359643D02*
G01*
X107260541Y-76362163D01*
X107277200Y-76366335D01*
X107293370Y-76372121D01*
X107308894Y-76379464D01*
X107323625Y-76388293D01*
X107337419Y-76398523D01*
X107350144Y-76410056D01*
X107361677Y-76422781D01*
X107371907Y-76436575D01*
X107380736Y-76451306D01*
X107388079Y-76466830D01*
X107393865Y-76483000D01*
X107398037Y-76499659D01*
X107400557Y-76516647D01*
X107401400Y-76533800D01*
X107401400Y-76883800D01*
X107400557Y-76900953D01*
X107398037Y-76917941D01*
X107393865Y-76934600D01*
X107388079Y-76950770D01*
X107380736Y-76966294D01*
X107371907Y-76981025D01*
X107361677Y-76994819D01*
X107350144Y-77007544D01*
X107337419Y-77019077D01*
X107323625Y-77029307D01*
X107308894Y-77038136D01*
X107293370Y-77045479D01*
X107277200Y-77051265D01*
X107260541Y-77055437D01*
X107243553Y-77057957D01*
X107226400Y-77058800D01*
X105676400Y-77058800D01*
X105659247Y-77057957D01*
X105642259Y-77055437D01*
X105625600Y-77051265D01*
X105609430Y-77045479D01*
X105593906Y-77038136D01*
X105579175Y-77029307D01*
X105565381Y-77019077D01*
X105552656Y-77007544D01*
X105541123Y-76994819D01*
X105530893Y-76981025D01*
X105522064Y-76966294D01*
X105514721Y-76950770D01*
X105508935Y-76934600D01*
X105504763Y-76917941D01*
X105502243Y-76900953D01*
X105501400Y-76883800D01*
X105501400Y-76533800D01*
X105502243Y-76516647D01*
X105504763Y-76499659D01*
X105508935Y-76483000D01*
X105514721Y-76466830D01*
X105522064Y-76451306D01*
X105530893Y-76436575D01*
X105541123Y-76422781D01*
X105552656Y-76410056D01*
X105565381Y-76398523D01*
X105579175Y-76388293D01*
X105593906Y-76379464D01*
X105609430Y-76372121D01*
X105625600Y-76366335D01*
X105642259Y-76362163D01*
X105659247Y-76359643D01*
X105676400Y-76358800D01*
X107226400Y-76358800D01*
X107243553Y-76359643D01*
X107243553Y-76359643D01*
G37*
D18*
X106451400Y-76708800D03*
D17*
G36*
X107243553Y-76859643D02*
G01*
X107260541Y-76862163D01*
X107277200Y-76866335D01*
X107293370Y-76872121D01*
X107308894Y-76879464D01*
X107323625Y-76888293D01*
X107337419Y-76898523D01*
X107350144Y-76910056D01*
X107361677Y-76922781D01*
X107371907Y-76936575D01*
X107380736Y-76951306D01*
X107388079Y-76966830D01*
X107393865Y-76983000D01*
X107398037Y-76999659D01*
X107400557Y-77016647D01*
X107401400Y-77033800D01*
X107401400Y-77383800D01*
X107400557Y-77400953D01*
X107398037Y-77417941D01*
X107393865Y-77434600D01*
X107388079Y-77450770D01*
X107380736Y-77466294D01*
X107371907Y-77481025D01*
X107361677Y-77494819D01*
X107350144Y-77507544D01*
X107337419Y-77519077D01*
X107323625Y-77529307D01*
X107308894Y-77538136D01*
X107293370Y-77545479D01*
X107277200Y-77551265D01*
X107260541Y-77555437D01*
X107243553Y-77557957D01*
X107226400Y-77558800D01*
X105676400Y-77558800D01*
X105659247Y-77557957D01*
X105642259Y-77555437D01*
X105625600Y-77551265D01*
X105609430Y-77545479D01*
X105593906Y-77538136D01*
X105579175Y-77529307D01*
X105565381Y-77519077D01*
X105552656Y-77507544D01*
X105541123Y-77494819D01*
X105530893Y-77481025D01*
X105522064Y-77466294D01*
X105514721Y-77450770D01*
X105508935Y-77434600D01*
X105504763Y-77417941D01*
X105502243Y-77400953D01*
X105501400Y-77383800D01*
X105501400Y-77033800D01*
X105502243Y-77016647D01*
X105504763Y-76999659D01*
X105508935Y-76983000D01*
X105514721Y-76966830D01*
X105522064Y-76951306D01*
X105530893Y-76936575D01*
X105541123Y-76922781D01*
X105552656Y-76910056D01*
X105565381Y-76898523D01*
X105579175Y-76888293D01*
X105593906Y-76879464D01*
X105609430Y-76872121D01*
X105625600Y-76866335D01*
X105642259Y-76862163D01*
X105659247Y-76859643D01*
X105676400Y-76858800D01*
X107226400Y-76858800D01*
X107243553Y-76859643D01*
X107243553Y-76859643D01*
G37*
D18*
X106451400Y-77208800D03*
D17*
G36*
X107243553Y-77359643D02*
G01*
X107260541Y-77362163D01*
X107277200Y-77366335D01*
X107293370Y-77372121D01*
X107308894Y-77379464D01*
X107323625Y-77388293D01*
X107337419Y-77398523D01*
X107350144Y-77410056D01*
X107361677Y-77422781D01*
X107371907Y-77436575D01*
X107380736Y-77451306D01*
X107388079Y-77466830D01*
X107393865Y-77483000D01*
X107398037Y-77499659D01*
X107400557Y-77516647D01*
X107401400Y-77533800D01*
X107401400Y-77883800D01*
X107400557Y-77900953D01*
X107398037Y-77917941D01*
X107393865Y-77934600D01*
X107388079Y-77950770D01*
X107380736Y-77966294D01*
X107371907Y-77981025D01*
X107361677Y-77994819D01*
X107350144Y-78007544D01*
X107337419Y-78019077D01*
X107323625Y-78029307D01*
X107308894Y-78038136D01*
X107293370Y-78045479D01*
X107277200Y-78051265D01*
X107260541Y-78055437D01*
X107243553Y-78057957D01*
X107226400Y-78058800D01*
X105676400Y-78058800D01*
X105659247Y-78057957D01*
X105642259Y-78055437D01*
X105625600Y-78051265D01*
X105609430Y-78045479D01*
X105593906Y-78038136D01*
X105579175Y-78029307D01*
X105565381Y-78019077D01*
X105552656Y-78007544D01*
X105541123Y-77994819D01*
X105530893Y-77981025D01*
X105522064Y-77966294D01*
X105514721Y-77950770D01*
X105508935Y-77934600D01*
X105504763Y-77917941D01*
X105502243Y-77900953D01*
X105501400Y-77883800D01*
X105501400Y-77533800D01*
X105502243Y-77516647D01*
X105504763Y-77499659D01*
X105508935Y-77483000D01*
X105514721Y-77466830D01*
X105522064Y-77451306D01*
X105530893Y-77436575D01*
X105541123Y-77422781D01*
X105552656Y-77410056D01*
X105565381Y-77398523D01*
X105579175Y-77388293D01*
X105593906Y-77379464D01*
X105609430Y-77372121D01*
X105625600Y-77366335D01*
X105642259Y-77362163D01*
X105659247Y-77359643D01*
X105676400Y-77358800D01*
X107226400Y-77358800D01*
X107243553Y-77359643D01*
X107243553Y-77359643D01*
G37*
D18*
X106451400Y-77708800D03*
D19*
X89438500Y-65476200D03*
X89938500Y-65476200D03*
X90438500Y-65476200D03*
X89438500Y-64976200D03*
X90438500Y-64976200D03*
X89438500Y-64476200D03*
X90438500Y-63976200D03*
X89938500Y-63976200D03*
X89438500Y-63976200D03*
X90438500Y-64476200D03*
X99886500Y-63982000D03*
X100386500Y-63982000D03*
X100386500Y-64482000D03*
X99886500Y-64482000D03*
X99886500Y-64982000D03*
X100386500Y-64982000D03*
X100386500Y-65482000D03*
X99886500Y-65482000D03*
D20*
X96930500Y-64016000D03*
X97430500Y-64016000D03*
X97430500Y-64516000D03*
X96430500Y-64016000D03*
X96430500Y-65016000D03*
X97430500Y-65016000D03*
X96930500Y-65016000D03*
X96430500Y-64516000D03*
D19*
X102784500Y-64524600D03*
X103284500Y-64524600D03*
X103284500Y-64024600D03*
X102784500Y-64024600D03*
X102784500Y-65024600D03*
X103284500Y-65024600D03*
D20*
X93434500Y-64032200D03*
X93934500Y-64032200D03*
X93934500Y-64532200D03*
X92934500Y-64032200D03*
X92934500Y-65032200D03*
X93934500Y-65032200D03*
X93434500Y-65032200D03*
X93434500Y-64532200D03*
X92934500Y-64532200D03*
D14*
X103264500Y-69447100D03*
X102864500Y-69447100D03*
X102864500Y-68754100D03*
X103264500Y-68754100D03*
X103064500Y-69100600D03*
D19*
X86212500Y-65476200D03*
X86712500Y-65476200D03*
X87212500Y-65476200D03*
X86212500Y-64976200D03*
X86712500Y-64976200D03*
X87212500Y-64976200D03*
X86212500Y-64476200D03*
X86712500Y-64476200D03*
X87212500Y-63976200D03*
X86712500Y-63976200D03*
X86212500Y-63976200D03*
X87212500Y-64476200D03*
D14*
X99248500Y-71189600D03*
X99648500Y-71189600D03*
X100048500Y-71189600D03*
X100448500Y-71189600D03*
X99248500Y-70789600D03*
X99648500Y-70789600D03*
X100048500Y-70789600D03*
X100448500Y-70789600D03*
X99248500Y-70389600D03*
X99648500Y-70389600D03*
X100048500Y-70389600D03*
X100448500Y-70389600D03*
X99248500Y-69989600D03*
X99648500Y-69989600D03*
X100048500Y-69989600D03*
X100448500Y-69989600D03*
X99248500Y-69589600D03*
X99648500Y-69589600D03*
X100048500Y-69589600D03*
X100448500Y-69589600D03*
X99248500Y-69189600D03*
X99648500Y-69189600D03*
X100048500Y-69189600D03*
X100448500Y-69189600D03*
X99248500Y-68789600D03*
X99648500Y-68789600D03*
X100048500Y-68789600D03*
X100448500Y-68789600D03*
X91592500Y-68704000D03*
X91592500Y-69104000D03*
X91592500Y-69504000D03*
X91592500Y-69904000D03*
X91592500Y-70304000D03*
X91592500Y-70704000D03*
X91592500Y-71104000D03*
X91592500Y-71504000D03*
X91192500Y-68704000D03*
X91192500Y-69104000D03*
X91192500Y-69504000D03*
X91192500Y-69904000D03*
X91192500Y-70304000D03*
X91192500Y-70704000D03*
X91192500Y-71104000D03*
X91192500Y-71504000D03*
X90792500Y-68704000D03*
X90792500Y-69104000D03*
X90792500Y-69504000D03*
X90792500Y-69904000D03*
X90792500Y-70304000D03*
X90792500Y-70704000D03*
X90792500Y-71104000D03*
X90792500Y-71504000D03*
X90392500Y-68704000D03*
X90392500Y-69104000D03*
X90392500Y-69504000D03*
X90392500Y-69904000D03*
X90392500Y-70304000D03*
X90392500Y-70704000D03*
X90392500Y-71104000D03*
X90392500Y-71504000D03*
X89992500Y-68704000D03*
X89992500Y-69104000D03*
X89992500Y-69504000D03*
X89992500Y-69904000D03*
X89992500Y-70304000D03*
X89992500Y-70704000D03*
X89992500Y-71104000D03*
X89992500Y-71504000D03*
X89592500Y-68704000D03*
X89592500Y-69104000D03*
X89592500Y-69504000D03*
X89592500Y-69904000D03*
X89592500Y-70304000D03*
X89592500Y-70704000D03*
X89592500Y-71104000D03*
X89592500Y-71504000D03*
X89192500Y-68704000D03*
X89192500Y-69104000D03*
X89192500Y-69504000D03*
X89192500Y-69904000D03*
X89192500Y-70304000D03*
X89192500Y-70704000D03*
X89192500Y-71104000D03*
X89192500Y-71504000D03*
X88792500Y-68704000D03*
X88792500Y-69104000D03*
X88792500Y-69504000D03*
X88792500Y-69904000D03*
X88792500Y-70304000D03*
X88792500Y-70704000D03*
X88792500Y-71104000D03*
X88792500Y-71504000D03*
X94198500Y-71348400D03*
X94198500Y-70948400D03*
X94198500Y-70548400D03*
X94198500Y-70148400D03*
X94198500Y-69748400D03*
X94198500Y-69348400D03*
X94198500Y-68948400D03*
X94598500Y-71348400D03*
X94598500Y-70948400D03*
X94598500Y-70548400D03*
X94598500Y-70148400D03*
X94598500Y-69748400D03*
X94598500Y-69348400D03*
X94598500Y-68948400D03*
X94998500Y-71348400D03*
X94998500Y-70948400D03*
X94998500Y-70548400D03*
X94998500Y-70148400D03*
X94998500Y-69748400D03*
X94998500Y-69348400D03*
X94998500Y-68948400D03*
X95398500Y-71348400D03*
X95398500Y-70948400D03*
X95398500Y-70548400D03*
X95398500Y-70148400D03*
X95398500Y-69748400D03*
X95398500Y-69348400D03*
X95398500Y-68948400D03*
X95798500Y-71348400D03*
X95798500Y-70948400D03*
X95798500Y-70548400D03*
X95798500Y-70148400D03*
X95798500Y-69748400D03*
X95798500Y-69348400D03*
X95798500Y-68948400D03*
X96198500Y-71348400D03*
X96198500Y-70948400D03*
X96198500Y-70548400D03*
X96198500Y-70148400D03*
X96198500Y-69748400D03*
X96198500Y-69348400D03*
X96198500Y-68948400D03*
X96598500Y-71348400D03*
X96598500Y-70948400D03*
X96598500Y-70548400D03*
X96598500Y-70148400D03*
X96598500Y-69748400D03*
X96598500Y-69348400D03*
X96598500Y-68948400D03*
D21*
X121134680Y-68431400D03*
X121134680Y-68031400D03*
X121134680Y-67631400D03*
X121134680Y-67231400D03*
X121134680Y-66831400D03*
X121134680Y-66431400D03*
X121134680Y-66031400D03*
X121134680Y-65631400D03*
D22*
X121634680Y-65131400D03*
X122034680Y-65131400D03*
X122434680Y-65131400D03*
X122834680Y-65131400D03*
X123234680Y-65131400D03*
X123634680Y-65131400D03*
X124034680Y-65131400D03*
X124434680Y-65131400D03*
D21*
X124934680Y-65631400D03*
X124934680Y-66031400D03*
X124934680Y-66431400D03*
X124934680Y-66831400D03*
X124934680Y-67231400D03*
X124934680Y-67631400D03*
X124934680Y-68031400D03*
X124934680Y-68431400D03*
D22*
X124434680Y-68931400D03*
X124034680Y-68931400D03*
X123634680Y-68931400D03*
X123234680Y-68931400D03*
X122834680Y-68931400D03*
X122434680Y-68931400D03*
X122034680Y-68931400D03*
X121634680Y-68931400D03*
D23*
X123697180Y-66368900D03*
X123697180Y-67693900D03*
X122372180Y-66368900D03*
X122372180Y-67693900D03*
D24*
X106431440Y-68109800D03*
X106431440Y-67609800D03*
X106431440Y-67109800D03*
X106431440Y-66609800D03*
D25*
X107156440Y-65884800D03*
X107656440Y-65884800D03*
X108156440Y-65884800D03*
X108656440Y-65884800D03*
D24*
X109381440Y-66609800D03*
X109381440Y-67109800D03*
X109381440Y-67609800D03*
X109381440Y-68109800D03*
D25*
X108656440Y-68834800D03*
X108156440Y-68834800D03*
X107656440Y-68834800D03*
X107156440Y-68834800D03*
D26*
X108356440Y-66909800D03*
X108356440Y-67809800D03*
X107456440Y-66909800D03*
X107456440Y-67809800D03*
D27*
X114454400Y-67440500D03*
X114454400Y-66190500D03*
X115704400Y-67440500D03*
X115704400Y-66190500D03*
D28*
X114104400Y-68815500D03*
X114754400Y-68815500D03*
X115404400Y-68815500D03*
X116054400Y-68815500D03*
D29*
X117079400Y-67790500D03*
X117079400Y-67140500D03*
X117079400Y-66490500D03*
X117079400Y-65840500D03*
D28*
X116054400Y-64815500D03*
X115404400Y-64815500D03*
X114754400Y-64815500D03*
X114104400Y-64815500D03*
D29*
X113079400Y-65840500D03*
X113079400Y-66490500D03*
X113079400Y-67140500D03*
X113079400Y-67790500D03*
D30*
X67239500Y-92249000D03*
X67239500Y-87169000D03*
X67239500Y-89709000D03*
D31*
X73539500Y-89709000D03*
D30*
X67239500Y-90979000D03*
X67239500Y-88439000D03*
D32*
X66151500Y-82979000D03*
X66151500Y-79919000D03*
X66151500Y-84519000D03*
X66151500Y-81459000D03*
X72951500Y-81459000D03*
X72951500Y-84519000D03*
X72951500Y-79919000D03*
X72951500Y-82979000D03*
D33*
X94139400Y-79552000D03*
X94139400Y-80192000D03*
X94139400Y-80852000D03*
X94139400Y-81492000D03*
X91519400Y-81492000D03*
X91519400Y-80852000D03*
X91519400Y-80192000D03*
X91519400Y-79552000D03*
D34*
X99068000Y-80176000D03*
X99068000Y-80676000D03*
X99068000Y-81176000D03*
X99068000Y-81676000D03*
X97268000Y-81676000D03*
X97268000Y-81176000D03*
X97268000Y-80676000D03*
X97268000Y-80176000D03*
D12*
X92837000Y-86551800D03*
X92837000Y-88301800D03*
D35*
X56336500Y-75053680D03*
X61011500Y-75053680D03*
D36*
X56332500Y-67968040D03*
X60507500Y-67968040D03*
D37*
X56195000Y-71298920D03*
X60645000Y-71298920D03*
D38*
X56544500Y-79803160D03*
X61819500Y-79803160D03*
D39*
X56321500Y-84913000D03*
X62296500Y-84913000D03*
D40*
X56596000Y-90039680D03*
X63546000Y-90039680D03*
D41*
X72377000Y-65024000D03*
X67577000Y-65024000D03*
D42*
X116651500Y-89893300D03*
X116651500Y-86093300D03*
D43*
X128373420Y-60299600D03*
D44*
X128373480Y-68803520D03*
D45*
X128373480Y-64287400D03*
D46*
X128373400Y-56728360D03*
D47*
X112834440Y-92804920D03*
X112834440Y-91534920D03*
X112834440Y-90264920D03*
X112834440Y-88994920D03*
X112834440Y-87724920D03*
X112834440Y-86454920D03*
X112834440Y-85184920D03*
X112834440Y-83914920D03*
X103534440Y-83914920D03*
X103534440Y-85184920D03*
X103534440Y-86454920D03*
X103534440Y-87724920D03*
X103534440Y-88994920D03*
X103534440Y-90264920D03*
X103534440Y-91534920D03*
X103534440Y-92804920D03*
X95078440Y-92804920D03*
X95078440Y-91534920D03*
X95078440Y-90264920D03*
X95078440Y-88994920D03*
X95078440Y-87724920D03*
X95078440Y-86454920D03*
X95078440Y-85184920D03*
X95078440Y-83914920D03*
X100478440Y-83914920D03*
X100478440Y-85184920D03*
X100478440Y-86454920D03*
X100478440Y-87724920D03*
X100478440Y-88994920D03*
X100478440Y-90264920D03*
X100478440Y-91534920D03*
X100478440Y-92804920D03*
D48*
X56667600Y-56238800D03*
X55767600Y-56238800D03*
D49*
X57323200Y-57842800D03*
X55823200Y-57842800D03*
D50*
X56218600Y-54878800D03*
X55708600Y-54878800D03*
D51*
X57828000Y-59792400D03*
X55928000Y-59792400D03*
D52*
X58937600Y-62138400D03*
X56037600Y-62138400D03*
D53*
X58886800Y-65094800D03*
X55986800Y-65094800D03*
D54*
X93307760Y-75444000D03*
X93307760Y-77344000D03*
X91308780Y-76394000D03*
D55*
X88806400Y-75402400D03*
X88806400Y-76352400D03*
X88806400Y-77302400D03*
X86606400Y-77302400D03*
X86606400Y-75402400D03*
X88807200Y-79572000D03*
X88807200Y-80522000D03*
X88807200Y-81472000D03*
X86607200Y-81472000D03*
X86607200Y-79572000D03*
X86607200Y-80522000D03*
D56*
X65514920Y-55669760D03*
D57*
X64514920Y-55669760D03*
X65014920Y-55669760D03*
D56*
X64014920Y-55669760D03*
D57*
X65014920Y-54669760D03*
D56*
X65514920Y-54669760D03*
D57*
X64514920Y-54669760D03*
D56*
X64014920Y-54669760D03*
D58*
X103670300Y-76829600D03*
X103670300Y-78150400D03*
X101638300Y-77490000D03*
D59*
X97152000Y-76829600D03*
X97152000Y-78150400D03*
X99184000Y-77490000D03*
X99184000Y-78150400D03*
X99184000Y-76829600D03*
D60*
X101640840Y-80275760D03*
X101640840Y-80926000D03*
X101640840Y-81576240D03*
X103540760Y-81576240D03*
X103540760Y-80926000D03*
X103540760Y-80275760D03*
D61*
X76327000Y-67022980D03*
X76327000Y-63025020D03*
D62*
X81407000Y-67172840D03*
X81407000Y-62875160D03*
D63*
X117291340Y-81344360D03*
X118091340Y-81344360D03*
X118891340Y-81344360D03*
X119691340Y-81344360D03*
X120491340Y-81344360D03*
X121291340Y-81344360D03*
X122091340Y-81344360D03*
X122891340Y-81344360D03*
D64*
X124341340Y-79894360D03*
X124341340Y-79094360D03*
X124341340Y-78294360D03*
X124341340Y-77494360D03*
X124341340Y-76694360D03*
X124341340Y-75894360D03*
X124341340Y-75094360D03*
X124341340Y-74294360D03*
D63*
X122891340Y-72844360D03*
X122091340Y-72844360D03*
X121291340Y-72844360D03*
X120491340Y-72844360D03*
X119691340Y-72844360D03*
X118891340Y-72844360D03*
X118091340Y-72844360D03*
X117291340Y-72844360D03*
D64*
X115841340Y-74294360D03*
X115841340Y-75094360D03*
X115841340Y-75894360D03*
X115841340Y-76694360D03*
X115841340Y-77494360D03*
X115841340Y-78294360D03*
X115841340Y-79094360D03*
X115841340Y-79894360D03*
D65*
X120415000Y-60843000D03*
X120415000Y-60193000D03*
X120415000Y-59543000D03*
X120415000Y-58893000D03*
X120415000Y-58243000D03*
X120415000Y-57593000D03*
X120415000Y-56943000D03*
X120415000Y-56293000D03*
X125965000Y-56293000D03*
X125965000Y-56943000D03*
X125965000Y-57593000D03*
X125965000Y-58243000D03*
X125965000Y-58893000D03*
X125965000Y-59543000D03*
X125965000Y-60193000D03*
X125965000Y-60843000D03*
D66*
X123925000Y-57225500D03*
X123925000Y-58120500D03*
X123925000Y-59015500D03*
X123925000Y-59910500D03*
X122455000Y-57225500D03*
X122455000Y-58120500D03*
X122455000Y-59015500D03*
X122455000Y-59910500D03*
D67*
X71854060Y-70612000D03*
X68353940Y-70612000D03*
D68*
X112438100Y-59638540D03*
X112438100Y-59138540D03*
X112438100Y-58638540D03*
X112438100Y-58138540D03*
X112438100Y-57638540D03*
X112438100Y-57138540D03*
X112438100Y-56638540D03*
X112438100Y-56138540D03*
X117238100Y-56138540D03*
X117238100Y-56638540D03*
X117238100Y-57138540D03*
X117238100Y-57638540D03*
X117238100Y-58138540D03*
X117238100Y-58638540D03*
X117238100Y-59138540D03*
X117238100Y-59638540D03*
D69*
X115703100Y-56388540D03*
X115703100Y-57388540D03*
X115703100Y-58388540D03*
X115703100Y-59388540D03*
X113973100Y-56388540D03*
X113973100Y-57388540D03*
X113973100Y-58388540D03*
X113973100Y-59388540D03*
D68*
X106542800Y-59946140D03*
X106542800Y-59496140D03*
X106542800Y-59046140D03*
X106542800Y-58596140D03*
X106542800Y-58146140D03*
X106542800Y-57696140D03*
X106542800Y-57246140D03*
X106542800Y-56796140D03*
X109442800Y-56796140D03*
X109442800Y-57246140D03*
X109442800Y-57696140D03*
X109442800Y-58146140D03*
X109442800Y-58596140D03*
X109442800Y-59046140D03*
X109442800Y-59496140D03*
X109442800Y-59946140D03*
D70*
X108417800Y-57133640D03*
X108417800Y-57958640D03*
X108417800Y-58783640D03*
X108417800Y-59608640D03*
X107567800Y-57133640D03*
X107567800Y-57958640D03*
X107567800Y-58783640D03*
X107567800Y-59608640D03*
D71*
X113233200Y-81153000D03*
X91567000Y-91567000D03*
D72*
X121822030Y-89259973D03*
X123282030Y-90320725D03*
X125086690Y-90320725D03*
X126546690Y-89259973D03*
X127104360Y-87543640D03*
X126546690Y-85827307D03*
X125086690Y-84766555D03*
X123282030Y-84766555D03*
X121822030Y-85827307D03*
D73*
X121264360Y-87543640D03*
D74*
X130814400Y-91033600D03*
D75*
X138434400Y-83413600D03*
X130814400Y-88493600D03*
X138434400Y-85953600D03*
X130814400Y-85953600D03*
X138434400Y-88493600D03*
X130814400Y-83413600D03*
X138434400Y-91033600D03*
D76*
X76823500Y-84484500D03*
X76823500Y-79884500D03*
X76823500Y-82184500D03*
D77*
X83123500Y-82184500D03*
D78*
X76860000Y-91954500D03*
X76860000Y-88954500D03*
D79*
X83160000Y-89704500D03*
D78*
X76860000Y-90454500D03*
X76860000Y-87454500D03*
D71*
X137960100Y-95135700D03*
D80*
X72257000Y-60605000D03*
X67697000Y-60605000D03*
D81*
X69977000Y-54305000D03*
D82*
X78171000Y-72136000D03*
X80071000Y-72136000D03*
D83*
X82394000Y-56769800D03*
X75594000Y-56769800D03*
D84*
G36*
X140131800Y-69461680D02*
G01*
X136603740Y-69461680D01*
X136603740Y-66947080D01*
X140131800Y-66947080D01*
X140131800Y-69461680D01*
X140131800Y-69461680D01*
G37*
X140131800Y-69461680D02*
X136603740Y-69461680D01*
X136603740Y-66947080D01*
X140131800Y-66947080D01*
X140131800Y-69461680D01*
G36*
X140131800Y-62311740D02*
G01*
X135610600Y-62311740D01*
X135610600Y-61321140D01*
X140131800Y-61321140D01*
X140131800Y-62311740D01*
X140131800Y-62311740D01*
G37*
X140131800Y-62311740D02*
X135610600Y-62311740D01*
X135610600Y-61321140D01*
X140131800Y-61321140D01*
X140131800Y-62311740D01*
G36*
X140119100Y-58801780D02*
G01*
X135597900Y-58801780D01*
X135597900Y-58319180D01*
X140119100Y-58319180D01*
X140119100Y-58801780D01*
X140119100Y-58801780D01*
G37*
X140119100Y-58801780D02*
X135597900Y-58801780D01*
X135597900Y-58319180D01*
X140119100Y-58319180D01*
X140119100Y-58801780D01*
G36*
X140030200Y-52247800D02*
G01*
X135610600Y-52247800D01*
X135610600Y-52070000D01*
X140030200Y-52070000D01*
X140030200Y-52247800D01*
X140030200Y-52247800D01*
G37*
X140030200Y-52247800D02*
X135610600Y-52247800D01*
X135610600Y-52070000D01*
X140030200Y-52070000D01*
X140030200Y-52247800D01*
G36*
X140119100Y-53858160D02*
G01*
X135610600Y-53858160D01*
X135610600Y-53629560D01*
X140119100Y-53629560D01*
X140119100Y-53858160D01*
X140119100Y-53858160D01*
G37*
X140119100Y-53858160D02*
X135610600Y-53858160D01*
X135610600Y-53629560D01*
X140119100Y-53629560D01*
X140119100Y-53858160D01*
G36*
X140119100Y-55503120D02*
G01*
X135610600Y-55503120D01*
X135610600Y-55223720D01*
X140119100Y-55223720D01*
X140119100Y-55503120D01*
X140119100Y-55503120D01*
G37*
X140119100Y-55503120D02*
X135610600Y-55503120D01*
X135610600Y-55223720D01*
X140119100Y-55223720D01*
X140119100Y-55503120D01*
G36*
X140119100Y-60546600D02*
G01*
X135597900Y-60546600D01*
X135597900Y-59797300D01*
X140119100Y-59797300D01*
X140119100Y-60546600D01*
X140119100Y-60546600D01*
G37*
X140119100Y-60546600D02*
X135597900Y-60546600D01*
X135597900Y-59797300D01*
X140119100Y-59797300D01*
X140119100Y-60546600D01*
G36*
X140131800Y-66440840D02*
G01*
X135610600Y-66440840D01*
X135610600Y-64561240D01*
X140131800Y-64561240D01*
X140131800Y-66440840D01*
X140131800Y-66440840D01*
G37*
X140131800Y-66440840D02*
X135610600Y-66440840D01*
X135610600Y-64561240D01*
X140131800Y-64561240D01*
X140131800Y-66440840D01*
G36*
X140119100Y-64062440D02*
G01*
X135597900Y-64062440D01*
X135597900Y-62817840D01*
X140119100Y-62817840D01*
X140119100Y-64062440D01*
X140119100Y-64062440D01*
G37*
X140119100Y-64062440D02*
X135597900Y-64062440D01*
X135597900Y-62817840D01*
X140119100Y-62817840D01*
X140119100Y-64062440D01*
G36*
X140119100Y-57135540D02*
G01*
X135610600Y-57135540D01*
X135610600Y-56779940D01*
X140119100Y-56779940D01*
X140119100Y-57135540D01*
X140119100Y-57135540D01*
G37*
X140119100Y-57135540D02*
X135610600Y-57135540D01*
X135610600Y-56779940D01*
X140119100Y-56779940D01*
X140119100Y-57135540D01*
D85*
G36*
X139789060Y-71386320D02*
G01*
X138513660Y-71386320D01*
X138513660Y-70753540D01*
X139789060Y-70753540D01*
X139789060Y-71386320D01*
X139789060Y-71386320D01*
G37*
X139789060Y-71386320D02*
X138513660Y-71386320D01*
X138513660Y-70753540D01*
X139789060Y-70753540D01*
X139789060Y-71386320D01*
G36*
X139789060Y-73387840D02*
G01*
X138513660Y-73387840D01*
X138513660Y-72752520D01*
X139789060Y-72752520D01*
X139789060Y-73387840D01*
X139789060Y-73387840D01*
G37*
X139789060Y-73387840D02*
X138513660Y-73387840D01*
X138513660Y-72752520D01*
X139789060Y-72752520D01*
X139789060Y-73387840D01*
G36*
X138231800Y-71211600D02*
G01*
X136956400Y-71211600D01*
X136956400Y-70754080D01*
X138231800Y-70754080D01*
X138231800Y-71211600D01*
X138231800Y-71211600D01*
G37*
X138231800Y-71211600D02*
X136956400Y-71211600D01*
X136956400Y-70754080D01*
X138231800Y-70754080D01*
X138231800Y-71211600D01*
G36*
X139791600Y-74386060D02*
G01*
X138513660Y-74386060D01*
X138513660Y-73750740D01*
X139791600Y-73750740D01*
X139791600Y-74386060D01*
X139791600Y-74386060D01*
G37*
X139791600Y-74386060D02*
X138513660Y-74386060D01*
X138513660Y-73750740D01*
X139791600Y-73750740D01*
X139791600Y-74386060D01*
G36*
X139791600Y-75394440D02*
G01*
X138511120Y-75394440D01*
X138511120Y-74754040D01*
X139791600Y-74754040D01*
X139791600Y-75394440D01*
X139791600Y-75394440D01*
G37*
X139791600Y-75394440D02*
X138511120Y-75394440D01*
X138511120Y-74754040D01*
X139791600Y-74754040D01*
X139791600Y-75394440D01*
G36*
X139791600Y-72387080D02*
G01*
X138513660Y-72387080D01*
X138513660Y-71751760D01*
X139791600Y-71751760D01*
X139791600Y-72387080D01*
X139791600Y-72387080D01*
G37*
X139791600Y-72387080D02*
X138513660Y-72387080D01*
X138513660Y-71751760D01*
X139791600Y-71751760D01*
X139791600Y-72387080D01*
G36*
X138231800Y-72011700D02*
G01*
X136956400Y-72011700D01*
X136956400Y-71554180D01*
X138231800Y-71554180D01*
X138231800Y-72011700D01*
X138231800Y-72011700D01*
G37*
X138231800Y-72011700D02*
X136956400Y-72011700D01*
X136956400Y-71554180D01*
X138231800Y-71554180D01*
X138231800Y-72011700D01*
G36*
X138231800Y-72811800D02*
G01*
X136956400Y-72811800D01*
X136956400Y-72354280D01*
X138231800Y-72354280D01*
X138231800Y-72811800D01*
X138231800Y-72811800D01*
G37*
X138231800Y-72811800D02*
X136956400Y-72811800D01*
X136956400Y-72354280D01*
X138231800Y-72354280D01*
X138231800Y-72811800D01*
G36*
X138231800Y-73614440D02*
G01*
X136956400Y-73614440D01*
X136956400Y-73151840D01*
X138231800Y-73151840D01*
X138231800Y-73614440D01*
X138231800Y-73614440D01*
G37*
X138231800Y-73614440D02*
X136956400Y-73614440D01*
X136956400Y-73151840D01*
X138231800Y-73151840D01*
X138231800Y-73614440D01*
G36*
X138231800Y-74412000D02*
G01*
X136956400Y-74412000D01*
X136956400Y-73954480D01*
X138231800Y-73954480D01*
X138231800Y-74412000D01*
X138231800Y-74412000D01*
G37*
X138231800Y-74412000D02*
X136956400Y-74412000D01*
X136956400Y-73954480D01*
X138231800Y-73954480D01*
X138231800Y-74412000D01*
G36*
X138231800Y-75212100D02*
G01*
X136956400Y-75212100D01*
X136956400Y-74754580D01*
X138231800Y-74754580D01*
X138231800Y-75212100D01*
X138231800Y-75212100D01*
G37*
X138231800Y-75212100D02*
X136956400Y-75212100D01*
X136956400Y-74754580D01*
X138231800Y-74754580D01*
X138231800Y-75212100D01*
G36*
X136672800Y-74432320D02*
G01*
X135397400Y-74432320D01*
X135397400Y-74002740D01*
X136672800Y-74002740D01*
X136672800Y-74432320D01*
X136672800Y-74432320D01*
G37*
X136672800Y-74432320D02*
X135397400Y-74432320D01*
X135397400Y-74002740D01*
X136672800Y-74002740D01*
X136672800Y-74432320D01*
G36*
X136672800Y-75082560D02*
G01*
X135397400Y-75082560D01*
X135397400Y-74650440D01*
X136672800Y-74650440D01*
X136672800Y-75082560D01*
X136672800Y-75082560D01*
G37*
X136672800Y-75082560D02*
X135397400Y-75082560D01*
X135397400Y-74650440D01*
X136672800Y-74650440D01*
X136672800Y-75082560D01*
G36*
X135120860Y-71152800D02*
G01*
X133845460Y-71152800D01*
X133845460Y-70753700D01*
X135120860Y-70753700D01*
X135120860Y-71152800D01*
X135120860Y-71152800D01*
G37*
X135120860Y-71152800D02*
X133845460Y-71152800D01*
X133845460Y-70753700D01*
X135120860Y-70753700D01*
X135120860Y-71152800D01*
G36*
X135120860Y-71787800D02*
G01*
X133842920Y-71787800D01*
X133842920Y-71386160D01*
X135120860Y-71386160D01*
X135120860Y-71787800D01*
X135120860Y-71787800D01*
G37*
X135120860Y-71787800D02*
X133842920Y-71787800D01*
X133842920Y-71386160D01*
X135120860Y-71386160D01*
X135120860Y-71787800D01*
G36*
X135120860Y-72422800D02*
G01*
X133842920Y-72422800D01*
X133842920Y-72021160D01*
X135120860Y-72021160D01*
X135120860Y-72422800D01*
X135120860Y-72422800D01*
G37*
X135120860Y-72422800D02*
X133842920Y-72422800D01*
X133842920Y-72021160D01*
X135120860Y-72021160D01*
X135120860Y-72422800D01*
G36*
X136672800Y-71181120D02*
G01*
X135397400Y-71181120D01*
X135397400Y-70754080D01*
X136672800Y-70754080D01*
X136672800Y-71181120D01*
X136672800Y-71181120D01*
G37*
X136672800Y-71181120D02*
X135397400Y-71181120D01*
X135397400Y-70754080D01*
X136672800Y-70754080D01*
X136672800Y-71181120D01*
G36*
X136672800Y-71833900D02*
G01*
X135397400Y-71833900D01*
X135397400Y-71399240D01*
X136672800Y-71399240D01*
X136672800Y-71833900D01*
X136672800Y-71833900D01*
G37*
X136672800Y-71833900D02*
X135397400Y-71833900D01*
X135397400Y-71399240D01*
X136672800Y-71399240D01*
X136672800Y-71833900D01*
G36*
X136672800Y-73782080D02*
G01*
X135397400Y-73782080D01*
X135397400Y-73352500D01*
X136672800Y-73352500D01*
X136672800Y-73782080D01*
X136672800Y-73782080D01*
G37*
X136672800Y-73782080D02*
X135397400Y-73782080D01*
X135397400Y-73352500D01*
X136672800Y-73352500D01*
X136672800Y-73782080D01*
G36*
X136672800Y-73131840D02*
G01*
X135397400Y-73131840D01*
X135397400Y-72699720D01*
X136672800Y-72699720D01*
X136672800Y-73131840D01*
X136672800Y-73131840D01*
G37*
X136672800Y-73131840D02*
X135397400Y-73131840D01*
X135397400Y-72699720D01*
X136672800Y-72699720D01*
X136672800Y-73131840D01*
G36*
X136672800Y-72481600D02*
G01*
X135397400Y-72481600D01*
X135397400Y-72049480D01*
X136672800Y-72049480D01*
X136672800Y-72481600D01*
X136672800Y-72481600D01*
G37*
X136672800Y-72481600D02*
X135397400Y-72481600D01*
X135397400Y-72049480D01*
X136672800Y-72049480D01*
X136672800Y-72481600D01*
G36*
X133555880Y-71013400D02*
G01*
X132280660Y-71013400D01*
X132280660Y-70754000D01*
X133555880Y-70754000D01*
X133555880Y-71013400D01*
X133555880Y-71013400D01*
G37*
X133555880Y-71013400D02*
X132280660Y-71013400D01*
X132280660Y-70754000D01*
X133555880Y-70754000D01*
X133555880Y-71013400D01*
G36*
X135118320Y-74960260D02*
G01*
X133842920Y-74960260D01*
X133842920Y-74561160D01*
X135118320Y-74561160D01*
X135118320Y-74960260D01*
X135118320Y-74960260D01*
G37*
X135118320Y-74960260D02*
X133842920Y-74960260D01*
X133842920Y-74561160D01*
X135118320Y-74561160D01*
X135118320Y-74960260D01*
G36*
X135120860Y-74327800D02*
G01*
X133845460Y-74327800D01*
X133845460Y-73926160D01*
X135120860Y-73926160D01*
X135120860Y-74327800D01*
X135120860Y-74327800D01*
G37*
X135120860Y-74327800D02*
X133845460Y-74327800D01*
X133845460Y-73926160D01*
X135120860Y-73926160D01*
X135120860Y-74327800D01*
G36*
X135120860Y-73692800D02*
G01*
X133845460Y-73692800D01*
X133845460Y-73291160D01*
X135120860Y-73291160D01*
X135120860Y-73692800D01*
X135120860Y-73692800D01*
G37*
X135120860Y-73692800D02*
X133845460Y-73692800D01*
X133845460Y-73291160D01*
X135120860Y-73291160D01*
X135120860Y-73692800D01*
G36*
X135120860Y-73057800D02*
G01*
X133842920Y-73057800D01*
X133842920Y-72656160D01*
X135120860Y-72656160D01*
X135120860Y-73057800D01*
X135120860Y-73057800D01*
G37*
X135120860Y-73057800D02*
X133842920Y-73057800D01*
X133842920Y-72656160D01*
X135120860Y-72656160D01*
X135120860Y-73057800D01*
G36*
X131997060Y-70934740D02*
G01*
X130716100Y-70934740D01*
X130716100Y-70754080D01*
X131997060Y-70754080D01*
X131997060Y-70934740D01*
X131997060Y-70934740D01*
G37*
X131997060Y-70934740D02*
X130716100Y-70934740D01*
X130716100Y-70754080D01*
X131997060Y-70754080D01*
X131997060Y-70934740D01*
G36*
X133555880Y-71513400D02*
G01*
X132280660Y-71513400D01*
X132280660Y-71254000D01*
X133555880Y-71254000D01*
X133555880Y-71513400D01*
X133555880Y-71513400D01*
G37*
X133555880Y-71513400D02*
X132280660Y-71513400D01*
X132280660Y-71254000D01*
X133555880Y-71254000D01*
X133555880Y-71513400D01*
G36*
X133555880Y-72013400D02*
G01*
X132280660Y-72013400D01*
X132280660Y-71754000D01*
X133555880Y-71754000D01*
X133555880Y-72013400D01*
X133555880Y-72013400D01*
G37*
X133555880Y-72013400D02*
X132280660Y-72013400D01*
X132280660Y-71754000D01*
X133555880Y-71754000D01*
X133555880Y-72013400D01*
G36*
X133555880Y-72513400D02*
G01*
X132280660Y-72513400D01*
X132280660Y-72254000D01*
X133555880Y-72254000D01*
X133555880Y-72513400D01*
X133555880Y-72513400D01*
G37*
X133555880Y-72513400D02*
X132280660Y-72513400D01*
X132280660Y-72254000D01*
X133555880Y-72254000D01*
X133555880Y-72513400D01*
G36*
X133555880Y-73013400D02*
G01*
X132280660Y-73013400D01*
X132280660Y-72754000D01*
X133555880Y-72754000D01*
X133555880Y-73013400D01*
X133555880Y-73013400D01*
G37*
X133555880Y-73013400D02*
X132280660Y-73013400D01*
X132280660Y-72754000D01*
X133555880Y-72754000D01*
X133555880Y-73013400D01*
G36*
X133555880Y-73513400D02*
G01*
X132280660Y-73513400D01*
X132280660Y-73254000D01*
X133555880Y-73254000D01*
X133555880Y-73513400D01*
X133555880Y-73513400D01*
G37*
X133555880Y-73513400D02*
X132280660Y-73513400D01*
X132280660Y-73254000D01*
X133555880Y-73254000D01*
X133555880Y-73513400D01*
G36*
X133555880Y-74013400D02*
G01*
X132280660Y-74013400D01*
X132280660Y-73754000D01*
X133555880Y-73754000D01*
X133555880Y-74013400D01*
X133555880Y-74013400D01*
G37*
X133555880Y-74013400D02*
X132280660Y-74013400D01*
X132280660Y-73754000D01*
X133555880Y-73754000D01*
X133555880Y-74013400D01*
G36*
X133555880Y-74513400D02*
G01*
X132280660Y-74513400D01*
X132280660Y-74254000D01*
X133555880Y-74254000D01*
X133555880Y-74513400D01*
X133555880Y-74513400D01*
G37*
X133555880Y-74513400D02*
X132280660Y-74513400D01*
X132280660Y-74254000D01*
X133555880Y-74254000D01*
X133555880Y-74513400D01*
G36*
X133555880Y-75013400D02*
G01*
X132280660Y-75013400D01*
X132280660Y-74754000D01*
X133555880Y-74754000D01*
X133555880Y-75013400D01*
X133555880Y-75013400D01*
G37*
X133555880Y-75013400D02*
X132280660Y-75013400D01*
X132280660Y-74754000D01*
X133555880Y-74754000D01*
X133555880Y-75013400D01*
G36*
X130442060Y-70876320D02*
G01*
X129165200Y-70876320D01*
X129165200Y-70754080D01*
X130442060Y-70754080D01*
X130442060Y-70876320D01*
X130442060Y-70876320D01*
G37*
X130442060Y-70876320D02*
X129165200Y-70876320D01*
X129165200Y-70754080D01*
X130442060Y-70754080D01*
X130442060Y-70876320D01*
G36*
X131997060Y-71334740D02*
G01*
X130716100Y-71334740D01*
X130716100Y-71154080D01*
X131997060Y-71154080D01*
X131997060Y-71334740D01*
X131997060Y-71334740D01*
G37*
X131997060Y-71334740D02*
X130716100Y-71334740D01*
X130716100Y-71154080D01*
X131997060Y-71154080D01*
X131997060Y-71334740D01*
G36*
X131997060Y-71734740D02*
G01*
X130716100Y-71734740D01*
X130716100Y-71554080D01*
X131997060Y-71554080D01*
X131997060Y-71734740D01*
X131997060Y-71734740D01*
G37*
X131997060Y-71734740D02*
X130716100Y-71734740D01*
X130716100Y-71554080D01*
X131997060Y-71554080D01*
X131997060Y-71734740D01*
G36*
X131997060Y-72134740D02*
G01*
X130716100Y-72134740D01*
X130716100Y-71954080D01*
X131997060Y-71954080D01*
X131997060Y-72134740D01*
X131997060Y-72134740D01*
G37*
X131997060Y-72134740D02*
X130716100Y-72134740D01*
X130716100Y-71954080D01*
X131997060Y-71954080D01*
X131997060Y-72134740D01*
G36*
X131997060Y-72534740D02*
G01*
X130716100Y-72534740D01*
X130716100Y-72354080D01*
X131997060Y-72354080D01*
X131997060Y-72534740D01*
X131997060Y-72534740D01*
G37*
X131997060Y-72534740D02*
X130716100Y-72534740D01*
X130716100Y-72354080D01*
X131997060Y-72354080D01*
X131997060Y-72534740D01*
G36*
X131997060Y-72934740D02*
G01*
X130716100Y-72934740D01*
X130716100Y-72754080D01*
X131997060Y-72754080D01*
X131997060Y-72934740D01*
X131997060Y-72934740D01*
G37*
X131997060Y-72934740D02*
X130716100Y-72934740D01*
X130716100Y-72754080D01*
X131997060Y-72754080D01*
X131997060Y-72934740D01*
G36*
X131997060Y-73334740D02*
G01*
X130716100Y-73334740D01*
X130716100Y-73154080D01*
X131997060Y-73154080D01*
X131997060Y-73334740D01*
X131997060Y-73334740D01*
G37*
X131997060Y-73334740D02*
X130716100Y-73334740D01*
X130716100Y-73154080D01*
X131997060Y-73154080D01*
X131997060Y-73334740D01*
G36*
X131997060Y-73734740D02*
G01*
X130716100Y-73734740D01*
X130716100Y-73554080D01*
X131997060Y-73554080D01*
X131997060Y-73734740D01*
X131997060Y-73734740D01*
G37*
X131997060Y-73734740D02*
X130716100Y-73734740D01*
X130716100Y-73554080D01*
X131997060Y-73554080D01*
X131997060Y-73734740D01*
G36*
X131997060Y-74134740D02*
G01*
X130716100Y-74134740D01*
X130716100Y-73954080D01*
X131997060Y-73954080D01*
X131997060Y-74134740D01*
X131997060Y-74134740D01*
G37*
X131997060Y-74134740D02*
X130716100Y-74134740D01*
X130716100Y-73954080D01*
X131997060Y-73954080D01*
X131997060Y-74134740D01*
G36*
X131997060Y-74534740D02*
G01*
X130716100Y-74534740D01*
X130716100Y-74354080D01*
X131997060Y-74354080D01*
X131997060Y-74534740D01*
X131997060Y-74534740D01*
G37*
X131997060Y-74534740D02*
X130716100Y-74534740D01*
X130716100Y-74354080D01*
X131997060Y-74354080D01*
X131997060Y-74534740D01*
G36*
X131997060Y-74934740D02*
G01*
X130716100Y-74934740D01*
X130716100Y-74754080D01*
X131997060Y-74754080D01*
X131997060Y-74934740D01*
X131997060Y-74934740D01*
G37*
X131997060Y-74934740D02*
X130716100Y-74934740D01*
X130716100Y-74754080D01*
X131997060Y-74754080D01*
X131997060Y-74934740D01*
G36*
X131997060Y-75334740D02*
G01*
X130716100Y-75334740D01*
X130716100Y-75154080D01*
X131997060Y-75154080D01*
X131997060Y-75334740D01*
X131997060Y-75334740D01*
G37*
X131997060Y-75334740D02*
X130716100Y-75334740D01*
X130716100Y-75154080D01*
X131997060Y-75154080D01*
X131997060Y-75334740D01*
G36*
X130442060Y-71176320D02*
G01*
X129165200Y-71176320D01*
X129165200Y-71054080D01*
X130442060Y-71054080D01*
X130442060Y-71176320D01*
X130442060Y-71176320D01*
G37*
X130442060Y-71176320D02*
X129165200Y-71176320D01*
X129165200Y-71054080D01*
X130442060Y-71054080D01*
X130442060Y-71176320D01*
G36*
X130442060Y-71476320D02*
G01*
X129165200Y-71476320D01*
X129165200Y-71354080D01*
X130442060Y-71354080D01*
X130442060Y-71476320D01*
X130442060Y-71476320D01*
G37*
X130442060Y-71476320D02*
X129165200Y-71476320D01*
X129165200Y-71354080D01*
X130442060Y-71354080D01*
X130442060Y-71476320D01*
G36*
X130442060Y-71776320D02*
G01*
X129165200Y-71776320D01*
X129165200Y-71654080D01*
X130442060Y-71654080D01*
X130442060Y-71776320D01*
X130442060Y-71776320D01*
G37*
X130442060Y-71776320D02*
X129165200Y-71776320D01*
X129165200Y-71654080D01*
X130442060Y-71654080D01*
X130442060Y-71776320D01*
G36*
X130442060Y-72076320D02*
G01*
X129165200Y-72076320D01*
X129165200Y-71954080D01*
X130442060Y-71954080D01*
X130442060Y-72076320D01*
X130442060Y-72076320D01*
G37*
X130442060Y-72076320D02*
X129165200Y-72076320D01*
X129165200Y-71954080D01*
X130442060Y-71954080D01*
X130442060Y-72076320D01*
G36*
X130442060Y-72376320D02*
G01*
X129165200Y-72376320D01*
X129165200Y-72254080D01*
X130442060Y-72254080D01*
X130442060Y-72376320D01*
X130442060Y-72376320D01*
G37*
X130442060Y-72376320D02*
X129165200Y-72376320D01*
X129165200Y-72254080D01*
X130442060Y-72254080D01*
X130442060Y-72376320D01*
G36*
X130442060Y-72676320D02*
G01*
X129165200Y-72676320D01*
X129165200Y-72554080D01*
X130442060Y-72554080D01*
X130442060Y-72676320D01*
X130442060Y-72676320D01*
G37*
X130442060Y-72676320D02*
X129165200Y-72676320D01*
X129165200Y-72554080D01*
X130442060Y-72554080D01*
X130442060Y-72676320D01*
G36*
X130442060Y-72976320D02*
G01*
X129165200Y-72976320D01*
X129165200Y-72854080D01*
X130442060Y-72854080D01*
X130442060Y-72976320D01*
X130442060Y-72976320D01*
G37*
X130442060Y-72976320D02*
X129165200Y-72976320D01*
X129165200Y-72854080D01*
X130442060Y-72854080D01*
X130442060Y-72976320D01*
G36*
X130442060Y-73276320D02*
G01*
X129165200Y-73276320D01*
X129165200Y-73154080D01*
X130442060Y-73154080D01*
X130442060Y-73276320D01*
X130442060Y-73276320D01*
G37*
X130442060Y-73276320D02*
X129165200Y-73276320D01*
X129165200Y-73154080D01*
X130442060Y-73154080D01*
X130442060Y-73276320D01*
G36*
X130442060Y-73576320D02*
G01*
X129165200Y-73576320D01*
X129165200Y-73454080D01*
X130442060Y-73454080D01*
X130442060Y-73576320D01*
X130442060Y-73576320D01*
G37*
X130442060Y-73576320D02*
X129165200Y-73576320D01*
X129165200Y-73454080D01*
X130442060Y-73454080D01*
X130442060Y-73576320D01*
G36*
X130442060Y-73876320D02*
G01*
X129165200Y-73876320D01*
X129165200Y-73754080D01*
X130442060Y-73754080D01*
X130442060Y-73876320D01*
X130442060Y-73876320D01*
G37*
X130442060Y-73876320D02*
X129165200Y-73876320D01*
X129165200Y-73754080D01*
X130442060Y-73754080D01*
X130442060Y-73876320D01*
G36*
X130442060Y-74176320D02*
G01*
X129165200Y-74176320D01*
X129165200Y-74054080D01*
X130442060Y-74054080D01*
X130442060Y-74176320D01*
X130442060Y-74176320D01*
G37*
X130442060Y-74176320D02*
X129165200Y-74176320D01*
X129165200Y-74054080D01*
X130442060Y-74054080D01*
X130442060Y-74176320D01*
G36*
X130442060Y-74476320D02*
G01*
X129165200Y-74476320D01*
X129165200Y-74354080D01*
X130442060Y-74354080D01*
X130442060Y-74476320D01*
X130442060Y-74476320D01*
G37*
X130442060Y-74476320D02*
X129165200Y-74476320D01*
X129165200Y-74354080D01*
X130442060Y-74354080D01*
X130442060Y-74476320D01*
G36*
X130442060Y-74776320D02*
G01*
X129165200Y-74776320D01*
X129165200Y-74654080D01*
X130442060Y-74654080D01*
X130442060Y-74776320D01*
X130442060Y-74776320D01*
G37*
X130442060Y-74776320D02*
X129165200Y-74776320D01*
X129165200Y-74654080D01*
X130442060Y-74654080D01*
X130442060Y-74776320D01*
G36*
X130442060Y-75076320D02*
G01*
X129165200Y-75076320D01*
X129165200Y-74954080D01*
X130442060Y-74954080D01*
X130442060Y-75076320D01*
X130442060Y-75076320D01*
G37*
X130442060Y-75076320D02*
X129165200Y-75076320D01*
X129165200Y-74954080D01*
X130442060Y-74954080D01*
X130442060Y-75076320D01*
G36*
X130442060Y-75376320D02*
G01*
X129165200Y-75376320D01*
X129165200Y-75254080D01*
X130442060Y-75254080D01*
X130442060Y-75376320D01*
X130442060Y-75376320D01*
G37*
X130442060Y-75376320D02*
X129165200Y-75376320D01*
X129165200Y-75254080D01*
X130442060Y-75254080D01*
X130442060Y-75376320D01*
M02*
