G04 #@! TF.GenerationSoftware,KiCad,Pcbnew,(5.1.4)-1*
G04 #@! TF.CreationDate,2019-10-24T19:13:58-04:00*
G04 #@! TF.ProjectId,business card,62757369-6e65-4737-9320-636172642e6b,rev?*
G04 #@! TF.SameCoordinates,Original*
G04 #@! TF.FileFunction,Soldermask,Top*
G04 #@! TF.FilePolarity,Negative*
%FSLAX46Y46*%
G04 Gerber Fmt 4.6, Leading zero omitted, Abs format (unit mm)*
G04 Created by KiCad (PCBNEW (5.1.4)-1) date 2019-10-24 19:13:58*
%MOMM*%
%LPD*%
G04 APERTURE LIST*
%ADD10C,0.250000*%
%ADD11C,0.150000*%
%ADD12C,0.010000*%
%ADD13C,1.900000*%
%ADD14O,1.600000X1.600000*%
%ADD15O,2.000000X1.600000*%
%ADD16R,2.000000X2.000000*%
%ADD17O,2.000000X2.000000*%
G04 APERTURE END LIST*
D10*
X81394020Y-85781140D02*
X80794580Y-86383120D01*
X81394020Y-87180680D02*
X81993460Y-86581240D01*
X81392000Y-88898700D02*
X81392000Y-87182700D01*
X54705000Y-88898700D02*
X81392000Y-88898700D01*
X54703140Y-62197520D02*
X54703140Y-88898700D01*
X81394020Y-85781140D02*
X81394020Y-62197520D01*
X81393000Y-62197520D02*
X54702860Y-62197520D01*
X84391500Y-61864500D02*
X84391500Y-87381340D01*
X83794600Y-87178140D02*
X83794600Y-61864500D01*
X83197700Y-61877200D02*
X83197700Y-86974940D01*
X81993460Y-86581240D02*
X81993460Y-61897800D01*
X82588100Y-86781900D02*
X82588100Y-61877200D01*
X84978240Y-88382100D02*
X85293200Y-88382100D01*
X84394040Y-88966300D02*
G75*
G02X84978240Y-88382100I584200J0D01*
G01*
X82588100Y-86781900D02*
X81991200Y-87378800D01*
X83197700Y-86974940D02*
X82600800Y-87571840D01*
X83794600Y-87178140D02*
X83195160Y-87777580D01*
X84391500Y-87381340D02*
X83794600Y-87980780D01*
X81711800Y-60391300D02*
G75*
G02X83197700Y-61877200I0J-1485900D01*
G01*
X81711800Y-61000900D02*
G75*
G02X82588100Y-61877200I0J-876300D01*
G01*
X81711800Y-61597800D02*
G75*
G02X81991200Y-61877200I0J-279400D01*
G01*
X81724500Y-59794400D02*
G75*
G02X83794600Y-61864500I0J-2070100D01*
G01*
X81724500Y-59197500D02*
G75*
G02X84391500Y-61864500I0J-2667000D01*
G01*
X54381400Y-59197500D02*
X81699100Y-59197500D01*
X54381400Y-59794400D02*
X81724500Y-59794400D01*
X54381400Y-60391300D02*
X81711800Y-60391300D01*
X54381400Y-61000900D02*
X81711800Y-61000900D01*
X54381400Y-61597800D02*
X81711800Y-61597800D01*
X51701700Y-89207600D02*
X51701700Y-61928000D01*
X52298600Y-61877200D02*
X52298600Y-89140000D01*
X52908200Y-89182200D02*
X52908200Y-61928000D01*
X53505100Y-61877200D02*
X53505100Y-89190000D01*
X54102000Y-89182200D02*
X54102000Y-61928000D01*
X54102000Y-61877200D02*
G75*
G02X54381400Y-61597800I279400J0D01*
G01*
X53505100Y-61877200D02*
G75*
G02X54381400Y-61000900I876300J0D01*
G01*
X52905660Y-61884820D02*
G75*
G02X54391560Y-60398920I1485900J0D01*
G01*
X52298600Y-61877200D02*
G75*
G02X54381400Y-59794400I2082800J0D01*
G01*
X51701700Y-61877200D02*
G75*
G02X54381400Y-59197500I2679700J0D01*
G01*
X54394100Y-91900000D02*
G75*
G02X51701700Y-89207600I0J2692400D01*
G01*
X54367401Y-91291530D02*
G75*
G02X52310000Y-89210000I26699J2083930D01*
G01*
X54368700Y-90693500D02*
G75*
G02X52908200Y-89182200I25400J1485900D01*
G01*
X54368700Y-90096600D02*
G75*
G02X53505100Y-89182200I25400J889000D01*
G01*
X54368700Y-89499700D02*
G75*
G02X54102000Y-89182200I25400J292100D01*
G01*
X83794520Y-89238080D02*
X83794520Y-87985600D01*
X81724500Y-91894041D02*
X54356000Y-91894041D01*
X81727001Y-91295480D02*
X54356000Y-91295480D01*
X81716826Y-90696094D02*
X54356000Y-90696094D01*
X81719420Y-90094060D02*
X54356000Y-90094060D01*
X81706720Y-89492080D02*
X54356000Y-89492080D01*
X81993318Y-89245228D02*
X81993318Y-87376000D01*
X82595560Y-89233000D02*
X82595560Y-87579200D01*
X83190080Y-89222840D02*
X83190080Y-87782400D01*
X81983318Y-89245228D02*
G75*
G02X81706720Y-89492080I-263898J17308D01*
G01*
X82585560Y-89233000D02*
G75*
G02X81719420Y-90094060I-863600J2540D01*
G01*
X83190080Y-89222840D02*
G75*
G02X81716826Y-90696094I-1473254J0D01*
G01*
X83789520Y-89238080D02*
G75*
G02X81732081Y-91295519I-2057439J0D01*
G01*
X84390704Y-89161880D02*
G75*
G02X81724500Y-91894041I-2666204J-65161D01*
G01*
X84391500Y-89000000D02*
X84391500Y-89169500D01*
D11*
X80299360Y-50888891D02*
X80299360Y-53431440D01*
X79299360Y-50888891D02*
X79299360Y-53431440D01*
X78299360Y-50888891D02*
X78299360Y-53431440D01*
X77299360Y-50888891D02*
X77299360Y-53431440D01*
X76299360Y-50888891D02*
X76299360Y-53431440D01*
X75299360Y-50888891D02*
X75299360Y-53431440D01*
X74299360Y-50888891D02*
X74299360Y-53431440D01*
X73299360Y-50888891D02*
X73299360Y-53431440D01*
X72299360Y-50888891D02*
X72299360Y-53431440D01*
X71299360Y-50888891D02*
X71299360Y-53431440D01*
X70299360Y-50888891D02*
X70299360Y-53431440D01*
X69299360Y-50888891D02*
X69299360Y-53431440D01*
X68299360Y-50888891D02*
X68299360Y-53431440D01*
X67299360Y-50888891D02*
X67299360Y-53431440D01*
X66299360Y-50888891D02*
X66299360Y-53431440D01*
X65299360Y-50888891D02*
X65299360Y-53431440D01*
X64299360Y-50888891D02*
X64299360Y-53431440D01*
X63299360Y-50888891D02*
X63299360Y-53431440D01*
X62299360Y-50888891D02*
X62299360Y-53431440D01*
X61299360Y-50888891D02*
X61299360Y-53431440D01*
X60299360Y-50888891D02*
X60299360Y-53431440D01*
X59299360Y-50888891D02*
X59299360Y-53431440D01*
X58299360Y-50888891D02*
X58299360Y-53431440D01*
X57299360Y-50888891D02*
X57299360Y-53431440D01*
X56299360Y-50888891D02*
X56299360Y-53431440D01*
X55299360Y-50888891D02*
X55299360Y-53431440D01*
X54299360Y-50888891D02*
X54299360Y-53431440D01*
X51299360Y-51597560D02*
X51299360Y-53431440D01*
X52299360Y-50888891D02*
X52299360Y-53431440D01*
X53299360Y-50888891D02*
X53299360Y-53431440D01*
D10*
X60800480Y-50888900D02*
X60800480Y-57622440D01*
X70800480Y-50888900D02*
X70800480Y-57622440D01*
X130800480Y-50888900D02*
X130800480Y-57622440D01*
X120800480Y-50888900D02*
X120800480Y-57622440D01*
X110800480Y-50888900D02*
X110800480Y-57622440D01*
X100800480Y-50888900D02*
X100800480Y-57622440D01*
X90800480Y-50888900D02*
X90800480Y-57622440D01*
X80800480Y-50888900D02*
X80800480Y-57622440D01*
X135800480Y-50888900D02*
X135800480Y-55336442D01*
X125800480Y-50888900D02*
X125800480Y-55336442D01*
X115800480Y-50888900D02*
X115800480Y-55336442D01*
X105800480Y-50888900D02*
X105800480Y-55336442D01*
X95800480Y-50888900D02*
X95800480Y-55336442D01*
X85800480Y-50888900D02*
X85800480Y-55336442D01*
X75800480Y-50888900D02*
X75800480Y-55336442D01*
X55800480Y-50888900D02*
X55800480Y-55336442D01*
X59800480Y-50888900D02*
X59800480Y-54320440D01*
X58800480Y-50888900D02*
X58800480Y-54320440D01*
X57800480Y-50888900D02*
X57800480Y-54320440D01*
X56800480Y-50888900D02*
X56800480Y-54320440D01*
X54800480Y-50888900D02*
X54800480Y-54320440D01*
X53800480Y-50888900D02*
X53800480Y-54320440D01*
X52800480Y-50888900D02*
X52800480Y-54320440D01*
X51800480Y-51198779D02*
X51800480Y-54320440D01*
X131800480Y-50888900D02*
X131800480Y-54320440D01*
X121800480Y-50888900D02*
X121800480Y-54320440D01*
X111800480Y-50888900D02*
X111800480Y-54320440D01*
X101800480Y-50888900D02*
X101800480Y-54320440D01*
X91800480Y-50888900D02*
X91800480Y-54320440D01*
X81800480Y-50888900D02*
X81800480Y-54320440D01*
X71800480Y-50888900D02*
X71800480Y-54320440D01*
X132800480Y-50888900D02*
X132800480Y-54320440D01*
X122800480Y-50888900D02*
X122800480Y-54320440D01*
X112800480Y-50888900D02*
X112800480Y-54320440D01*
X102800480Y-50888900D02*
X102800480Y-54320440D01*
X92800480Y-50888900D02*
X92800480Y-54320440D01*
X82800480Y-50888900D02*
X82800480Y-54320440D01*
X72800480Y-50888900D02*
X72800480Y-54320440D01*
X133800480Y-50888900D02*
X133800480Y-54320440D01*
X123800480Y-50888900D02*
X123800480Y-54320440D01*
X113800480Y-50888900D02*
X113800480Y-54320440D01*
X103800480Y-50888900D02*
X103800480Y-54320440D01*
X93800480Y-50888900D02*
X93800480Y-54320440D01*
X83800480Y-50888900D02*
X83800480Y-54320440D01*
X73800480Y-50888900D02*
X73800480Y-54320440D01*
X61800480Y-50888900D02*
X61800480Y-54320440D01*
X62800480Y-50888900D02*
X62800480Y-54320440D01*
X63800480Y-50888900D02*
X63800480Y-54320440D01*
X134800480Y-50888900D02*
X134800480Y-54320440D01*
X124800480Y-50888900D02*
X124800480Y-54320440D01*
X114800480Y-50888900D02*
X114800480Y-54320440D01*
X104800480Y-50888900D02*
X104800480Y-54320440D01*
X94800480Y-50888900D02*
X94800480Y-54320440D01*
X84800480Y-50888900D02*
X84800480Y-54320440D01*
X74800480Y-50888900D02*
X74800480Y-54320440D01*
X136800480Y-50888900D02*
X136800480Y-54320440D01*
X126800480Y-50888900D02*
X126800480Y-54320440D01*
X116800480Y-50888900D02*
X116800480Y-54320440D01*
X106800480Y-50888900D02*
X106800480Y-54320440D01*
X96800480Y-50888900D02*
X96800480Y-54320440D01*
X86800480Y-50888900D02*
X86800480Y-54320440D01*
X76800480Y-50888900D02*
X76800480Y-54320440D01*
X137800480Y-50888900D02*
X137800480Y-54320440D01*
X127800480Y-50888900D02*
X127800480Y-54320440D01*
X117800480Y-50888900D02*
X117800480Y-54320440D01*
X107800480Y-50888900D02*
X107800480Y-54320440D01*
X97800480Y-50888900D02*
X97800480Y-54320440D01*
X87800480Y-50888900D02*
X87800480Y-54320440D01*
X77800480Y-50888900D02*
X77800480Y-54320440D01*
X138800480Y-50987944D02*
X138800480Y-54320440D01*
X128800480Y-50888900D02*
X128800480Y-54320440D01*
X118800480Y-50888900D02*
X118800480Y-54320440D01*
X108800480Y-50888900D02*
X108800480Y-54320440D01*
X98800480Y-50888900D02*
X98800480Y-54320440D01*
X88800480Y-50888900D02*
X88800480Y-54320440D01*
X78800480Y-50888900D02*
X78800480Y-54320440D01*
X139800480Y-51777898D02*
X139800480Y-54320440D01*
X129800480Y-50888900D02*
X129800480Y-54320440D01*
X119800480Y-50888900D02*
X119800480Y-54320440D01*
X109800480Y-50888900D02*
X109800480Y-54320440D01*
X99800480Y-50888900D02*
X99800480Y-54320440D01*
X89800480Y-50888900D02*
X89800480Y-54320440D01*
X79800480Y-50888900D02*
X79800480Y-54320440D01*
X69800480Y-50888900D02*
X69800480Y-54320440D01*
X68800480Y-50888900D02*
X68800480Y-54320440D01*
X67800480Y-50888900D02*
X67800480Y-54320440D01*
X66800480Y-50888900D02*
X66800480Y-54320440D01*
X65800480Y-50888900D02*
X65800480Y-55336442D01*
X64800480Y-50888900D02*
X64800480Y-54320440D01*
X127000000Y-101731100D02*
X127000000Y-93468480D01*
X101600000Y-101731100D02*
X101600000Y-93468480D01*
X76200000Y-101731100D02*
X76200000Y-93468480D01*
X139700000Y-101010000D02*
X139700000Y-95055980D01*
X114300000Y-101731100D02*
X114300000Y-95055980D01*
X88900000Y-101731100D02*
X88900000Y-95055980D01*
X63500000Y-101731100D02*
X63500000Y-95055980D01*
X133350000Y-101731100D02*
X133350000Y-96262480D01*
X120650000Y-101731100D02*
X120650000Y-96262480D01*
X107950000Y-101731100D02*
X107950000Y-96262480D01*
X95250000Y-101731100D02*
X95250000Y-96262480D01*
X82550000Y-101731100D02*
X82550000Y-96262480D01*
X69850000Y-101731100D02*
X69850000Y-96262480D01*
X57150000Y-101731100D02*
X57150000Y-96262480D01*
X136525000Y-101731100D02*
X136525000Y-97532330D01*
X130175000Y-101731100D02*
X130175000Y-97532330D01*
X123825000Y-101731100D02*
X123825000Y-97532330D01*
X117475000Y-101731100D02*
X117475000Y-97532330D01*
X111125000Y-101731100D02*
X111125000Y-97532330D01*
X104775000Y-101731100D02*
X104775000Y-97532330D01*
X98425000Y-101731100D02*
X98425000Y-97532330D01*
X92075000Y-101731100D02*
X92075000Y-97532330D01*
X85725000Y-101731100D02*
X85725000Y-97532330D01*
X79375000Y-101731100D02*
X79375000Y-97532330D01*
X73025000Y-101731100D02*
X73025000Y-97532330D01*
X66675000Y-101731100D02*
X66675000Y-97532330D01*
X60325000Y-101731100D02*
X60325000Y-97532330D01*
X53975000Y-101731100D02*
X53975000Y-97532330D01*
X51592480Y-99437480D02*
X51592480Y-101310000D01*
X100804980Y-99437480D02*
X100804980Y-101728560D01*
X99217480Y-99437480D02*
X99217480Y-101728560D01*
X97629980Y-99437480D02*
X97629980Y-101728560D01*
X96042480Y-99437480D02*
X96042480Y-101728560D01*
X94454980Y-99437480D02*
X94454980Y-101728560D01*
X92867480Y-99437480D02*
X92867480Y-101728560D01*
X91279980Y-99437480D02*
X91279980Y-101728560D01*
X89692480Y-99437480D02*
X89692480Y-101728560D01*
X88104980Y-99437480D02*
X88104980Y-101728560D01*
X86517480Y-99437480D02*
X86517480Y-101728560D01*
X84929980Y-99437480D02*
X84929980Y-101728560D01*
X83342480Y-99437480D02*
X83342480Y-101728560D01*
X81754980Y-99437480D02*
X81754980Y-101728560D01*
X80167480Y-99437480D02*
X80167480Y-101728560D01*
X78579980Y-99437480D02*
X78579980Y-101728560D01*
X76992480Y-99437480D02*
X76992480Y-101728560D01*
X75404980Y-99437480D02*
X75404980Y-101728560D01*
X73817480Y-99437480D02*
X73817480Y-101728560D01*
X72229980Y-99437480D02*
X72229980Y-101728560D01*
X70642480Y-99437480D02*
X70642480Y-101728560D01*
X69054980Y-99437480D02*
X69054980Y-101728560D01*
X67467480Y-99437480D02*
X67467480Y-101728560D01*
X65879980Y-99437480D02*
X65879980Y-101728560D01*
X64292480Y-99437480D02*
X64292480Y-101728560D01*
X62704980Y-99437480D02*
X62704980Y-101728560D01*
X61117480Y-99437480D02*
X61117480Y-101728560D01*
X59529980Y-99437480D02*
X59529980Y-101728560D01*
X57942480Y-99437480D02*
X57942480Y-101728560D01*
X56354980Y-99437480D02*
X56354980Y-101728560D01*
X54767480Y-99437480D02*
X54767480Y-101728560D01*
X53179980Y-99437480D02*
X53179980Y-101728560D01*
X52387500Y-101700000D02*
X52387500Y-98352900D01*
X55562500Y-101731100D02*
X55562500Y-98352900D01*
X138112500Y-101731100D02*
X138112500Y-98352900D01*
X134937500Y-101731100D02*
X134937500Y-98352900D01*
X131762500Y-101731100D02*
X131762500Y-98352900D01*
X128587500Y-101731100D02*
X128587500Y-98352900D01*
X125412500Y-101731100D02*
X125412500Y-98352900D01*
X122237500Y-101731100D02*
X122237500Y-98352900D01*
X119062500Y-101731100D02*
X119062500Y-98352900D01*
X115887500Y-101731100D02*
X115887500Y-98352900D01*
X112712500Y-101731100D02*
X112712500Y-98352900D01*
X109537500Y-101731100D02*
X109537500Y-98352900D01*
X106362500Y-101731100D02*
X106362500Y-98352900D01*
X103187500Y-101731100D02*
X103187500Y-98352900D01*
X100012500Y-101731100D02*
X100012500Y-98352900D01*
X96837500Y-101731100D02*
X96837500Y-98352900D01*
X93662500Y-101731100D02*
X93662500Y-98352900D01*
X90487500Y-101731100D02*
X90487500Y-98352900D01*
X87312500Y-101731100D02*
X87312500Y-98352900D01*
X84137500Y-101731100D02*
X84137500Y-98352900D01*
X80962500Y-101731100D02*
X80962500Y-98352900D01*
X77787500Y-101731100D02*
X77787500Y-98352900D01*
X74612500Y-101731100D02*
X74612500Y-98352900D01*
X71437500Y-101731100D02*
X71437500Y-98352900D01*
X68262500Y-101731100D02*
X68262500Y-98352900D01*
X65087500Y-101731100D02*
X65087500Y-98352900D01*
X61912500Y-101731100D02*
X61912500Y-98352900D01*
X134937500Y-101731100D02*
X134937500Y-98352900D01*
X128587500Y-101731100D02*
X128587500Y-98352900D01*
X122237500Y-101731100D02*
X122237500Y-98352900D01*
X115887500Y-101731100D02*
X115887500Y-98352900D01*
X109537500Y-101731100D02*
X109537500Y-98352900D01*
X103187500Y-101731100D02*
X103187500Y-98352900D01*
X96837500Y-101731100D02*
X96837500Y-98352900D01*
X90487500Y-101731100D02*
X90487500Y-98352900D01*
X84137500Y-101731100D02*
X84137500Y-98352900D01*
X77787500Y-101731100D02*
X77787500Y-98352900D01*
X71437500Y-101731100D02*
X71437500Y-98352900D01*
X65087500Y-101731100D02*
X65087500Y-98352900D01*
X58737500Y-101731100D02*
X58737500Y-98352900D01*
D12*
G36*
X102907100Y-87119054D02*
G01*
X102917965Y-87232993D01*
X102949582Y-87340616D01*
X103000485Y-87439615D01*
X103069207Y-87527684D01*
X103154281Y-87602516D01*
X103251268Y-87660384D01*
X103357536Y-87700005D01*
X103464550Y-87718573D01*
X103570200Y-87717434D01*
X103672375Y-87697930D01*
X103768966Y-87661406D01*
X103857862Y-87609205D01*
X103936954Y-87542673D01*
X104004131Y-87463152D01*
X104057283Y-87371987D01*
X104094301Y-87270523D01*
X104113073Y-87160102D01*
X104115011Y-87110206D01*
X104115011Y-87022267D01*
X104166940Y-87022267D01*
X104203247Y-87025111D01*
X104230145Y-87036911D01*
X104257251Y-87060649D01*
X104295633Y-87099031D01*
X104295633Y-89290602D01*
X104295624Y-89552739D01*
X104295592Y-89793241D01*
X104295528Y-90013048D01*
X104295424Y-90213101D01*
X104295273Y-90394344D01*
X104295066Y-90557716D01*
X104294794Y-90704160D01*
X104294450Y-90834617D01*
X104294026Y-90950029D01*
X104293513Y-91051338D01*
X104292903Y-91139484D01*
X104292188Y-91215410D01*
X104291360Y-91280057D01*
X104290411Y-91334367D01*
X104289333Y-91379280D01*
X104288117Y-91415740D01*
X104286755Y-91444687D01*
X104285239Y-91467063D01*
X104283562Y-91483809D01*
X104281714Y-91495868D01*
X104279687Y-91504180D01*
X104277475Y-91509687D01*
X104276392Y-91511537D01*
X104272229Y-91518549D01*
X104268695Y-91524996D01*
X104264865Y-91530900D01*
X104259818Y-91536286D01*
X104252629Y-91541178D01*
X104242377Y-91545598D01*
X104228136Y-91549572D01*
X104208986Y-91553121D01*
X104184001Y-91556270D01*
X104152260Y-91559042D01*
X104112838Y-91561461D01*
X104064814Y-91563551D01*
X104007263Y-91565335D01*
X103939263Y-91566837D01*
X103859890Y-91568080D01*
X103768221Y-91569089D01*
X103663334Y-91569885D01*
X103544304Y-91570494D01*
X103410210Y-91570939D01*
X103260127Y-91571243D01*
X103093133Y-91571430D01*
X102908304Y-91571524D01*
X102704717Y-91571548D01*
X102481450Y-91571525D01*
X102237578Y-91571480D01*
X101972179Y-91571437D01*
X101933796Y-91571432D01*
X101666818Y-91571389D01*
X101421498Y-91571318D01*
X101196917Y-91571213D01*
X100992155Y-91571066D01*
X100806294Y-91570869D01*
X100638412Y-91570616D01*
X100487592Y-91570300D01*
X100352913Y-91569913D01*
X100233456Y-91569447D01*
X100128301Y-91568897D01*
X100036529Y-91568253D01*
X99957221Y-91567511D01*
X99889457Y-91566661D01*
X99832318Y-91565697D01*
X99784883Y-91564611D01*
X99746234Y-91563397D01*
X99715451Y-91562047D01*
X99691615Y-91560555D01*
X99673806Y-91558911D01*
X99661105Y-91557111D01*
X99652592Y-91555145D01*
X99648234Y-91553477D01*
X99639772Y-91549906D01*
X99632003Y-91547270D01*
X99624898Y-91544634D01*
X99618427Y-91541062D01*
X99612561Y-91535621D01*
X99607271Y-91527375D01*
X99602526Y-91515390D01*
X99598298Y-91498731D01*
X99594557Y-91476463D01*
X99591273Y-91447652D01*
X99588417Y-91411363D01*
X99585960Y-91366661D01*
X99583871Y-91312611D01*
X99582122Y-91248279D01*
X99580683Y-91172730D01*
X99579524Y-91085030D01*
X99578617Y-90984243D01*
X99577931Y-90869434D01*
X99577437Y-90739670D01*
X99577105Y-90594015D01*
X99576907Y-90431535D01*
X99576813Y-90251295D01*
X99576792Y-90052360D01*
X99576815Y-89833796D01*
X99576854Y-89594668D01*
X99576878Y-89334040D01*
X99576878Y-89291889D01*
X99576864Y-89028992D01*
X99576839Y-88787732D01*
X99576829Y-88567165D01*
X99576858Y-88366352D01*
X99576952Y-88184349D01*
X99577138Y-88020216D01*
X99577441Y-87873011D01*
X99577886Y-87741792D01*
X99578466Y-87631867D01*
X99881303Y-87631867D01*
X99921093Y-87689711D01*
X99932264Y-87705479D01*
X99942334Y-87719441D01*
X99951362Y-87732784D01*
X99959403Y-87746693D01*
X99966514Y-87762356D01*
X99972753Y-87780958D01*
X99978175Y-87803686D01*
X99982838Y-87831727D01*
X99986799Y-87866267D01*
X99990115Y-87908492D01*
X99992841Y-87959589D01*
X99995036Y-88020744D01*
X99996755Y-88093144D01*
X99998056Y-88177975D01*
X99998995Y-88276422D01*
X99999630Y-88389674D01*
X100000016Y-88518916D01*
X100000212Y-88665334D01*
X100000273Y-88830116D01*
X100000257Y-89014447D01*
X100000220Y-89219513D01*
X100000211Y-89342133D01*
X100000235Y-89559082D01*
X100000269Y-89754642D01*
X100000257Y-89929999D01*
X100000142Y-90086341D01*
X99999870Y-90224857D01*
X99999382Y-90346734D01*
X99998624Y-90453160D01*
X99997538Y-90545322D01*
X99996069Y-90624409D01*
X99994160Y-90691608D01*
X99991756Y-90748107D01*
X99988799Y-90795093D01*
X99985234Y-90833755D01*
X99981005Y-90865280D01*
X99976054Y-90890855D01*
X99970327Y-90911670D01*
X99963767Y-90928911D01*
X99956317Y-90943765D01*
X99947921Y-90957422D01*
X99938524Y-90971069D01*
X99928068Y-90985893D01*
X99921977Y-90994783D01*
X99883204Y-91052400D01*
X100414768Y-91052400D01*
X100538017Y-91052365D01*
X100640513Y-91052215D01*
X100724080Y-91051878D01*
X100790544Y-91051286D01*
X100841729Y-91050367D01*
X100879459Y-91049051D01*
X100905560Y-91047269D01*
X100921856Y-91044951D01*
X100930172Y-91042026D01*
X100932332Y-91038424D01*
X100930161Y-91034075D01*
X100928965Y-91032645D01*
X100903815Y-90995573D01*
X100877917Y-90942772D01*
X100854308Y-90880770D01*
X100846039Y-90854357D01*
X100841422Y-90836416D01*
X100837521Y-90815355D01*
X100834252Y-90789089D01*
X100831534Y-90755532D01*
X100829285Y-90712599D01*
X100827423Y-90658204D01*
X100825864Y-90590262D01*
X100824528Y-90506688D01*
X100823331Y-90405395D01*
X100822192Y-90284300D01*
X100821815Y-90239600D01*
X100820798Y-90114449D01*
X100820040Y-90010082D01*
X100819597Y-89924707D01*
X100819530Y-89856533D01*
X100819895Y-89803765D01*
X100820752Y-89764614D01*
X100822159Y-89737285D01*
X100824175Y-89719986D01*
X100826857Y-89710926D01*
X100830264Y-89708312D01*
X100834456Y-89710351D01*
X100838929Y-89714667D01*
X100849284Y-89727602D01*
X100871342Y-89756676D01*
X100903543Y-89799759D01*
X100944326Y-89854718D01*
X100992130Y-89919423D01*
X101045395Y-89991742D01*
X101102560Y-90069544D01*
X101162063Y-90150698D01*
X101222345Y-90233072D01*
X101281845Y-90314536D01*
X101339002Y-90392957D01*
X101392255Y-90466204D01*
X101440043Y-90532147D01*
X101480807Y-90588654D01*
X101512984Y-90633593D01*
X101535015Y-90664834D01*
X101539583Y-90671466D01*
X101562504Y-90708369D01*
X101589312Y-90756359D01*
X101614711Y-90805897D01*
X101617932Y-90812577D01*
X101639610Y-90860772D01*
X101652196Y-90898334D01*
X101657926Y-90934160D01*
X101659044Y-90976200D01*
X101658410Y-91052400D01*
X102812849Y-91052400D01*
X102721685Y-90958669D01*
X102674888Y-90908775D01*
X102624601Y-90852295D01*
X102578556Y-90798026D01*
X102558131Y-90772673D01*
X102527693Y-90733128D01*
X102487638Y-90679916D01*
X102439139Y-90614667D01*
X102383365Y-90539011D01*
X102321489Y-90454577D01*
X102254681Y-90362994D01*
X102184113Y-90265892D01*
X102110955Y-90164901D01*
X102036379Y-90061650D01*
X101961556Y-89957768D01*
X101887657Y-89854885D01*
X101815854Y-89754631D01*
X101747316Y-89658636D01*
X101683216Y-89568527D01*
X101624725Y-89485936D01*
X101573014Y-89412492D01*
X101529253Y-89349824D01*
X101494615Y-89299561D01*
X101470270Y-89263334D01*
X101457389Y-89242771D01*
X101455631Y-89238668D01*
X101463590Y-89227342D01*
X101484385Y-89200162D01*
X101516653Y-89158829D01*
X101559030Y-89105044D01*
X101610153Y-89040506D01*
X101668659Y-88966918D01*
X101733186Y-88885978D01*
X101802369Y-88799388D01*
X101874847Y-88708848D01*
X101949254Y-88616060D01*
X102008983Y-88541702D01*
X103019989Y-88541702D01*
X103025898Y-88554659D01*
X103040228Y-88576908D01*
X103041275Y-88578391D01*
X103060062Y-88608544D01*
X103079709Y-88645375D01*
X103083608Y-88653511D01*
X103087144Y-88661940D01*
X103090270Y-88672059D01*
X103093014Y-88685260D01*
X103095408Y-88702938D01*
X103097481Y-88726484D01*
X103099265Y-88757293D01*
X103100788Y-88796757D01*
X103102081Y-88846269D01*
X103103174Y-88907223D01*
X103104097Y-88981011D01*
X103104881Y-89069028D01*
X103105555Y-89172665D01*
X103106150Y-89293316D01*
X103106695Y-89432374D01*
X103107221Y-89591232D01*
X103107755Y-89770089D01*
X103108294Y-89955207D01*
X103108728Y-90119145D01*
X103108991Y-90263303D01*
X103109016Y-90389079D01*
X103108735Y-90497871D01*
X103108081Y-90591077D01*
X103106986Y-90670097D01*
X103105382Y-90736328D01*
X103103203Y-90791170D01*
X103100381Y-90836021D01*
X103096849Y-90872278D01*
X103092539Y-90901341D01*
X103087383Y-90924609D01*
X103081315Y-90943479D01*
X103074267Y-90959351D01*
X103066171Y-90973622D01*
X103056960Y-90987691D01*
X103048460Y-91000158D01*
X103031324Y-91026452D01*
X103021178Y-91044037D01*
X103019989Y-91047257D01*
X103030896Y-91048334D01*
X103062089Y-91049335D01*
X103111277Y-91050235D01*
X103176167Y-91051010D01*
X103254470Y-91051637D01*
X103343893Y-91052091D01*
X103442144Y-91052349D01*
X103511055Y-91052400D01*
X103616048Y-91052180D01*
X103712890Y-91051548D01*
X103799393Y-91050549D01*
X103873368Y-91049227D01*
X103932626Y-91047626D01*
X103974980Y-91045791D01*
X103998240Y-91043765D01*
X104002122Y-91042493D01*
X103994424Y-91027591D01*
X103986426Y-91019560D01*
X103973254Y-91002434D01*
X103956015Y-90972183D01*
X103944093Y-90947622D01*
X103917455Y-90888711D01*
X103914380Y-89711845D01*
X103911305Y-88534978D01*
X103465647Y-88534978D01*
X103367830Y-88535142D01*
X103277436Y-88535611D01*
X103196870Y-88536347D01*
X103128538Y-88537316D01*
X103074844Y-88538480D01*
X103038195Y-88539803D01*
X103020996Y-88541249D01*
X103019989Y-88541702D01*
X102008983Y-88541702D01*
X102024230Y-88522722D01*
X102098410Y-88430537D01*
X102170431Y-88341204D01*
X102238931Y-88256424D01*
X102302545Y-88177898D01*
X102359912Y-88107326D01*
X102409667Y-88046409D01*
X102450448Y-87996847D01*
X102467612Y-87976178D01*
X102553904Y-87875516D01*
X102630503Y-87792259D01*
X102699317Y-87724438D01*
X102762252Y-87670089D01*
X102771633Y-87662722D01*
X102811144Y-87632117D01*
X101679384Y-87631867D01*
X101684673Y-87679844D01*
X101681370Y-87737188D01*
X101659839Y-87805463D01*
X101619865Y-87885212D01*
X101574557Y-87957495D01*
X101558339Y-87980140D01*
X101530286Y-88017696D01*
X101492070Y-88068021D01*
X101445363Y-88128973D01*
X101391839Y-88198411D01*
X101333169Y-88274194D01*
X101271025Y-88354180D01*
X101207079Y-88436228D01*
X101143005Y-88518196D01*
X101080473Y-88597943D01*
X101021157Y-88673327D01*
X100966729Y-88742207D01*
X100918861Y-88802442D01*
X100879225Y-88851889D01*
X100849494Y-88888408D01*
X100831339Y-88909858D01*
X100828280Y-88913156D01*
X100825421Y-88905149D01*
X100823207Y-88874855D01*
X100821643Y-88822556D01*
X100820733Y-88748531D01*
X100820480Y-88653063D01*
X100820887Y-88536434D01*
X100821796Y-88416445D01*
X100823118Y-88284333D01*
X100824643Y-88172594D01*
X100826619Y-88079025D01*
X100829294Y-88001419D01*
X100832918Y-87937574D01*
X100837739Y-87885283D01*
X100844006Y-87842344D01*
X100851968Y-87806551D01*
X100861873Y-87775700D01*
X100873969Y-87747586D01*
X100888507Y-87720005D01*
X100903189Y-87694966D01*
X100941186Y-87631867D01*
X99881303Y-87631867D01*
X99578466Y-87631867D01*
X99578499Y-87625617D01*
X99579305Y-87523544D01*
X99580330Y-87434633D01*
X99581600Y-87357941D01*
X99583140Y-87292527D01*
X99584976Y-87237449D01*
X99587133Y-87191765D01*
X99589637Y-87154534D01*
X99592513Y-87124813D01*
X99595787Y-87101662D01*
X99599485Y-87084139D01*
X99603631Y-87071301D01*
X99608253Y-87062208D01*
X99613374Y-87055918D01*
X99619022Y-87051488D01*
X99625221Y-87047978D01*
X99631996Y-87044445D01*
X99637992Y-87040876D01*
X99643225Y-87038300D01*
X99651401Y-87035972D01*
X99663614Y-87033878D01*
X99680959Y-87032007D01*
X99704531Y-87030347D01*
X99735423Y-87028884D01*
X99774732Y-87027608D01*
X99823550Y-87026504D01*
X99882973Y-87025561D01*
X99954096Y-87024767D01*
X100038012Y-87024109D01*
X100135817Y-87023575D01*
X100248606Y-87023153D01*
X100377471Y-87022829D01*
X100523509Y-87022592D01*
X100687814Y-87022430D01*
X100871480Y-87022330D01*
X101075603Y-87022280D01*
X101286747Y-87022267D01*
X102907100Y-87022267D01*
X102907100Y-87119054D01*
X102907100Y-87119054D01*
G37*
X102907100Y-87119054D02*
X102917965Y-87232993D01*
X102949582Y-87340616D01*
X103000485Y-87439615D01*
X103069207Y-87527684D01*
X103154281Y-87602516D01*
X103251268Y-87660384D01*
X103357536Y-87700005D01*
X103464550Y-87718573D01*
X103570200Y-87717434D01*
X103672375Y-87697930D01*
X103768966Y-87661406D01*
X103857862Y-87609205D01*
X103936954Y-87542673D01*
X104004131Y-87463152D01*
X104057283Y-87371987D01*
X104094301Y-87270523D01*
X104113073Y-87160102D01*
X104115011Y-87110206D01*
X104115011Y-87022267D01*
X104166940Y-87022267D01*
X104203247Y-87025111D01*
X104230145Y-87036911D01*
X104257251Y-87060649D01*
X104295633Y-87099031D01*
X104295633Y-89290602D01*
X104295624Y-89552739D01*
X104295592Y-89793241D01*
X104295528Y-90013048D01*
X104295424Y-90213101D01*
X104295273Y-90394344D01*
X104295066Y-90557716D01*
X104294794Y-90704160D01*
X104294450Y-90834617D01*
X104294026Y-90950029D01*
X104293513Y-91051338D01*
X104292903Y-91139484D01*
X104292188Y-91215410D01*
X104291360Y-91280057D01*
X104290411Y-91334367D01*
X104289333Y-91379280D01*
X104288117Y-91415740D01*
X104286755Y-91444687D01*
X104285239Y-91467063D01*
X104283562Y-91483809D01*
X104281714Y-91495868D01*
X104279687Y-91504180D01*
X104277475Y-91509687D01*
X104276392Y-91511537D01*
X104272229Y-91518549D01*
X104268695Y-91524996D01*
X104264865Y-91530900D01*
X104259818Y-91536286D01*
X104252629Y-91541178D01*
X104242377Y-91545598D01*
X104228136Y-91549572D01*
X104208986Y-91553121D01*
X104184001Y-91556270D01*
X104152260Y-91559042D01*
X104112838Y-91561461D01*
X104064814Y-91563551D01*
X104007263Y-91565335D01*
X103939263Y-91566837D01*
X103859890Y-91568080D01*
X103768221Y-91569089D01*
X103663334Y-91569885D01*
X103544304Y-91570494D01*
X103410210Y-91570939D01*
X103260127Y-91571243D01*
X103093133Y-91571430D01*
X102908304Y-91571524D01*
X102704717Y-91571548D01*
X102481450Y-91571525D01*
X102237578Y-91571480D01*
X101972179Y-91571437D01*
X101933796Y-91571432D01*
X101666818Y-91571389D01*
X101421498Y-91571318D01*
X101196917Y-91571213D01*
X100992155Y-91571066D01*
X100806294Y-91570869D01*
X100638412Y-91570616D01*
X100487592Y-91570300D01*
X100352913Y-91569913D01*
X100233456Y-91569447D01*
X100128301Y-91568897D01*
X100036529Y-91568253D01*
X99957221Y-91567511D01*
X99889457Y-91566661D01*
X99832318Y-91565697D01*
X99784883Y-91564611D01*
X99746234Y-91563397D01*
X99715451Y-91562047D01*
X99691615Y-91560555D01*
X99673806Y-91558911D01*
X99661105Y-91557111D01*
X99652592Y-91555145D01*
X99648234Y-91553477D01*
X99639772Y-91549906D01*
X99632003Y-91547270D01*
X99624898Y-91544634D01*
X99618427Y-91541062D01*
X99612561Y-91535621D01*
X99607271Y-91527375D01*
X99602526Y-91515390D01*
X99598298Y-91498731D01*
X99594557Y-91476463D01*
X99591273Y-91447652D01*
X99588417Y-91411363D01*
X99585960Y-91366661D01*
X99583871Y-91312611D01*
X99582122Y-91248279D01*
X99580683Y-91172730D01*
X99579524Y-91085030D01*
X99578617Y-90984243D01*
X99577931Y-90869434D01*
X99577437Y-90739670D01*
X99577105Y-90594015D01*
X99576907Y-90431535D01*
X99576813Y-90251295D01*
X99576792Y-90052360D01*
X99576815Y-89833796D01*
X99576854Y-89594668D01*
X99576878Y-89334040D01*
X99576878Y-89291889D01*
X99576864Y-89028992D01*
X99576839Y-88787732D01*
X99576829Y-88567165D01*
X99576858Y-88366352D01*
X99576952Y-88184349D01*
X99577138Y-88020216D01*
X99577441Y-87873011D01*
X99577886Y-87741792D01*
X99578466Y-87631867D01*
X99881303Y-87631867D01*
X99921093Y-87689711D01*
X99932264Y-87705479D01*
X99942334Y-87719441D01*
X99951362Y-87732784D01*
X99959403Y-87746693D01*
X99966514Y-87762356D01*
X99972753Y-87780958D01*
X99978175Y-87803686D01*
X99982838Y-87831727D01*
X99986799Y-87866267D01*
X99990115Y-87908492D01*
X99992841Y-87959589D01*
X99995036Y-88020744D01*
X99996755Y-88093144D01*
X99998056Y-88177975D01*
X99998995Y-88276422D01*
X99999630Y-88389674D01*
X100000016Y-88518916D01*
X100000212Y-88665334D01*
X100000273Y-88830116D01*
X100000257Y-89014447D01*
X100000220Y-89219513D01*
X100000211Y-89342133D01*
X100000235Y-89559082D01*
X100000269Y-89754642D01*
X100000257Y-89929999D01*
X100000142Y-90086341D01*
X99999870Y-90224857D01*
X99999382Y-90346734D01*
X99998624Y-90453160D01*
X99997538Y-90545322D01*
X99996069Y-90624409D01*
X99994160Y-90691608D01*
X99991756Y-90748107D01*
X99988799Y-90795093D01*
X99985234Y-90833755D01*
X99981005Y-90865280D01*
X99976054Y-90890855D01*
X99970327Y-90911670D01*
X99963767Y-90928911D01*
X99956317Y-90943765D01*
X99947921Y-90957422D01*
X99938524Y-90971069D01*
X99928068Y-90985893D01*
X99921977Y-90994783D01*
X99883204Y-91052400D01*
X100414768Y-91052400D01*
X100538017Y-91052365D01*
X100640513Y-91052215D01*
X100724080Y-91051878D01*
X100790544Y-91051286D01*
X100841729Y-91050367D01*
X100879459Y-91049051D01*
X100905560Y-91047269D01*
X100921856Y-91044951D01*
X100930172Y-91042026D01*
X100932332Y-91038424D01*
X100930161Y-91034075D01*
X100928965Y-91032645D01*
X100903815Y-90995573D01*
X100877917Y-90942772D01*
X100854308Y-90880770D01*
X100846039Y-90854357D01*
X100841422Y-90836416D01*
X100837521Y-90815355D01*
X100834252Y-90789089D01*
X100831534Y-90755532D01*
X100829285Y-90712599D01*
X100827423Y-90658204D01*
X100825864Y-90590262D01*
X100824528Y-90506688D01*
X100823331Y-90405395D01*
X100822192Y-90284300D01*
X100821815Y-90239600D01*
X100820798Y-90114449D01*
X100820040Y-90010082D01*
X100819597Y-89924707D01*
X100819530Y-89856533D01*
X100819895Y-89803765D01*
X100820752Y-89764614D01*
X100822159Y-89737285D01*
X100824175Y-89719986D01*
X100826857Y-89710926D01*
X100830264Y-89708312D01*
X100834456Y-89710351D01*
X100838929Y-89714667D01*
X100849284Y-89727602D01*
X100871342Y-89756676D01*
X100903543Y-89799759D01*
X100944326Y-89854718D01*
X100992130Y-89919423D01*
X101045395Y-89991742D01*
X101102560Y-90069544D01*
X101162063Y-90150698D01*
X101222345Y-90233072D01*
X101281845Y-90314536D01*
X101339002Y-90392957D01*
X101392255Y-90466204D01*
X101440043Y-90532147D01*
X101480807Y-90588654D01*
X101512984Y-90633593D01*
X101535015Y-90664834D01*
X101539583Y-90671466D01*
X101562504Y-90708369D01*
X101589312Y-90756359D01*
X101614711Y-90805897D01*
X101617932Y-90812577D01*
X101639610Y-90860772D01*
X101652196Y-90898334D01*
X101657926Y-90934160D01*
X101659044Y-90976200D01*
X101658410Y-91052400D01*
X102812849Y-91052400D01*
X102721685Y-90958669D01*
X102674888Y-90908775D01*
X102624601Y-90852295D01*
X102578556Y-90798026D01*
X102558131Y-90772673D01*
X102527693Y-90733128D01*
X102487638Y-90679916D01*
X102439139Y-90614667D01*
X102383365Y-90539011D01*
X102321489Y-90454577D01*
X102254681Y-90362994D01*
X102184113Y-90265892D01*
X102110955Y-90164901D01*
X102036379Y-90061650D01*
X101961556Y-89957768D01*
X101887657Y-89854885D01*
X101815854Y-89754631D01*
X101747316Y-89658636D01*
X101683216Y-89568527D01*
X101624725Y-89485936D01*
X101573014Y-89412492D01*
X101529253Y-89349824D01*
X101494615Y-89299561D01*
X101470270Y-89263334D01*
X101457389Y-89242771D01*
X101455631Y-89238668D01*
X101463590Y-89227342D01*
X101484385Y-89200162D01*
X101516653Y-89158829D01*
X101559030Y-89105044D01*
X101610153Y-89040506D01*
X101668659Y-88966918D01*
X101733186Y-88885978D01*
X101802369Y-88799388D01*
X101874847Y-88708848D01*
X101949254Y-88616060D01*
X102008983Y-88541702D01*
X103019989Y-88541702D01*
X103025898Y-88554659D01*
X103040228Y-88576908D01*
X103041275Y-88578391D01*
X103060062Y-88608544D01*
X103079709Y-88645375D01*
X103083608Y-88653511D01*
X103087144Y-88661940D01*
X103090270Y-88672059D01*
X103093014Y-88685260D01*
X103095408Y-88702938D01*
X103097481Y-88726484D01*
X103099265Y-88757293D01*
X103100788Y-88796757D01*
X103102081Y-88846269D01*
X103103174Y-88907223D01*
X103104097Y-88981011D01*
X103104881Y-89069028D01*
X103105555Y-89172665D01*
X103106150Y-89293316D01*
X103106695Y-89432374D01*
X103107221Y-89591232D01*
X103107755Y-89770089D01*
X103108294Y-89955207D01*
X103108728Y-90119145D01*
X103108991Y-90263303D01*
X103109016Y-90389079D01*
X103108735Y-90497871D01*
X103108081Y-90591077D01*
X103106986Y-90670097D01*
X103105382Y-90736328D01*
X103103203Y-90791170D01*
X103100381Y-90836021D01*
X103096849Y-90872278D01*
X103092539Y-90901341D01*
X103087383Y-90924609D01*
X103081315Y-90943479D01*
X103074267Y-90959351D01*
X103066171Y-90973622D01*
X103056960Y-90987691D01*
X103048460Y-91000158D01*
X103031324Y-91026452D01*
X103021178Y-91044037D01*
X103019989Y-91047257D01*
X103030896Y-91048334D01*
X103062089Y-91049335D01*
X103111277Y-91050235D01*
X103176167Y-91051010D01*
X103254470Y-91051637D01*
X103343893Y-91052091D01*
X103442144Y-91052349D01*
X103511055Y-91052400D01*
X103616048Y-91052180D01*
X103712890Y-91051548D01*
X103799393Y-91050549D01*
X103873368Y-91049227D01*
X103932626Y-91047626D01*
X103974980Y-91045791D01*
X103998240Y-91043765D01*
X104002122Y-91042493D01*
X103994424Y-91027591D01*
X103986426Y-91019560D01*
X103973254Y-91002434D01*
X103956015Y-90972183D01*
X103944093Y-90947622D01*
X103917455Y-90888711D01*
X103914380Y-89711845D01*
X103911305Y-88534978D01*
X103465647Y-88534978D01*
X103367830Y-88535142D01*
X103277436Y-88535611D01*
X103196870Y-88536347D01*
X103128538Y-88537316D01*
X103074844Y-88538480D01*
X103038195Y-88539803D01*
X103020996Y-88541249D01*
X103019989Y-88541702D01*
X102008983Y-88541702D01*
X102024230Y-88522722D01*
X102098410Y-88430537D01*
X102170431Y-88341204D01*
X102238931Y-88256424D01*
X102302545Y-88177898D01*
X102359912Y-88107326D01*
X102409667Y-88046409D01*
X102450448Y-87996847D01*
X102467612Y-87976178D01*
X102553904Y-87875516D01*
X102630503Y-87792259D01*
X102699317Y-87724438D01*
X102762252Y-87670089D01*
X102771633Y-87662722D01*
X102811144Y-87632117D01*
X101679384Y-87631867D01*
X101684673Y-87679844D01*
X101681370Y-87737188D01*
X101659839Y-87805463D01*
X101619865Y-87885212D01*
X101574557Y-87957495D01*
X101558339Y-87980140D01*
X101530286Y-88017696D01*
X101492070Y-88068021D01*
X101445363Y-88128973D01*
X101391839Y-88198411D01*
X101333169Y-88274194D01*
X101271025Y-88354180D01*
X101207079Y-88436228D01*
X101143005Y-88518196D01*
X101080473Y-88597943D01*
X101021157Y-88673327D01*
X100966729Y-88742207D01*
X100918861Y-88802442D01*
X100879225Y-88851889D01*
X100849494Y-88888408D01*
X100831339Y-88909858D01*
X100828280Y-88913156D01*
X100825421Y-88905149D01*
X100823207Y-88874855D01*
X100821643Y-88822556D01*
X100820733Y-88748531D01*
X100820480Y-88653063D01*
X100820887Y-88536434D01*
X100821796Y-88416445D01*
X100823118Y-88284333D01*
X100824643Y-88172594D01*
X100826619Y-88079025D01*
X100829294Y-88001419D01*
X100832918Y-87937574D01*
X100837739Y-87885283D01*
X100844006Y-87842344D01*
X100851968Y-87806551D01*
X100861873Y-87775700D01*
X100873969Y-87747586D01*
X100888507Y-87720005D01*
X100903189Y-87694966D01*
X100941186Y-87631867D01*
X99881303Y-87631867D01*
X99578466Y-87631867D01*
X99578499Y-87625617D01*
X99579305Y-87523544D01*
X99580330Y-87434633D01*
X99581600Y-87357941D01*
X99583140Y-87292527D01*
X99584976Y-87237449D01*
X99587133Y-87191765D01*
X99589637Y-87154534D01*
X99592513Y-87124813D01*
X99595787Y-87101662D01*
X99599485Y-87084139D01*
X99603631Y-87071301D01*
X99608253Y-87062208D01*
X99613374Y-87055918D01*
X99619022Y-87051488D01*
X99625221Y-87047978D01*
X99631996Y-87044445D01*
X99637992Y-87040876D01*
X99643225Y-87038300D01*
X99651401Y-87035972D01*
X99663614Y-87033878D01*
X99680959Y-87032007D01*
X99704531Y-87030347D01*
X99735423Y-87028884D01*
X99774732Y-87027608D01*
X99823550Y-87026504D01*
X99882973Y-87025561D01*
X99954096Y-87024767D01*
X100038012Y-87024109D01*
X100135817Y-87023575D01*
X100248606Y-87023153D01*
X100377471Y-87022829D01*
X100523509Y-87022592D01*
X100687814Y-87022430D01*
X100871480Y-87022330D01*
X101075603Y-87022280D01*
X101286747Y-87022267D01*
X102907100Y-87022267D01*
X102907100Y-87119054D01*
G36*
X103580457Y-86656571D02*
G01*
X103676732Y-86680809D01*
X103763316Y-86723641D01*
X103838127Y-86783419D01*
X103899082Y-86858494D01*
X103944101Y-86947220D01*
X103970364Y-87043530D01*
X103976214Y-87140795D01*
X103961360Y-87234654D01*
X103927660Y-87322511D01*
X103876972Y-87401770D01*
X103811155Y-87469836D01*
X103732066Y-87524112D01*
X103641566Y-87562002D01*
X103590300Y-87574426D01*
X103545802Y-87581947D01*
X103511501Y-87584919D01*
X103478540Y-87583094D01*
X103438066Y-87576225D01*
X103404969Y-87569250D01*
X103311553Y-87537741D01*
X103227881Y-87486617D01*
X103155835Y-87417429D01*
X103097300Y-87331728D01*
X103083352Y-87304489D01*
X103066914Y-87268122D01*
X103056606Y-87237582D01*
X103051040Y-87205450D01*
X103048831Y-87164307D01*
X103048552Y-87118222D01*
X103052639Y-87033865D01*
X103066054Y-86964586D01*
X103091244Y-86903961D01*
X103130654Y-86845567D01*
X103169202Y-86801302D01*
X103241094Y-86735484D01*
X103316187Y-86690053D01*
X103398938Y-86662850D01*
X103476572Y-86652576D01*
X103580457Y-86656571D01*
X103580457Y-86656571D01*
G37*
X103580457Y-86656571D02*
X103676732Y-86680809D01*
X103763316Y-86723641D01*
X103838127Y-86783419D01*
X103899082Y-86858494D01*
X103944101Y-86947220D01*
X103970364Y-87043530D01*
X103976214Y-87140795D01*
X103961360Y-87234654D01*
X103927660Y-87322511D01*
X103876972Y-87401770D01*
X103811155Y-87469836D01*
X103732066Y-87524112D01*
X103641566Y-87562002D01*
X103590300Y-87574426D01*
X103545802Y-87581947D01*
X103511501Y-87584919D01*
X103478540Y-87583094D01*
X103438066Y-87576225D01*
X103404969Y-87569250D01*
X103311553Y-87537741D01*
X103227881Y-87486617D01*
X103155835Y-87417429D01*
X103097300Y-87331728D01*
X103083352Y-87304489D01*
X103066914Y-87268122D01*
X103056606Y-87237582D01*
X103051040Y-87205450D01*
X103048831Y-87164307D01*
X103048552Y-87118222D01*
X103052639Y-87033865D01*
X103066054Y-86964586D01*
X103091244Y-86903961D01*
X103130654Y-86845567D01*
X103169202Y-86801302D01*
X103241094Y-86735484D01*
X103316187Y-86690053D01*
X103398938Y-86662850D01*
X103476572Y-86652576D01*
X103580457Y-86656571D01*
G36*
X93027814Y-86844931D02*
G01*
X93111635Y-87289555D01*
X93420920Y-87417053D01*
X93730206Y-87544551D01*
X94101246Y-87292246D01*
X94205157Y-87221996D01*
X94299087Y-87159272D01*
X94378652Y-87106938D01*
X94439470Y-87067857D01*
X94477157Y-87044893D01*
X94487421Y-87039942D01*
X94505910Y-87052676D01*
X94545420Y-87087882D01*
X94601522Y-87141062D01*
X94669787Y-87207718D01*
X94745786Y-87283354D01*
X94825092Y-87363472D01*
X94903275Y-87443574D01*
X94975907Y-87519164D01*
X95038559Y-87585745D01*
X95086803Y-87638818D01*
X95116210Y-87673887D01*
X95123241Y-87685623D01*
X95113123Y-87707260D01*
X95084759Y-87754662D01*
X95041129Y-87823193D01*
X94985218Y-87908215D01*
X94920006Y-88005093D01*
X94882219Y-88060350D01*
X94813343Y-88161248D01*
X94752140Y-88252299D01*
X94701578Y-88328970D01*
X94664628Y-88386728D01*
X94644258Y-88421043D01*
X94641197Y-88428254D01*
X94648136Y-88448748D01*
X94667051Y-88496513D01*
X94695087Y-88564832D01*
X94729391Y-88646989D01*
X94767109Y-88736270D01*
X94805387Y-88825958D01*
X94841370Y-88909338D01*
X94872206Y-88979694D01*
X94895039Y-89030310D01*
X94907017Y-89054471D01*
X94907724Y-89055422D01*
X94926531Y-89060036D01*
X94976618Y-89070328D01*
X95052793Y-89085287D01*
X95149865Y-89103901D01*
X95262643Y-89125159D01*
X95328442Y-89137418D01*
X95448950Y-89160362D01*
X95557797Y-89182195D01*
X95649476Y-89201722D01*
X95718481Y-89217748D01*
X95759304Y-89229079D01*
X95767511Y-89232674D01*
X95775548Y-89257006D01*
X95782033Y-89311959D01*
X95786970Y-89391108D01*
X95790364Y-89488026D01*
X95792218Y-89596287D01*
X95792538Y-89709465D01*
X95791327Y-89821135D01*
X95788590Y-89924868D01*
X95784331Y-90014241D01*
X95778555Y-90082826D01*
X95771267Y-90124197D01*
X95766895Y-90132810D01*
X95740764Y-90143133D01*
X95685393Y-90157892D01*
X95608107Y-90175352D01*
X95516230Y-90193780D01*
X95484158Y-90199741D01*
X95329524Y-90228066D01*
X95207375Y-90250876D01*
X95113673Y-90269080D01*
X95044384Y-90283583D01*
X94995471Y-90295292D01*
X94962897Y-90305115D01*
X94942628Y-90313956D01*
X94930626Y-90322724D01*
X94928947Y-90324457D01*
X94912184Y-90352371D01*
X94886614Y-90406695D01*
X94854788Y-90480777D01*
X94819260Y-90567965D01*
X94782583Y-90661608D01*
X94747311Y-90755052D01*
X94715996Y-90841647D01*
X94691193Y-90914740D01*
X94675454Y-90967678D01*
X94671332Y-90993811D01*
X94671676Y-90994726D01*
X94685641Y-91016086D01*
X94717322Y-91063084D01*
X94763391Y-91130827D01*
X94820518Y-91214423D01*
X94885373Y-91308982D01*
X94903843Y-91335854D01*
X94969699Y-91433275D01*
X95027650Y-91522163D01*
X95074538Y-91597412D01*
X95107207Y-91653920D01*
X95122500Y-91686581D01*
X95123241Y-91690593D01*
X95110392Y-91711684D01*
X95074888Y-91753464D01*
X95021293Y-91811445D01*
X94954171Y-91881135D01*
X94878087Y-91958045D01*
X94797604Y-92037683D01*
X94717287Y-92115561D01*
X94641699Y-92187186D01*
X94575405Y-92248070D01*
X94522969Y-92293721D01*
X94488955Y-92319650D01*
X94479545Y-92323883D01*
X94457643Y-92313912D01*
X94412800Y-92287020D01*
X94352321Y-92247736D01*
X94305789Y-92216117D01*
X94221475Y-92158098D01*
X94121626Y-92089784D01*
X94021473Y-92021579D01*
X93967627Y-91985075D01*
X93785371Y-91861800D01*
X93632381Y-91944520D01*
X93562682Y-91980759D01*
X93503414Y-92008926D01*
X93463311Y-92024991D01*
X93453103Y-92027226D01*
X93440829Y-92010722D01*
X93416613Y-91964082D01*
X93382263Y-91891609D01*
X93339588Y-91797606D01*
X93290394Y-91686374D01*
X93236490Y-91562215D01*
X93179684Y-91429432D01*
X93121782Y-91292327D01*
X93064593Y-91155202D01*
X93009924Y-91022358D01*
X92959584Y-90898098D01*
X92915380Y-90786725D01*
X92879119Y-90692539D01*
X92852609Y-90619844D01*
X92837658Y-90572941D01*
X92835254Y-90556833D01*
X92854311Y-90536286D01*
X92896036Y-90502933D01*
X92951706Y-90463702D01*
X92956378Y-90460599D01*
X93100264Y-90345423D01*
X93216283Y-90211053D01*
X93303430Y-90061784D01*
X93360699Y-89901913D01*
X93387086Y-89735737D01*
X93381585Y-89567552D01*
X93343190Y-89401655D01*
X93270895Y-89242342D01*
X93249626Y-89207487D01*
X93138996Y-89066737D01*
X93008302Y-88953714D01*
X92862064Y-88869003D01*
X92704808Y-88813194D01*
X92541057Y-88786874D01*
X92375333Y-88790630D01*
X92212162Y-88825050D01*
X92056065Y-88890723D01*
X91911567Y-88988235D01*
X91866869Y-89027813D01*
X91753112Y-89151703D01*
X91670218Y-89282124D01*
X91613356Y-89428315D01*
X91581687Y-89573088D01*
X91573869Y-89735860D01*
X91599938Y-89899440D01*
X91657245Y-90058298D01*
X91743144Y-90206906D01*
X91854986Y-90339735D01*
X91990123Y-90451256D01*
X92007883Y-90463011D01*
X92064150Y-90501508D01*
X92106923Y-90534863D01*
X92127372Y-90556160D01*
X92127669Y-90556833D01*
X92123279Y-90579871D01*
X92105876Y-90632157D01*
X92077268Y-90709390D01*
X92039265Y-90807268D01*
X91993674Y-90921491D01*
X91942303Y-91047758D01*
X91886962Y-91181767D01*
X91829458Y-91319218D01*
X91771601Y-91455808D01*
X91715198Y-91587237D01*
X91662058Y-91709205D01*
X91613990Y-91817409D01*
X91572801Y-91907549D01*
X91540301Y-91975323D01*
X91518297Y-92016430D01*
X91509436Y-92027226D01*
X91482360Y-92018819D01*
X91431697Y-91996272D01*
X91366183Y-91963613D01*
X91330159Y-91944520D01*
X91177168Y-91861800D01*
X90994912Y-91985075D01*
X90901875Y-92048228D01*
X90800015Y-92117727D01*
X90704562Y-92183165D01*
X90656750Y-92216117D01*
X90589505Y-92261273D01*
X90532564Y-92297057D01*
X90493354Y-92318938D01*
X90480619Y-92323563D01*
X90462083Y-92311085D01*
X90421059Y-92276252D01*
X90361525Y-92222678D01*
X90287458Y-92153983D01*
X90202835Y-92073781D01*
X90149315Y-92022286D01*
X90055681Y-91930286D01*
X89974759Y-91847999D01*
X89909823Y-91778945D01*
X89864142Y-91726644D01*
X89840989Y-91694616D01*
X89838768Y-91688116D01*
X89849076Y-91663394D01*
X89877561Y-91613405D01*
X89921063Y-91543212D01*
X89976423Y-91457875D01*
X90040480Y-91362456D01*
X90058697Y-91335854D01*
X90125073Y-91239167D01*
X90184622Y-91152117D01*
X90234016Y-91079595D01*
X90269925Y-91026493D01*
X90289019Y-90997703D01*
X90290864Y-90994726D01*
X90288105Y-90971782D01*
X90273462Y-90921336D01*
X90249487Y-90850041D01*
X90218734Y-90764547D01*
X90183756Y-90671507D01*
X90147107Y-90577574D01*
X90111339Y-90489399D01*
X90079006Y-90413634D01*
X90052662Y-90356931D01*
X90034858Y-90325943D01*
X90033593Y-90324457D01*
X90022706Y-90315601D01*
X90004318Y-90306843D01*
X89974394Y-90297277D01*
X89928897Y-90285996D01*
X89863791Y-90272093D01*
X89775039Y-90254663D01*
X89658607Y-90232798D01*
X89510458Y-90205591D01*
X89478382Y-90199741D01*
X89383314Y-90181374D01*
X89300435Y-90163405D01*
X89237070Y-90147569D01*
X89200542Y-90135600D01*
X89195644Y-90132810D01*
X89187573Y-90108072D01*
X89181013Y-90052790D01*
X89175967Y-89973389D01*
X89172441Y-89876296D01*
X89170439Y-89767938D01*
X89169964Y-89654740D01*
X89171023Y-89543128D01*
X89173618Y-89439529D01*
X89177754Y-89350368D01*
X89183437Y-89282072D01*
X89190669Y-89241066D01*
X89195029Y-89232674D01*
X89219302Y-89224208D01*
X89274574Y-89210435D01*
X89355338Y-89192550D01*
X89456088Y-89171748D01*
X89571317Y-89149223D01*
X89634098Y-89137418D01*
X89753213Y-89115151D01*
X89859435Y-89094979D01*
X89947573Y-89077915D01*
X90012434Y-89064969D01*
X90048826Y-89057155D01*
X90054816Y-89055422D01*
X90064939Y-89035890D01*
X90086338Y-88988843D01*
X90116161Y-88921003D01*
X90151555Y-88839091D01*
X90189668Y-88749828D01*
X90227647Y-88659935D01*
X90262640Y-88576135D01*
X90291794Y-88505147D01*
X90312257Y-88453694D01*
X90321177Y-88428497D01*
X90321343Y-88427396D01*
X90311231Y-88407519D01*
X90282883Y-88361777D01*
X90239277Y-88294717D01*
X90183394Y-88210884D01*
X90118213Y-88114826D01*
X90080321Y-88059650D01*
X90011275Y-87958481D01*
X89949950Y-87866630D01*
X89899337Y-87788744D01*
X89862429Y-87729469D01*
X89842218Y-87693451D01*
X89839299Y-87685377D01*
X89851847Y-87666584D01*
X89886537Y-87626457D01*
X89938937Y-87569493D01*
X90004616Y-87500185D01*
X90079144Y-87423031D01*
X90158087Y-87342525D01*
X90237017Y-87263163D01*
X90311500Y-87189440D01*
X90377106Y-87125852D01*
X90429404Y-87076894D01*
X90463961Y-87047061D01*
X90475522Y-87039942D01*
X90494346Y-87049953D01*
X90539369Y-87078078D01*
X90606213Y-87121454D01*
X90690501Y-87177218D01*
X90787856Y-87242506D01*
X90861293Y-87292246D01*
X91232333Y-87544551D01*
X91850905Y-87289555D01*
X91934725Y-86844931D01*
X92018546Y-86400307D01*
X92943994Y-86400307D01*
X93027814Y-86844931D01*
X93027814Y-86844931D01*
G37*
X93027814Y-86844931D02*
X93111635Y-87289555D01*
X93420920Y-87417053D01*
X93730206Y-87544551D01*
X94101246Y-87292246D01*
X94205157Y-87221996D01*
X94299087Y-87159272D01*
X94378652Y-87106938D01*
X94439470Y-87067857D01*
X94477157Y-87044893D01*
X94487421Y-87039942D01*
X94505910Y-87052676D01*
X94545420Y-87087882D01*
X94601522Y-87141062D01*
X94669787Y-87207718D01*
X94745786Y-87283354D01*
X94825092Y-87363472D01*
X94903275Y-87443574D01*
X94975907Y-87519164D01*
X95038559Y-87585745D01*
X95086803Y-87638818D01*
X95116210Y-87673887D01*
X95123241Y-87685623D01*
X95113123Y-87707260D01*
X95084759Y-87754662D01*
X95041129Y-87823193D01*
X94985218Y-87908215D01*
X94920006Y-88005093D01*
X94882219Y-88060350D01*
X94813343Y-88161248D01*
X94752140Y-88252299D01*
X94701578Y-88328970D01*
X94664628Y-88386728D01*
X94644258Y-88421043D01*
X94641197Y-88428254D01*
X94648136Y-88448748D01*
X94667051Y-88496513D01*
X94695087Y-88564832D01*
X94729391Y-88646989D01*
X94767109Y-88736270D01*
X94805387Y-88825958D01*
X94841370Y-88909338D01*
X94872206Y-88979694D01*
X94895039Y-89030310D01*
X94907017Y-89054471D01*
X94907724Y-89055422D01*
X94926531Y-89060036D01*
X94976618Y-89070328D01*
X95052793Y-89085287D01*
X95149865Y-89103901D01*
X95262643Y-89125159D01*
X95328442Y-89137418D01*
X95448950Y-89160362D01*
X95557797Y-89182195D01*
X95649476Y-89201722D01*
X95718481Y-89217748D01*
X95759304Y-89229079D01*
X95767511Y-89232674D01*
X95775548Y-89257006D01*
X95782033Y-89311959D01*
X95786970Y-89391108D01*
X95790364Y-89488026D01*
X95792218Y-89596287D01*
X95792538Y-89709465D01*
X95791327Y-89821135D01*
X95788590Y-89924868D01*
X95784331Y-90014241D01*
X95778555Y-90082826D01*
X95771267Y-90124197D01*
X95766895Y-90132810D01*
X95740764Y-90143133D01*
X95685393Y-90157892D01*
X95608107Y-90175352D01*
X95516230Y-90193780D01*
X95484158Y-90199741D01*
X95329524Y-90228066D01*
X95207375Y-90250876D01*
X95113673Y-90269080D01*
X95044384Y-90283583D01*
X94995471Y-90295292D01*
X94962897Y-90305115D01*
X94942628Y-90313956D01*
X94930626Y-90322724D01*
X94928947Y-90324457D01*
X94912184Y-90352371D01*
X94886614Y-90406695D01*
X94854788Y-90480777D01*
X94819260Y-90567965D01*
X94782583Y-90661608D01*
X94747311Y-90755052D01*
X94715996Y-90841647D01*
X94691193Y-90914740D01*
X94675454Y-90967678D01*
X94671332Y-90993811D01*
X94671676Y-90994726D01*
X94685641Y-91016086D01*
X94717322Y-91063084D01*
X94763391Y-91130827D01*
X94820518Y-91214423D01*
X94885373Y-91308982D01*
X94903843Y-91335854D01*
X94969699Y-91433275D01*
X95027650Y-91522163D01*
X95074538Y-91597412D01*
X95107207Y-91653920D01*
X95122500Y-91686581D01*
X95123241Y-91690593D01*
X95110392Y-91711684D01*
X95074888Y-91753464D01*
X95021293Y-91811445D01*
X94954171Y-91881135D01*
X94878087Y-91958045D01*
X94797604Y-92037683D01*
X94717287Y-92115561D01*
X94641699Y-92187186D01*
X94575405Y-92248070D01*
X94522969Y-92293721D01*
X94488955Y-92319650D01*
X94479545Y-92323883D01*
X94457643Y-92313912D01*
X94412800Y-92287020D01*
X94352321Y-92247736D01*
X94305789Y-92216117D01*
X94221475Y-92158098D01*
X94121626Y-92089784D01*
X94021473Y-92021579D01*
X93967627Y-91985075D01*
X93785371Y-91861800D01*
X93632381Y-91944520D01*
X93562682Y-91980759D01*
X93503414Y-92008926D01*
X93463311Y-92024991D01*
X93453103Y-92027226D01*
X93440829Y-92010722D01*
X93416613Y-91964082D01*
X93382263Y-91891609D01*
X93339588Y-91797606D01*
X93290394Y-91686374D01*
X93236490Y-91562215D01*
X93179684Y-91429432D01*
X93121782Y-91292327D01*
X93064593Y-91155202D01*
X93009924Y-91022358D01*
X92959584Y-90898098D01*
X92915380Y-90786725D01*
X92879119Y-90692539D01*
X92852609Y-90619844D01*
X92837658Y-90572941D01*
X92835254Y-90556833D01*
X92854311Y-90536286D01*
X92896036Y-90502933D01*
X92951706Y-90463702D01*
X92956378Y-90460599D01*
X93100264Y-90345423D01*
X93216283Y-90211053D01*
X93303430Y-90061784D01*
X93360699Y-89901913D01*
X93387086Y-89735737D01*
X93381585Y-89567552D01*
X93343190Y-89401655D01*
X93270895Y-89242342D01*
X93249626Y-89207487D01*
X93138996Y-89066737D01*
X93008302Y-88953714D01*
X92862064Y-88869003D01*
X92704808Y-88813194D01*
X92541057Y-88786874D01*
X92375333Y-88790630D01*
X92212162Y-88825050D01*
X92056065Y-88890723D01*
X91911567Y-88988235D01*
X91866869Y-89027813D01*
X91753112Y-89151703D01*
X91670218Y-89282124D01*
X91613356Y-89428315D01*
X91581687Y-89573088D01*
X91573869Y-89735860D01*
X91599938Y-89899440D01*
X91657245Y-90058298D01*
X91743144Y-90206906D01*
X91854986Y-90339735D01*
X91990123Y-90451256D01*
X92007883Y-90463011D01*
X92064150Y-90501508D01*
X92106923Y-90534863D01*
X92127372Y-90556160D01*
X92127669Y-90556833D01*
X92123279Y-90579871D01*
X92105876Y-90632157D01*
X92077268Y-90709390D01*
X92039265Y-90807268D01*
X91993674Y-90921491D01*
X91942303Y-91047758D01*
X91886962Y-91181767D01*
X91829458Y-91319218D01*
X91771601Y-91455808D01*
X91715198Y-91587237D01*
X91662058Y-91709205D01*
X91613990Y-91817409D01*
X91572801Y-91907549D01*
X91540301Y-91975323D01*
X91518297Y-92016430D01*
X91509436Y-92027226D01*
X91482360Y-92018819D01*
X91431697Y-91996272D01*
X91366183Y-91963613D01*
X91330159Y-91944520D01*
X91177168Y-91861800D01*
X90994912Y-91985075D01*
X90901875Y-92048228D01*
X90800015Y-92117727D01*
X90704562Y-92183165D01*
X90656750Y-92216117D01*
X90589505Y-92261273D01*
X90532564Y-92297057D01*
X90493354Y-92318938D01*
X90480619Y-92323563D01*
X90462083Y-92311085D01*
X90421059Y-92276252D01*
X90361525Y-92222678D01*
X90287458Y-92153983D01*
X90202835Y-92073781D01*
X90149315Y-92022286D01*
X90055681Y-91930286D01*
X89974759Y-91847999D01*
X89909823Y-91778945D01*
X89864142Y-91726644D01*
X89840989Y-91694616D01*
X89838768Y-91688116D01*
X89849076Y-91663394D01*
X89877561Y-91613405D01*
X89921063Y-91543212D01*
X89976423Y-91457875D01*
X90040480Y-91362456D01*
X90058697Y-91335854D01*
X90125073Y-91239167D01*
X90184622Y-91152117D01*
X90234016Y-91079595D01*
X90269925Y-91026493D01*
X90289019Y-90997703D01*
X90290864Y-90994726D01*
X90288105Y-90971782D01*
X90273462Y-90921336D01*
X90249487Y-90850041D01*
X90218734Y-90764547D01*
X90183756Y-90671507D01*
X90147107Y-90577574D01*
X90111339Y-90489399D01*
X90079006Y-90413634D01*
X90052662Y-90356931D01*
X90034858Y-90325943D01*
X90033593Y-90324457D01*
X90022706Y-90315601D01*
X90004318Y-90306843D01*
X89974394Y-90297277D01*
X89928897Y-90285996D01*
X89863791Y-90272093D01*
X89775039Y-90254663D01*
X89658607Y-90232798D01*
X89510458Y-90205591D01*
X89478382Y-90199741D01*
X89383314Y-90181374D01*
X89300435Y-90163405D01*
X89237070Y-90147569D01*
X89200542Y-90135600D01*
X89195644Y-90132810D01*
X89187573Y-90108072D01*
X89181013Y-90052790D01*
X89175967Y-89973389D01*
X89172441Y-89876296D01*
X89170439Y-89767938D01*
X89169964Y-89654740D01*
X89171023Y-89543128D01*
X89173618Y-89439529D01*
X89177754Y-89350368D01*
X89183437Y-89282072D01*
X89190669Y-89241066D01*
X89195029Y-89232674D01*
X89219302Y-89224208D01*
X89274574Y-89210435D01*
X89355338Y-89192550D01*
X89456088Y-89171748D01*
X89571317Y-89149223D01*
X89634098Y-89137418D01*
X89753213Y-89115151D01*
X89859435Y-89094979D01*
X89947573Y-89077915D01*
X90012434Y-89064969D01*
X90048826Y-89057155D01*
X90054816Y-89055422D01*
X90064939Y-89035890D01*
X90086338Y-88988843D01*
X90116161Y-88921003D01*
X90151555Y-88839091D01*
X90189668Y-88749828D01*
X90227647Y-88659935D01*
X90262640Y-88576135D01*
X90291794Y-88505147D01*
X90312257Y-88453694D01*
X90321177Y-88428497D01*
X90321343Y-88427396D01*
X90311231Y-88407519D01*
X90282883Y-88361777D01*
X90239277Y-88294717D01*
X90183394Y-88210884D01*
X90118213Y-88114826D01*
X90080321Y-88059650D01*
X90011275Y-87958481D01*
X89949950Y-87866630D01*
X89899337Y-87788744D01*
X89862429Y-87729469D01*
X89842218Y-87693451D01*
X89839299Y-87685377D01*
X89851847Y-87666584D01*
X89886537Y-87626457D01*
X89938937Y-87569493D01*
X90004616Y-87500185D01*
X90079144Y-87423031D01*
X90158087Y-87342525D01*
X90237017Y-87263163D01*
X90311500Y-87189440D01*
X90377106Y-87125852D01*
X90429404Y-87076894D01*
X90463961Y-87047061D01*
X90475522Y-87039942D01*
X90494346Y-87049953D01*
X90539369Y-87078078D01*
X90606213Y-87121454D01*
X90690501Y-87177218D01*
X90787856Y-87242506D01*
X90861293Y-87292246D01*
X91232333Y-87544551D01*
X91850905Y-87289555D01*
X91934725Y-86844931D01*
X92018546Y-86400307D01*
X92943994Y-86400307D01*
X93027814Y-86844931D01*
D13*
X116651500Y-89893300D03*
X116651500Y-86093300D03*
D14*
X121822030Y-89259973D03*
X123282030Y-90320725D03*
X125086690Y-90320725D03*
X126546690Y-89259973D03*
X127104360Y-87543640D03*
X126546690Y-85827307D03*
X125086690Y-84766555D03*
X123282030Y-84766555D03*
X121822030Y-85827307D03*
D15*
X121264360Y-87543640D03*
D16*
X130814400Y-91033600D03*
D17*
X138434400Y-83413600D03*
X130814400Y-88493600D03*
X138434400Y-85953600D03*
X130814400Y-85953600D03*
X138434400Y-88493600D03*
X130814400Y-83413600D03*
X138434400Y-91033600D03*
M02*
